<?xml version="1.0" encoding="utf-8"?>
<!-- Generator: Adobe Illustrator 25.4.1, SVG Export Plug-In . SVG Version: 6.00 Build 0)  -->
<svg version="1.1" id="Capa_1" xmlns="http://www.w3.org/2000/svg" xmlns:xlink="http://www.w3.org/1999/xlink" x="0px" y="0px"
	 viewBox="0 0 500 500" style="enable-background:new 0 0 500 500;" xml:space="preserve">
<style type="text/css">
	.st0{fill:#EE3035;}
	.st1{fill:#FF161F;}
</style>
<g>
	<path class="st0" d="M249.8,498.9c-21.5,0-43-2.8-63.9-8.4c-41.8-11.2-80.2-33.2-111-63.6c-2.9-2.9-3-7.6-0.1-10.5s7.6-3,10.5-0.1
		c29,28.6,65.1,49.3,104.4,59.8c40.5,10.8,83.4,10.5,123.9-1c60.1-17,110.1-56.5,140.6-111c30.5-54.6,37.9-117.7,20.9-177.9
		c-1.1-3.9,1.2-8.1,5.1-9.2c3.9-1.1,8.1,1.2,9.2,5.1c18.1,64,10.2,131.2-22.2,189.2s-85.5,100-149.5,118.1
		C295.6,495.8,272.7,498.9,249.8,498.9z"/>
	<path class="st0" d="M17.7,323.2c-3.2,0-6.2-2.1-7.1-5.4c-18.1-64-10.2-131.2,22.2-189.2s85.5-100,149.5-118.1
		c46.5-13.2,95.4-12.6,141.4,1.7c44.8,13.9,84.6,40,115.1,75.5c2.7,3.1,2.3,7.8-0.8,10.5c-3.1,2.7-7.8,2.3-10.5-0.8
		c-28.7-33.4-66.2-57.9-108.3-71c-43.2-13.4-89.2-14-133-1.6c-60.1,17-110.1,56.5-140.6,111C15.2,190.4,7.8,253.6,24.8,313.7
		c1.1,3.9-1.2,8.1-5.1,9.2C19,323.1,18.3,323.2,17.7,323.2z"/>
</g>
<path class="st1" d="M318.9,281.9h-7.2V274c0.3,0,0.6,0.1,0.8,0.1c1.2,0,2.3-0.4,3.3-1.2c4.6-3.9,6.6-10.2,5.1-16
	c0-0.1-0.1-0.2-0.1-0.3l-23.2-68.8v-58.2c0-17.5-12.8-31.3-29.4-32.1c-5.4-6.1-13.2-9.9-21.9-9.9c-8.7,0-16.6,3.9-22,10
	c-16.6,1.2-29.8,15.1-29.8,32v54.1c0,0.1,0,0.1,0,0.2L170,256.5c0,0.1-0.1,0.2-0.1,0.3c-2.1,8.1,2.5,16.5,10.5,19
	c1.6,0.5,3.1,0.7,4.7,0.7c6.4,0,12.4-3.9,14.7-10.2l8-21.4l7.4,149.8l-0.1,0c0.2,9.1,7.5,17,16.7,17.3c4.8,0.2,9.3-1.6,12.8-4.9
	c0,0,0.1-0.1,0.1-0.1c0.1,0.1,0.2,0.2,0.4,0.4c3.5,3.4,8.2,5.2,13.1,5c9.2-0.3,16.6-7.6,17.2-16.6c0-0.2,0.1-0.4,0.1-0.6L283,245
	l8,21.4c1.2,3.1,3.3,5.8,6.1,7.6c0.9,0.6,1.8,0.8,2.8,0.8c0.6,0,1.1-0.1,1.6-0.3v7.3h-7.6c-6.5,0-11.7,5.2-11.7,11.7v82.7
	c0,6.5,5.2,11.7,11.7,11.7h25c6.5,0,11.7-5.2,11.7-11.7v-82.7C330.6,287.1,325.4,281.9,318.9,281.9z M246.3,97.7
	c10.5,0,19.1,8.6,19.1,19.1c0,10.5-8.6,19.1-19.1,19.1c-10.5,0-19.1-8.6-19.1-19.1C227.2,106.3,235.8,97.7,246.3,97.7z M207.3,217.4
	c-0.2,0.4-0.4,0.9-0.5,1.4l-16.4,44c-1,2.7-4,4.2-6.8,3.3c-2.8-0.9-4.4-3.7-3.7-6.5l27.2-80.4c0.1-0.3,0.2-0.6,0.2-0.9
	c0.8-5,3.1-9.5,6.5-13l4.5,22.8L207.3,217.4z M265.4,394.7c-0.1,4.3-3,8-7.4,8.2c-2.3,0.1-4.4-0.7-6.1-2.3c-1.4-1.4-1.8-3.3-1.9-5.3
	c0-0.1,0-0.2,0-0.3V268.8c0-2.8-2.3-5.1-5.1-5.1c-2.8,0-5.1,2.3-5.1,5.1v125.7l-0.1,0.1c0,2.2,0,4.4-1.6,6c-1.6,1.5-3.7,2.3-5.9,2.3
	c-4.2-0.2-6.7-3.9-6.8-8.1l-8.6-173.9l11.4-30.5c0,0,0-0.1,0-0.1c0-0.1,0.1-0.2,0.1-0.3c0-0.1,0-0.1,0.1-0.2c0-0.1,0-0.2,0.1-0.3
	c0-0.1,0-0.2,0-0.2c0-0.1,0-0.2,0-0.3c0-0.1,0-0.2,0-0.3c0-0.1,0-0.2,0-0.2c0-0.1,0-0.2,0-0.3c0-0.1,0-0.1,0-0.2c0-0.1,0-0.2,0-0.3
	c0,0,0-0.1,0-0.1l-5.6-28.1c0.6-0.2,1.1-0.4,1.7-0.5l8.4-2.2c2.7-0.7,4.4-3.5,3.7-6.2c-0.7-2.7-3.5-4.4-6.2-3.7l-8.4,2.2
	c-0.4,0.1-0.7,0.2-1.1,0.3l-1-5.1c-0.5-2.8-3.2-4.6-6-4c-2.8,0.5-4.6,3.2-4,6l1.5,7.6c-2.5,1.7-4.7,3.7-6.6,6v-30.4
	c0-9,5.4-16.7,13.2-20.1c-0.6,2.4-0.9,4.8-0.9,7.4c0,16.2,13.1,29.3,29.3,29.3c16.2,0,29.3-13.1,29.3-29.3c0-2.7-0.4-5.3-1-7.7
	c7.7,3.1,12.9,10.9,12.9,20.4v32c-2.2-2.9-4.9-5.5-7.9-7.6l1.5-7.6c0.5-2.8-1.2-5.5-4-6c-2.8-0.5-5.5,1.2-6,4l-1,5.1
	c-0.4-0.1-0.7-0.2-1.1-0.3l-8.4-2.2c-2.7-0.7-5.5,0.9-6.2,3.7c-0.7,2.7,0.9,5.5,3.7,6.2l8.4,2.2c0.6,0.1,1.1,0.3,1.7,0.5l-5.6,28.1
	c0,0,0,0.1,0,0.1c0,0.1,0,0.2,0,0.3c0,0.1,0,0.1,0,0.2c0,0.1,0,0.2,0,0.3c0,0.1,0,0.2,0,0.2c0,0.1,0,0.2,0,0.3c0,0.1,0,0.2,0,0.3
	c0,0.1,0,0.2,0,0.2c0,0.1,0,0.2,0.1,0.3c0,0.1,0,0.1,0.1,0.2c0,0.1,0.1,0.2,0.1,0.3c0,0,0,0.1,0,0.1l11.4,30.5L265.4,394.7z
	 M300.6,262.8l-16.4-44c-0.1-0.5-0.3-1-0.5-1.4l-10.9-29.3l4.5-22.8c3.4,3.5,5.8,8,6.5,13c0,0.3,0.1,0.6,0.2,0.9l3.6,10.6
	c0.1,0.4,0.2,0.7,0.4,1.1l23.2,68.8c0.5,2-0.2,4.2-1.8,5.5c-0.4,0.3-0.8,0.7-1,1.2c-0.5-0.2-1.1-0.3-1.6-0.3c-1,0-1.9,0.3-2.6,0.7
	c-0.4-0.5-0.8-0.9-1.3-1.3C301.7,264.8,301,263.9,300.6,262.8z M320.4,376.2c0,0.8-0.7,1.5-1.5,1.5h-25c-0.8,0-1.5-0.7-1.5-1.5
	v-82.7c0-0.8,0.7-1.5,1.5-1.5h25c0.8,0,1.5,0.7,1.5,1.5V376.2z"/>
</svg>
