<?xml version="1.0" encoding="utf-8"?>
<!-- Generator: Adobe Illustrator 25.4.1, SVG Export Plug-In . SVG Version: 6.00 Build 0)  -->
<svg version="1.1" id="Capa_1" xmlns="http://www.w3.org/2000/svg" xmlns:xlink="http://www.w3.org/1999/xlink" x="0px" y="0px"
	 viewBox="0 0 500 500" style="enable-background:new 0 0 500 500;" xml:space="preserve">
<style type="text/css">
	.st0{fill:#EE3035;}
	.st1{fill:#FF161F;}
</style>
<g>
	<path class="st0" d="M249.8,498.9c-21.5,0-43-2.8-63.9-8.4c-41.8-11.2-80.2-33.2-111-63.6c-2.9-2.9-3-7.6-0.1-10.5s7.6-3,10.5-0.1
		c29,28.6,65.1,49.3,104.4,59.8c40.5,10.8,83.4,10.5,123.9-1c60.1-17,110.1-56.5,140.6-111c30.5-54.6,37.9-117.7,20.9-177.9
		c-1.1-3.9,1.2-8.1,5.1-9.2c3.9-1.1,8.1,1.2,9.2,5.1c18.1,64,10.2,131.2-22.2,189.2s-85.5,100-149.5,118.1
		C295.6,495.8,272.7,498.9,249.8,498.9z"/>
	<path class="st0" d="M17.7,323.2c-3.2,0-6.2-2.1-7.1-5.4c-18.1-64-10.2-131.2,22.2-189.2s85.5-100,149.5-118.1
		c46.5-13.2,95.4-12.6,141.4,1.7c44.8,13.9,84.6,40,115.1,75.5c2.7,3.1,2.3,7.8-0.8,10.5c-3.1,2.7-7.8,2.3-10.5-0.8
		c-28.7-33.4-66.2-57.9-108.3-71c-43.2-13.4-89.2-14-133-1.6c-60.1,17-110.1,56.5-140.6,111C15.2,190.4,7.8,253.6,24.8,313.7
		c1.1,3.9-1.2,8.1-5.1,9.2C19,323.1,18.3,323.2,17.7,323.2z"/>
</g>
<path class="st1" d="M409.6,258c0-0.1-0.1-0.2-0.1-0.3l-24.8-73.4c0-0.1,0-0.2,0-0.3v-54.6c0-16.9-13.2-30.8-29.8-31.9
	c-5.3-6.1-13.2-10-22-10c-8.7,0-16.6,3.9-21.9,10c-16.6,0.7-29.4,14.5-29.4,32v58.8l-23.5,69.5c0,0.1-0.1,0.2-0.1,0.3
	c-2.1,8,2.4,16.2,10.3,18.7c1.5,0.5,3.1,0.7,4.6,0.7c6.3,0,12.1-3.8,14.5-10l8.8-23.5l7.5,151.7c0.2,9.2,7.6,16.6,16.9,17
	c4.8,0.2,9.4-1.6,12.8-4.9c0.2-0.2,0.4-0.4,0.6-0.6c0.2,0.2,0.3,0.3,0.5,0.5c3.4,3.3,7.9,5,12.7,4.9c9.1-0.3,16.5-7.7,16.7-16.8
	l7.5-151.8l8.8,23.6c2.3,6.1,8.2,10,14.5,10c1.5,0,3.1-0.2,4.6-0.7C407.2,274.2,411.7,266,409.6,258z M333,96.9
	c10.9,0,19.7,8.8,19.7,19.7c0,10.9-8.8,19.7-19.7,19.7c-10.9,0-19.7-8.8-19.7-19.7C313.3,105.8,322.1,96.9,333,96.9z M295.7,218.3
	c-0.2,0.4-0.4,0.9-0.5,1.3l-16.6,44.4c-1.1,3-4.4,4.5-7.4,3.6c-3-0.9-4.8-4.1-4-7.1l23.5-69.4c0.2-0.3,0.3-0.7,0.4-1l3.6-10.7
	c0.1-0.3,0.2-0.5,0.2-0.8c0.8-5.4,3.5-10.3,7.3-13.9l4.8,23.9L295.7,218.3z M354.5,395l-0.1,0c-0.1,4.2-3.2,8-7.5,8.1
	c-2.2,0.1-4.3-0.7-5.9-2.3c-1.3-1.2-2-2.9-2.2-4.6c0-0.4,0-0.8,0-1.3l0.3-125c0-2.6-2.1-4.7-4.7-4.7c-2.6,0-4.7,2.1-4.7,4.7
	l-0.4,125c0,0.2,0,0.4,0,0.6c-0.2,1.9-0.9,3.9-2.3,5.2c-1.6,1.5-3.7,2.3-5.9,2.3c-4.3-0.2-7.6-4-7.7-8.2l-8.7-173.4l11.5-30.8
	c0,0,0-0.1,0-0.1c0-0.1,0.1-0.2,0.1-0.3c0-0.1,0-0.1,0-0.2c0-0.1,0-0.2,0.1-0.3c0-0.1,0-0.1,0-0.2c0-0.1,0-0.2,0-0.2
	c0-0.1,0-0.2,0-0.2c0-0.1,0-0.1,0-0.2c0-0.1,0-0.2,0-0.3c0-0.1,0-0.1,0-0.2c0-0.1,0-0.2,0-0.3c0,0,0-0.1,0-0.1l-5.7-28.7
	c0.7-0.2,1.4-0.5,2.1-0.7l8.5-2.2c2.5-0.7,4-3.2,3.4-5.8c-0.7-2.5-3.2-4-5.8-3.4l-8.5,2.2c-0.5,0.1-1.1,0.3-1.6,0.5l-1.1-5.6
	c-0.5-2.6-3-4.2-5.6-3.7c-2.6,0.5-4.2,3-3.7,5.6l1.6,7.9c-3.5,2.4-6.5,5.3-8.9,8.8v-33.6c0-10.1,5.7-18.3,14.1-21.3
	c-0.8,2.7-1.3,5.5-1.3,8.5c0,16.1,13.1,29.1,29.1,29.1c16.1,0,29.1-13.1,29.1-29.1c0-2.8-0.4-5.6-1.2-8.2c8.4,3.3,14.4,11.5,14.4,21
	v31.8c-2.2-2.7-4.7-5.1-7.6-7l1.6-7.9c0.5-2.6-1.2-5-3.7-5.6c-2.6-0.5-5,1.2-5.6,3.7l-1.1,5.6c-0.5-0.2-1-0.3-1.6-0.5l-8.5-2.2
	c-2.5-0.7-5.1,0.9-5.8,3.4c-0.7,2.5,0.9,5.1,3.4,5.8l8.5,2.2c0.7,0.2,1.4,0.4,2.1,0.7l-5.7,28.7c0,0,0,0.1,0,0.1c0,0.1,0,0.2,0,0.3
	c0,0.1,0,0.1,0,0.2c0,0.1,0,0.2,0,0.3c0,0.1,0,0.1,0,0.2c0,0.1,0,0.2,0,0.2c0,0.1,0,0.2,0,0.2c0,0.1,0,0.1,0,0.2
	c0,0.1,0,0.2,0.1,0.3c0,0.1,0,0.1,0,0.2c0,0.1,0.1,0.2,0.1,0.3c0,0,0,0.1,0,0.1l11.5,30.8L354.5,395z M396.5,267.7
	c-3,0.9-6.3-0.6-7.4-3.6l-16.6-44.4c-0.1-0.5-0.3-0.9-0.5-1.3l-11.1-29.7l4.8-23.9c3.8,3.6,6.4,8.5,7.3,13.9c0,0.3,0.1,0.5,0.2,0.8
	l27.4,81.2C401.3,263.6,399.5,266.7,396.5,267.7z M241.8,257.7L217,184.3c0-0.1,0-0.2,0-0.3v-54.6c0-16.9-13.2-30.8-29.8-31.9
	c-5.3-6.1-13.2-10-22-10c-8.7,0-16.6,3.9-21.9,10c-16.6,0.7-29.4,14.5-29.4,32v58.8l-23.5,69.5c0,0.1-0.1,0.2-0.1,0.3
	c-2.1,8,2.4,16.2,10.3,18.7c1.5,0.5,3.1,0.7,4.6,0.7c6.3,0,12.1-3.8,14.5-10l8.8-23.5l7.5,151.7c0.2,9.2,7.6,16.6,16.9,17
	c4.8,0.2,9.4-1.6,12.8-4.9c0.2-0.2,0.4-0.4,0.6-0.6c0.2,0.2,0.3,0.3,0.5,0.5c3.4,3.3,7.9,5,12.7,4.9c9.1-0.3,16.5-7.7,16.7-16.8
	l7.5-151.8l8.8,23.6c2.3,6.1,8.2,10,14.5,10c1.5,0,3.1-0.2,4.6-0.7c7.9-2.5,12.4-10.7,10.3-18.7
	C241.9,257.9,241.9,257.8,241.8,257.7z M165.3,96.9c10.9,0,19.7,8.8,19.7,19.7c0,10.9-8.8,19.7-19.7,19.7
	c-10.9,0-19.7-8.8-19.7-19.7C145.6,105.8,154.4,96.9,165.3,96.9z M128,218.3c-0.2,0.4-0.4,0.9-0.5,1.3l-16.6,44.4
	c-1.1,3-4.4,4.5-7.4,3.6c-3-0.9-4.8-4.1-4-7.1l23.5-69.4c0.2-0.3,0.3-0.7,0.4-1l3.6-10.7c0.1-0.3,0.2-0.5,0.2-0.8
	c0.8-5.4,3.5-10.3,7.3-13.9l4.8,23.9L128,218.3z M186.8,395l-0.1,0c-0.1,4.2-3.2,8-7.5,8.1c-2.2,0.1-4.3-0.7-5.9-2.3
	c-1.3-1.2-2-2.9-2.2-4.6c0-0.4,0-0.8,0-1.3l0.3-125c0-2.6-2.1-4.7-4.7-4.7c-2.6,0-4.7,2.1-4.7,4.7l-0.4,125c0,0.2,0,0.4,0,0.6
	c-0.2,1.9-0.9,3.9-2.3,5.2c-1.6,1.5-3.7,2.3-5.9,2.3c-4.3-0.2-7.6-4-7.7-8.2l-8.7-173.4l11.5-30.8c0,0,0-0.1,0-0.1
	c0-0.1,0.1-0.2,0.1-0.3c0-0.1,0-0.1,0-0.2c0-0.1,0-0.2,0.1-0.3c0-0.1,0-0.1,0-0.2c0-0.1,0-0.2,0-0.2c0-0.1,0-0.2,0-0.2
	c0-0.1,0-0.1,0-0.2c0-0.1,0-0.2,0-0.3c0-0.1,0-0.1,0-0.2c0-0.1,0-0.2,0-0.3c0,0,0-0.1,0-0.1l-5.7-28.7c0.7-0.2,1.4-0.5,2.1-0.7
	l8.5-2.2c2.5-0.7,4-3.2,3.4-5.8c-0.7-2.5-3.2-4-5.8-3.4l-8.5,2.2c-0.5,0.1-1.1,0.3-1.6,0.5l-1.1-5.6c-0.5-2.6-3-4.2-5.6-3.7
	c-2.6,0.5-4.2,3-3.7,5.6l1.6,7.9c-3.5,2.4-6.5,5.3-8.9,8.8v-33.6c0-10.1,5.7-18.3,14.1-21.3c-0.8,2.7-1.3,5.5-1.3,8.5
	c0,16.1,13.1,29.1,29.1,29.1c16.1,0,29.1-13.1,29.1-29.1c0-2.8-0.4-5.6-1.2-8.2c8.4,3.3,14.4,11.5,14.4,21v31.8
	c-2.2-2.7-4.7-5.1-7.6-7l1.6-7.9c0.5-2.6-1.2-5-3.7-5.6c-2.6-0.5-5,1.2-5.6,3.7l-1.1,5.6c-0.5-0.2-1-0.3-1.6-0.5l-8.5-2.2
	c-2.5-0.7-5.1,0.9-5.8,3.4c-0.7,2.5,0.9,5.1,3.4,5.8l8.5,2.2c0.7,0.2,1.4,0.4,2.1,0.7l-5.7,28.7c0,0,0,0.1,0,0.1c0,0.1,0,0.2,0,0.3
	c0,0.1,0,0.1,0,0.2c0,0.1,0,0.2,0,0.3c0,0.1,0,0.1,0,0.2c0,0.1,0,0.2,0,0.2c0,0.1,0,0.2,0,0.2c0,0.1,0,0.1,0,0.2
	c0,0.1,0,0.2,0.1,0.3c0,0.1,0,0.1,0,0.2c0,0.1,0.1,0.2,0.1,0.3c0,0,0,0.1,0,0.1l11.5,30.8L186.8,395z M228.8,267.7
	c-3,0.9-6.3-0.6-7.4-3.6l-16.6-44.4c-0.1-0.5-0.3-0.9-0.5-1.3l-11.1-29.7l4.8-23.9c3.8,3.6,6.4,8.5,7.3,13.9c0,0.3,0.1,0.5,0.2,0.8
	l27.4,81.2C233.5,263.6,231.8,266.7,228.8,267.7z"/>
</svg>
