<?xml version="1.0" encoding="utf-8"?>
<!-- Generator: Adobe Illustrator 26.2.1, SVG Export Plug-In . SVG Version: 6.00 Build 0)  -->
<svg version="1.1" id="Capa_1" xmlns="http://www.w3.org/2000/svg" xmlns:xlink="http://www.w3.org/1999/xlink" x="0px" y="0px"
	 viewBox="0 0 500 500" style="enable-background:new 0 0 500 500;" xml:space="preserve">
<style type="text/css">
	.st0{fill:#EE3035;}
</style>
<path class="st0" d="M154.7,374.9c-18.4-14.4-36.9-28.7-55.4-43c-5-3.9-9.1-3.4-13,1.6c-3.6,4.6-7.2,9.3-10.8,14
	c-3.2,4.1-2.7,8.6,1.4,11.8c18.7,14.6,37.5,29.2,56.3,43.8c1.5,1.2,3.2,1.9,5.2,1.8c2.6,0,4.6-1.1,6.6-3.6
	c3.7-4.8,7.4-9.5,11.1-14.3C159.4,382.6,158.9,378.2,154.7,374.9z M219.9,312c-1.5,0.8-3,1.7-4.5,2.6c-4.4,2.6-8.9,5.2-13.3,7.7
	c-0.1-0.1-0.2-0.2-0.3-0.3c0.2-0.3,0.4-0.6,0.6-0.9c6.3-9.2,12.9-18.1,19.1-27.4c3.2-4.9,6.8-9.7,10.3-14.4c7.3-9.8,14.2-20,21.2-30
	c1-1.5,1.1-2.9,0.3-4.4c-1.4-2.5-3.5-4.2-6.3-4.9c-1.7-0.5-2.9-0.1-4,1.4c-9.5,12.7-19.1,25.3-28.7,37.9c-1.4,1.9-2.7,4.9-4.4,5.2
	c-2,0.4-3.8-2.6-5.9-3.8c-1.4-0.9-1.5-1.5-0.5-2.9c5.2-7,10.3-14,15.5-21c1.7-2.3,1.7-4.1-0.1-6.3c-1.2-1.5-2.7-2.6-4.5-3.3
	c-2.2-0.8-4-0.7-5.5,1.5c-5.8,8.1-11.8,16-17.7,24.1c-0.9,1.3-1.6,1.6-2.9,0.5c-1.4-1.2-3-2.4-4.6-3.3c-1.3-0.8-1.1-1.4-0.4-2.5
	c4.2-5.7,8.2-11.5,12.4-17.2c1.7-2.2,1.4-4-0.1-5.9c-1.1-1.5-2.5-2.6-4.2-3.3c-2.9-1.3-4.3-0.9-6.2,1.7c-5,6.8-10.1,13.6-15,20.5
	c-0.9,1.2-1.4,1.3-2.5,0.4c-1.6-1.3-3.2-2.5-4.9-3.6c-1-0.7-1-1.3-0.3-2.2c1.9-2.6,3.6-5.3,5.4-8c1.7-2.5,1.6-4-0.3-6.3
	c-1.1-1.4-2.5-2.4-4.1-3.1c-2.8-1.2-4.2-0.8-6.1,1.7c-5.9,7.7-11.8,15.5-17.7,23.2c-12.8,16.8-23.7,34.7-28.9,55.5
	c-1.5,6.2-0.9,8.4,4.2,12.4c11.6,9,23.2,18,34.8,27c0.7,0.6,1.5,1.1,2.5,1.3c4.7,1,9.3,1,13.7-1.6c6.1-3.6,12.2-7.2,18.3-10.7
	c14.2-8.3,28.4-16.7,42.6-25c3.6-2.1,4.7-6.2,2.7-9.7C227.7,311.2,223.5,310.1,219.9,312z M254.8,265.6c9.2,4.4,18.9,6.1,29.1,4.7
	c28.8-3.9,48.4-31.9,42.3-60.3c-5.6-25.8-30.3-43-56.4-39.2c-23.4,3.5-41.2,22.5-42.9,46.1c-0.6,8.7,0.9,17,4.8,25.1
	c2.1-2.7,3.9-5.2,6-7.6c1-1.2,1.2-2.2,0.8-3.7c-3-11.5-1.4-22.4,5.3-32.2c9.3-13.6,22.5-19.8,38.8-17.5c16.5,2.3,27.8,12,32.6,27.9
	c4.9,16,0.8,30.4-11.8,41.4c-12.5,11-27,12.9-42.4,6.6c-1.6-0.7-2.4-0.5-3.3,0.9c-1,1.7-2.2,3.4-3.5,5
	C252.9,264.4,253.3,264.9,254.8,265.6z M262.6,247.3c0,1.2,0.7,1.4,1.5,1.8c4.1,1.9,8.5,2.8,13.5,2.7c1.6-0.1,3.6-0.2,5.6-0.6
	c17.5-3.6,28.1-20.5,24.1-38.1c-3.8-16.8-21.4-27.2-38.4-22.7c-16.9,4.4-26.9,22.1-22,39c0.4,1.3,0.9,2.1,2.4,2.4
	C255.4,233.2,262.6,239.5,262.6,247.3z M277,198.7c12,0,21.9,9.9,21.9,21.8c0,12-9.9,21.9-21.9,21.8c-12.1-0.1-21.8-9.8-21.9-21.9
	C255.1,208.6,264.9,198.8,277,198.7z M418.5,140.9c0-13.3-10.1-22.1-22-22c-39.7,0.3-79.5,0.1-119.2,0.1v0
	c-39.8,0-79.7,0.2-119.5-0.1c-13-0.1-22.3,9.8-22.2,22.1c0.3,33.7,0.1,67.4,0.1,101.1c0,0.7,0,1.4,0.1,2.1c0.3,2.2,2,3.7,4.2,3.7
	c2.3,0.1,4.1-1.4,4.4-3.7c0.1-0.8,0.1-1.6,0.1-2.4c0-33.7,0-67.4,0-101.1c0-8.1,4.7-12.9,12.8-12.9c80,0,160.1,0,240.1,0
	c7.3,0,12.2,5.1,12.2,12.3c0,53.3-0.1,106.5,0.1,159.8c0,7.9-5.3,13.5-13.6,13.5c-49.8-0.2-99.6-0.1-149.4-0.1c-1.2,0-2.4-0.1-3.5,0
	c-2.1,0.2-3.7,1.9-3.9,4.1c-0.2,2,1.1,3.9,3.1,4.4c0.8,0.2,1.7,0.3,2.6,0.3c50.4,0,100.9,0,151.3,0c13.7,0,22.2-8.4,22.2-22.2
	C418.4,247,418.3,193.9,418.5,140.9z M276.9,233.7c7.3,0,13.2-5.7,13.2-13.1c0.1-7.2-5.8-13.2-13.1-13.3
	c-7.2-0.1-13.2,5.8-13.2,13.1C263.8,227.8,269.6,233.7,276.9,233.7z M400.9,300.2c0-53.1,0-106.2,0-159.3c0-3.7-0.7-4.3-4.4-4.3
	c-79.5,0-159,0-238.5,0c-4.2,0-4.8,0.6-4.8,4.7c0,29.8,0,59.5,0,89.3c0,1,0,1.9,0,3.3c4.2-3.1,8.5-3.3,12.9-1.8
	c4.3,1.5,7.6,4.4,10.3,8.5c1.1-1.5,2-2.9,3-4.2c2.2-2.9,5-4.4,8.6-4.6c5.3-0.3,9.8,1.8,13.2,5.7c2.1,2.4,3.4,3.4,6.7,1.6
	c4.6-2.4,9.3-0.6,14.1,2.4c-1.9-5.3-3.1-10.2-3.5-15.3c-3.5-38.7,30.4-70.1,68.6-63.6c27.8,4.7,48.8,29.1,49,57.2
	c0.2,27.7-18.2,51.5-45.2,58.2c-6.8,1.7-13.7,2.2-20.6,1.3c-7.3-0.9-14.4-3-20.9-6.7c-0.6-0.4-1.2-0.9-1.9,0.1
	c-2.1,3.1-4.4,6-6.4,9.2c-2.5,4.2-5.6,8.1-8.5,12.1c-2,2.8-3.9,5.6-6.2,8.6c2.8,0.4,4.8,2.2,7.6,2.2c54.2-0.1,108.4-0.1,162.6-0.1
	C400.2,304.6,400.9,303.9,400.9,300.2z"/>
<g>
	<path class="st0" d="M249.8,498.9c-21.5,0-43-2.8-63.9-8.4c-41.8-11.2-80.2-33.2-111-63.6c-2.9-2.9-3-7.6-0.1-10.5
		c2.9-2.9,7.6-3,10.5-0.1c29,28.6,65.1,49.3,104.4,59.8c40.5,10.8,83.4,10.5,123.9-1c60.1-17,110.1-56.5,140.6-111
		c30.5-54.6,37.9-117.7,20.9-177.9c-1.1-3.9,1.2-8.1,5.1-9.2c3.9-1.1,8.1,1.2,9.2,5.1c18.1,64,10.2,131.2-22.2,189.2
		s-85.5,100-149.5,118.1C295.6,495.8,272.7,498.9,249.8,498.9z"/>
	<path class="st0" d="M17.7,323.2c-3.2,0-6.2-2.1-7.1-5.4c-18.1-64-10.2-131.2,22.2-189.2c32.4-58,85.5-100,149.5-118.1
		c46.5-13.2,95.4-12.6,141.4,1.7c44.8,13.9,84.6,40,115.1,75.5c2.7,3.1,2.3,7.8-0.8,10.5c-3.1,2.7-7.8,2.3-10.5-0.8
		c-28.7-33.4-66.2-57.9-108.3-71c-43.2-13.4-89.2-14-133-1.6c-60.1,17-110.1,56.5-140.6,111C15.2,190.4,7.8,253.6,24.8,313.7
		c1.1,3.9-1.2,8.1-5.1,9.2C19,323.1,18.3,323.2,17.7,323.2z"/>
</g>
</svg>
