<?xml version="1.0" encoding="utf-8"?>
<!-- Generator: Adobe Illustrator 26.2.1, SVG Export Plug-In . SVG Version: 6.00 Build 0)  -->
<svg version="1.1" id="Capa_1" xmlns="http://www.w3.org/2000/svg" xmlns:xlink="http://www.w3.org/1999/xlink" x="0px" y="0px"
	 viewBox="0 0 500 500" style="enable-background:new 0 0 500 500;" xml:space="preserve">
<style type="text/css">
	.st0{fill:#EE3035;}
</style>
<path class="st0" d="M341.5,240.7c-5.6-6.8-15.7-7.5-22-1.5c-3.2,3-4.8,6.7-4.7,11.1c0.1,5.8,3,10,7.9,13c-5.1,4.2-6.4,7.7-5.9,14.4
	c1.2,15.8,2.8,31.5,5.4,47.1c1.1,6.6,2.2,13.1,4.6,19.4c0.6,1.5,1.1,3.7,3.1,3.6c1.8-0.1,2.3-2.1,2.9-3.6c1.8-4.4,2.7-9,3.6-13.6
	c3.2-17.7,5.1-35.5,6.4-53.4c0.4-5.7-1.1-10.3-6-13.9C346.5,257.4,346.6,246.8,341.5,240.7z M267.3,138.3c2.2,5.3,6.2,7.9,12,7.9
	c16.3,0,32.5,0,48.8,0c0,0,0,0,0,0c16.6,0,33.2,0.1,49.9,0c5.1,0,8.7-2.6,10.7-7.2c2-4.6,4-9.2,5.9-13.8c1.9-4.5,0.3-8.4-4.2-10.2
	c-2.6-1-5.3-2.1-7.9-3.2c-8-3.1-16-6.4-24-9.5c-4.9-1.9-9.9-2.9-15.2-2.9c-10.2,0-20.4,0-30.6,0c-4.7,0-9.4,0.8-13.8,2.5
	c-11.1,4.3-22.1,8.8-33.1,13.2c-4.4,1.8-5.9,5.6-4.1,10C263.5,129.4,265.4,133.9,267.3,138.3z M117.2,132.2
	c2.4,5.6,6.6,8.4,12.7,8.4c17.2,0,34.4,0,51.7,0c0,0,0,0,0,0c17.6,0,35.2,0.1,52.8,0c5.4,0,9.2-2.7,11.4-7.6
	c2.2-4.8,4.2-9.7,6.3-14.6c2-4.8,0.3-8.9-4.5-10.8c-2.8-1.1-5.6-2.3-8.4-3.4c-8.5-3.3-16.9-6.7-25.4-10.1c-5.2-2-10.5-3.1-16.1-3.1
	c-10.8,0-21.6,0-32.4,0c-5,0-9.9,0.9-14.6,2.7c-11.7,4.6-23.4,9.3-35.1,14c-4.6,1.9-6.3,6-4.3,10.6
	C113.2,122.8,115.2,127.5,117.2,132.2z M383.8,154.9c-0.4-1.3-1-1.6-2.3-1.6c-17.2,0-34.5,0-51.7,0c-17.2,0-34.5,0-51.7,0
	c-1.1,0-1.8,0.1-2.1,1.3c-2.7,8.3-3.6,16.8-2.4,25.5c4.2,29.7,29.5,50.7,59.4,49.2C370.1,227.5,395.6,190.2,383.8,154.9z
	 M195.9,240.7c-5.9-7.2-16.6-7.9-23.3-1.6c-3.3,3.2-5.1,7.2-5,11.8c0.2,6.1,3.2,10.6,8.3,13.7c-5.4,4.5-6.8,8.2-6.3,15.3
	c1.3,16.7,3,33.4,5.7,49.9c1.1,7,2.3,13.9,4.9,20.5c0.6,1.6,1.2,3.9,3.3,3.9c1.9-0.1,2.5-2.2,3.1-3.8c1.9-4.6,2.9-9.5,3.8-14.4
	c3.4-18.7,5.4-37.6,6.8-56.6c0.5-6-1.1-11-6.3-14.7C201.2,258.5,201.3,247.2,195.9,240.7z M283.6,284.7c-0.1-6.9,0.2-13.8,0.2-20.8
	c-0.1-18.7-14-32.6-32.7-32.7c-7.9,0-15.8,0-23.7,0c-1.7,0-3.5,0.2-5.2,0.1c-4-0.2-7.9-0.1-12.2-0.1c0.2,0.4,0.3,0.7,0.4,0.9
	c6.9,10.5,7.7,21.4,2.5,32.8c-0.3,0.7-0.4,1.3-0.2,2c1.4,4,1.7,8.2,1.4,12.5c-0.9,14.9-2.5,29.7-4.5,44.4
	c-0.8,5.8-1.2,11.8-2.8,17.6c-1.9,7-3.3,14.1-7.2,20.4c-5.5,8.8-15.8,12-24.8,7.4c-4.7-2.4-7.6-6.6-9.7-11.2
	c-3.4-7.4-4.9-15.2-6.2-23.2c-2.8-17.7-4.8-35.4-6.1-53.2c-0.4-4.9-0.4-9.8,1.3-14.6c0.4-1,0-1.7-0.4-2.6c-3.1-6.7-3.8-13.8-2.3-21
	c0.9-4.3,2.9-8.2,5.5-12.2c-9.7,0-19.1-0.1-28.4,0.1c-1.8,0-3.6-0.2-5.4,0c-2.4,0.2-4.7,0-7.1,0c-3.3,0.1-6.7-0.2-9.9,0.4
	c-3.6,0.6-7.1,1.9-10.4,3.7c-1.4,0.8-2.1,2.6-2.9,2.8c-1.6,0.4-2.8,1.1-3.9,2.2c-6.4,6.5-9.6,14.3-9.6,23.4c0,30.9,0,61.9,0,92.9
	c0,18.2,14.1,32.4,32.4,32.4c46.6,0,93.1,0,139.7,0c2.1,0,4.3-0.2,6.4-0.6c15.2-3.1,25.9-16.1,25.8-31.8
	C283.7,332.8,284,308.7,283.6,284.7z M424.3,282.2c-0.1-6.5,0.2-13.1,0.2-19.6c-0.1-17.7-13.2-30.8-30.9-30.8c-7.5,0-14.9,0-22.4,0
	c-1.6,0-3.3,0.2-4.9,0.1c-3.7-0.2-7.5-0.1-11.5-0.1c0.2,0.4,0.3,0.6,0.4,0.8c6.5,9.9,7.3,20.2,2.3,31c-0.3,0.7-0.4,1.2-0.1,1.9
	c1.3,3.8,1.6,7.8,1.4,11.8c-0.8,14-2.4,28-4.3,41.9c-0.7,5.5-1.1,11.1-2.6,16.6c-1.8,6.6-3.1,13.3-6.7,19.3
	c-5.1,8.4-14.9,11.3-23.4,7c-4.5-2.3-7.1-6.2-9.2-10.6c-3.2-6.9-4.6-14.4-5.8-21.9c-2.6-16.7-4.5-33.4-5.7-50.2
	c-0.3-4.7-0.4-9.3,1.2-13.8c0.3-0.9,0-1.6-0.4-2.4c-3-6.4-3.6-13-2.1-19.8c0.9-4.1,2.7-7.8,5.2-11.5c-9.2,0-18-0.1-26.8,0.1
	c-1.7,0-3.4-0.1-5.1,0c-1.7,0.2-3.5,0.1-5.2,0c11.5,5.2,19.1,16.6,19.1,30.6c0,7.1-0.3,14.3-0.2,21.4c0.4,24.8,0.1,49.6,0.2,74.3
	c0,8.7-3.1,16.6-8.5,22.5c38.5,0,77,0,115.5,0c2,0,4-0.2,6-0.6c14.4-2.9,24.4-15.2,24.4-30C424.4,327.5,424.7,304.9,424.3,282.2z
	 M240.7,149.8c-0.5-1.4-1.1-1.7-2.4-1.7c-18.3,0.1-36.5,0-54.8,0c-18.3,0-36.5,0-54.8,0c-1.1,0-1.9,0.1-2.3,1.4
	c-2.8,8.8-3.9,17.8-2.6,27c4.4,31.4,31.3,53.7,62.9,52.1C226.2,226.7,253.2,187.2,240.7,149.8z"/>
<g>
	<path class="st0" d="M249.8,498.9c-21.5,0-43-2.8-63.9-8.4c-41.8-11.2-80.2-33.2-111-63.6c-2.9-2.9-3-7.6-0.1-10.5
		c2.9-2.9,7.6-3,10.5-0.1c29,28.6,65.1,49.3,104.4,59.8c40.5,10.8,83.4,10.5,123.9-1c60.1-17,110.1-56.5,140.6-111
		c30.5-54.6,37.9-117.7,20.9-177.9c-1.1-3.9,1.2-8.1,5.1-9.2c3.9-1.1,8.1,1.2,9.2,5.1c18.1,64,10.2,131.2-22.2,189.2
		s-85.5,100-149.5,118.1C295.6,495.8,272.7,498.9,249.8,498.9z"/>
	<path class="st0" d="M17.7,323.2c-3.2,0-6.2-2.1-7.1-5.4c-18.1-64-10.2-131.2,22.2-189.2c32.4-58,85.5-100,149.5-118.1
		c46.5-13.2,95.4-12.6,141.4,1.7c44.8,13.9,84.6,40,115.1,75.5c2.7,3.1,2.3,7.8-0.8,10.5c-3.1,2.7-7.8,2.3-10.5-0.8
		c-28.7-33.4-66.2-57.9-108.3-71c-43.2-13.4-89.2-14-133-1.6c-60.1,17-110.1,56.5-140.6,111C15.2,190.4,7.8,253.6,24.8,313.7
		c1.1,3.9-1.2,8.1-5.1,9.2C19,323.1,18.3,323.2,17.7,323.2z"/>
</g>
</svg>
