<?xml version="1.0" encoding="utf-8"?>
<!-- Generator: Adobe Illustrator 26.2.1, SVG Export Plug-In . SVG Version: 6.00 Build 0)  -->
<svg version="1.1" id="Capa_1" xmlns="http://www.w3.org/2000/svg" xmlns:xlink="http://www.w3.org/1999/xlink" x="0px" y="0px"
	 viewBox="0 0 500 500" style="enable-background:new 0 0 500 500;" xml:space="preserve">
<style type="text/css">
	.st0{fill:#EE3035;}
</style>
<g>
	<path class="st0" d="M374.9,361.2c-2-10.3-10.6-18.3-24.2-18.5c-11.8-0.2-24.2,1.4-35.3,5.1c-24.9,8.4-49.6,12.7-76,9
		c-15.9-2.2-32.3-2-48.4-2c-13,0-19,8.2-17.8,21.1c1,11,5.3,18.9,17.2,21.7c0,3.4,0,5.9,0,8.3c0,16.2,1.8,18,17.8,18
		c42.3,0,84.5,0,126.8,0c16,0,18.1-1.9,17.8-17.9c-0.1-5.7,0.8-9.2,6.9-11.9C370.3,389.5,377.3,372.9,374.9,361.2z M187.4,375.5
		c0.1-5.5,3.4-9.2,9.2-9.4c6.2-0.2,9.4,3.4,10.3,9.3c-0.5,6.1-3.9,9.9-9.8,9.9C191.1,385.4,187.3,381.5,187.4,375.5z M329.4,420.4
		c-40.4,0-80.8,0-121.1,0c-13.4,0-14.2-0.7-14.1-13.8c0-2.7,0-5.4,0-8.7c51.6,0,102.6,0,153.9,0c0.4,0.7,0.6,0.9,0.6,1.1
		C350.6,420,350.2,420.4,329.4,420.4z"/>
	<path class="st0" d="M177.4,352.6c11.5-2.1,23.1-4.9,33.7-9.4c8.8-3.7,13-12.8,10.3-22.1c-4.9-17-11.2-33.6-17-50.6
		c-6.2,1.6-10.1,2.9-14.1,3.6c-4,0.7-8.2,1.4-12.2,1.2c-8-0.4-15.7-6.7-16.7-13.6c-1.1-7.7,3.1-13.3,9.2-17.1
		c2.8-1.8,6.5-2.2,10.5-3.4c-4.9-5.6-9.5-11-14.1-16.4c-6.2-7.3-7.9-15.2-4.5-24.5c2.6-7.2,4.3-14.8,5.5-22.3
		c3.6-21.6-4.3-30-25.8-28c-1.6,0.2-3.3,0.3-4.9,0.5c-11.8,1.8-15.2,6.7-12.4,18.2c5.3,21.6,10.6,43.2,15.9,64.8
		c9,36.2,18,72.5,27,108.7C169.2,347.7,171,353.8,177.4,352.6z"/>
	<path class="st0" d="M165.5,260.8c0.8,5.9,8.1,11.2,15.7,10.5c5.4-0.5,10.8-1.9,16-3.4c35.4-10.4,70.8-20.2,105.3-14.2
		c10.9,0.7,15.9-3.2,16.2-9.9c0.2-6.8-5.3-11.8-13.3-10.9c-42.2,4.6-84.5,9.3-126.7,14.1C170.5,247.9,164.6,254.4,165.5,260.8z"/>
	<path class="st0" d="M143,143.7c5.4-0.4,11.1-2.8,15.7-5.9c11.3-7.5,10.5-20.2,12-31.6c0-11.4-5.4-19.6-14.7-25.1
		c-8.4-5-18.4-0.8-19.8,8.2c-2.1,13.5-3.9,27.1-5.5,40.7C129.9,138.4,134.7,144.4,143,143.7z"/>
</g>
<g>
	<path class="st0" d="M249.8,498.9c-21.5,0-43-2.8-63.9-8.4c-41.8-11.2-80.2-33.2-111-63.6c-2.9-2.9-3-7.6-0.1-10.5
		c2.9-2.9,7.6-3,10.5-0.1c29,28.6,65.1,49.3,104.4,59.8c40.5,10.8,83.4,10.5,123.9-1c60.1-17,110.1-56.5,140.6-111
		c30.5-54.6,37.9-117.7,20.9-177.9c-1.1-3.9,1.2-8.1,5.1-9.2c3.9-1.1,8.1,1.2,9.2,5.1c18.1,64,10.2,131.2-22.2,189.2
		s-85.5,100-149.5,118.1C295.6,495.8,272.7,498.9,249.8,498.9z"/>
	<path class="st0" d="M17.7,323.2c-3.2,0-6.2-2.1-7.1-5.4c-18.1-64-10.2-131.2,22.2-189.2c32.4-58,85.5-100,149.5-118.1
		c46.5-13.2,95.4-12.6,141.4,1.7c44.8,13.9,84.6,40,115.1,75.5c2.7,3.1,2.3,7.8-0.8,10.5c-3.1,2.7-7.8,2.3-10.5-0.8
		c-28.7-33.4-66.2-57.9-108.3-71c-43.2-13.4-89.2-14-133-1.6c-60.1,17-110.1,56.5-140.6,111C15.2,190.4,7.8,253.6,24.8,313.7
		c1.1,3.9-1.2,8.1-5.1,9.2C19,323.1,18.3,323.2,17.7,323.2z"/>
</g>
</svg>
