<?xml version="1.0" encoding="utf-8"?>
<!-- Generator: Adobe Illustrator 26.0.2, SVG Export Plug-In . SVG Version: 6.00 Build 0)  -->
<svg version="1.1" id="Capa_1" xmlns="http://www.w3.org/2000/svg" xmlns:xlink="http://www.w3.org/1999/xlink" x="0px" y="0px"
	 viewBox="0 0 400 400" style="enable-background:new 0 0 400 400;" xml:space="preserve">
<style type="text/css">
	.st0{fill:#16397F;}
</style>
<path class="st0" d="M327.5,109.8H209.1l64.6-80.1c2.6-3.2,2.1-8-1.1-10.6c-3.2-2.6-8-2.1-10.6,1.1L200,97.1l-61.9-76.8
	c-2.6-3.2-7.4-3.7-10.6-1.1c-3.2,2.6-3.7,7.4-1.1,10.6l64.6,80.1H72.5c-28.5,0-51.6,23.1-51.6,51.7V331c0,28.5,23.1,51.6,51.6,51.6
	h255c28.5,0,51.6-23.1,51.6-51.6V161.4C379.1,132.9,356,109.8,327.5,109.8z M276.6,313.1c0,18.8-15.3,34.1-34.1,34.1H95.6
	c-18.8,0-34.1-15.3-34.1-34.1V179.4c0-18.8,15.3-34.1,34.1-34.1h146.8c18.8,0,34.1,15.3,34.1,34.1V313.1z M328.9,234.5
	c-8.7,0-15.7-7-15.7-15.7s7-15.7,15.7-15.7c8.7,0,15.7,7,15.7,15.7S337.6,234.5,328.9,234.5z M328.9,189.9c-8.7,0-15.7-7-15.7-15.7
	s7-15.7,15.7-15.7c8.7,0,15.7,7,15.7,15.7S337.6,189.9,328.9,189.9z"/>
</svg>
