<?xml version="1.0" encoding="utf-8"?>
<!-- Generator: Adobe Illustrator 26.2.1, SVG Export Plug-In . SVG Version: 6.00 Build 0)  -->
<svg version="1.1" id="Capa_1" xmlns="http://www.w3.org/2000/svg" xmlns:xlink="http://www.w3.org/1999/xlink" x="0px" y="0px"
	 viewBox="0 0 500 500" style="enable-background:new 0 0 500 500;" xml:space="preserve">
<style type="text/css">
	.st0{fill:#E73035;}
	.st1{fill:#EE3035;}
</style>
<g>
	<path class="st0" d="M426.5,174.3c-49.3-47.6-108.4-71.5-183.4-72.6c-8.2,0.9-23,1.7-37.5,4.2c-51.9,8.9-96.5,32.5-133.8,69.6
		c-2.4,2.4-4,6.3-4.6,9.7c-1,5.9,2.9,11.6,8.3,14c6,2.6,11.6,1.2,17.2-4.1c65.2-60.9,140.9-78.4,226.2-53.3
		c33.6,9.9,62.4,28.6,87.4,53.1c4,3.9,8.4,6.4,14.1,5.2c5.6-1.2,9.6-4.5,11.1-10.1C433.2,183.7,431.1,178.7,426.5,174.3z"/>
	<path class="st0" d="M382.1,218.4c-37-35.4-81.1-53.2-122-53.8c-40.5-0.1-69.1,6.6-96.1,20.2c-18,9.1-34.2,20.8-48.4,35.1
		c-4.2,4.2-5.5,9.3-3.5,15c2,5.7,6.3,8.8,12.1,9.5c5.8,0.7,9.8-2.7,13.8-6.3c49.6-44.9,106.2-56.2,169.2-34.3
		c21,7.3,39.1,19.7,55,35.3c3.8,3.8,8.1,6.2,13.7,5.2c5.6-1.1,9.6-4.3,11.3-9.8C389.2,228,386.8,222.9,382.1,218.4z"/>
	<path class="st0" d="M249.8,310.6c-24.1,0-43.6,19.3-43.7,43.4c-0.1,24.2,19.3,43.7,43.3,43.8c24,0,43.6-19.2,43.7-42.9
		C293.2,330.2,274,310.6,249.8,310.6z"/>
	<path class="st0" d="M249.6,235.6c-31.6,0.6-59.2,11.4-82.3,33.4c-6.8,6.5-7.5,15.5-1.7,21.5c6,6.2,14.4,5.9,21.5-0.7
		c36.4-34,88.5-33.9,125.1,0.2c6.8,6.3,15.4,6.6,21.2,0.7c5.9-6.1,5.4-14.9-1.4-21.5C309,247.1,281.5,236.2,249.6,235.6z"/>
</g>
<g>
	<path class="st1" d="M249.8,498.9c-21.5,0-43-2.8-63.9-8.4c-41.8-11.2-80.2-33.2-111-63.6c-2.9-2.9-3-7.6-0.1-10.5
		c2.9-2.9,7.6-3,10.5-0.1c29,28.6,65.1,49.3,104.4,59.8c40.5,10.8,83.4,10.5,123.9-1c60.1-17,110.1-56.5,140.6-111
		c30.5-54.6,37.9-117.7,20.9-177.9c-1.1-3.9,1.2-8.1,5.1-9.2c3.9-1.1,8.1,1.2,9.2,5.1c18.1,64,10.2,131.2-22.2,189.2
		s-85.5,100-149.5,118.1C295.6,495.8,272.7,498.9,249.8,498.9z"/>
	<path class="st1" d="M17.7,323.2c-3.2,0-6.2-2.1-7.1-5.4c-18.1-64-10.2-131.2,22.2-189.2c32.4-58,85.5-100,149.5-118.1
		c46.5-13.2,95.4-12.6,141.4,1.7c44.8,13.9,84.6,40,115.1,75.5c2.7,3.1,2.3,7.8-0.8,10.5c-3.1,2.7-7.8,2.3-10.5-0.8
		c-28.7-33.4-66.2-57.9-108.3-71c-43.2-13.4-89.2-14-133-1.6c-60.1,17-110.1,56.5-140.6,111C15.2,190.4,7.8,253.6,24.8,313.7
		c1.1,3.9-1.2,8.1-5.1,9.2C19,323.1,18.3,323.2,17.7,323.2z"/>
</g>
</svg>
