<?xml version="1.0" encoding="utf-8"?>
<!-- Generator: Adobe Illustrator 26.2.1, SVG Export Plug-In . SVG Version: 6.00 Build 0)  -->
<svg version="1.1" id="Capa_1" xmlns="http://www.w3.org/2000/svg" xmlns:xlink="http://www.w3.org/1999/xlink" x="0px" y="0px"
	 viewBox="0 0 500 500" style="enable-background:new 0 0 500 500;" xml:space="preserve">
<style type="text/css">
	.st0{fill:#EE3035;}
</style>
<path class="st0" d="M62.7,228.3h18.9c3.9,0,7.1-3.2,7.1-7.1c0-3.9-3.2-7.1-7.1-7.1H62.7c-3.9,0-7.1,3.2-7.1,7.1
	c0,1.9,0.7,3.7,2.1,5C59,227.6,60.8,228.3,62.7,228.3z M145.3,317.2c0,3.6,2.9,6.5,6.5,6.5h106.4c3.6,0,6.6-2.9,6.6-6.5
	s-2.9-6.5-6.6-6.5H151.8C148.2,310.6,145.3,313.6,145.3,317.2z M95.7,290.2c0,3.9,3.2,7.1,7.1,7.1h74.5c3.9,0,7.1-3.2,7.1-7.1
	c0-3.9-3.2-7.1-7.1-7.1h-74.5c0,0,0,0,0,0c-1.9,0-3.6,0.7-5,2.1C96.4,286.5,95.7,288.3,95.7,290.2z M100.6,249.9
	c1.3,1.3,3.1,2.1,5,2.1h57.3c3.9,0,7.1-3.2,7.1-7.1c0-3.9-3.2-7.1-7.1-7.1h-57.3c-3.9,0-7.1,3.2-7.1,7.1
	C98.5,246.8,99.3,248.6,100.6,249.9z M89,259.4H63.1c-3.9,0-7.1,3.2-7.1,7.1c0,3.9,3.2,7.1,7.1,7.1H89c3.9,0,7.1-3.2,7.1-7.1
	C96,262.6,92.9,259.4,89,259.4z M119.7,259.4c-3.9,0-7.1,3.2-7.1,7.1c0,3.9,3.2,7.1,7.1,7.1H177c3.9,0,7.1-3.2,7.1-7.1
	c0-3.9-3.2-7.1-7.1-7.1H119.7z M181.3,214.1h-74.5c-3.9,0-7.1,3.2-7.1,7.1s3.2,7.1,7.1,7.1h74.5c3.9,0,7.1-3.2,7.1-7.1
	S185.2,214.1,181.3,214.1z M101.1,323.7c3.6,0,6.6-2.9,6.6-6.5c0-3.6-2.9-6.5-6.6-6.5H80c-3.6,0-6.6,2.9-6.6,6.5
	c0,3.6,2.9,6.5,6.6,6.5H101.1z M436.3,176.2c0-34.5-28.3-63.7-61.8-63.7s-61.8,29.2-61.8,63.7c0,42.2,49.4,90.5,61.8,90.5
	C386.9,266.7,436.3,218.4,436.3,176.2z M326.2,176.2c0-27.2,22.1-50.2,48.3-50.2s48.3,23,48.3,50.2c0,19.7-12.2,39-22.4,51.7
	c-10.7,13.4-22,22.8-25.8,25C365.8,248.2,326.2,210.8,326.2,176.2z M408.2,176.2c0-4.1-0.7-8.1-2.2-11.9c-1.3-3.5-5.2-5.2-8.7-3.9
	c-1.7,0.6-3,1.9-3.8,3.5c-0.7,1.6-0.8,3.5-0.2,5.2c0.9,2.3,1.3,4.7,1.3,7.1c0,11.1-9,20.1-20.1,20.1s-20.1-9-20.1-20.1
	c0-11.1,9-20.1,20.1-20.1c3.8,0,7.4,1,10.6,3c1.5,1,3.3,1.3,5.1,0.8c1.8-0.4,3.2-1.5,4.2-3c2-3.2,1-7.3-2.2-9.3
	c-5.3-3.3-11.4-5-17.7-5c-18.6,0-33.6,15.1-33.6,33.6s15.1,33.6,33.6,33.6C393.1,209.8,408.2,194.7,408.2,176.2z M450.2,250.5
	c-2.5-4.7-7.2-7.4-12.5-7.4h-23.2c-3.7,0-6.8,3-6.8,6.8s3,6.8,6.8,6.8h23.2c0.3,0,0.5,0.1,0.6,0.4c0.1,0.2,0.1,0.5,0,0.7
	l-72.8,112.8c-1,1.5-1.3,3.3-0.9,5.1c0.4,1.8,1.4,3.3,2.9,4.2c1.1,0.7,2.4,1.1,3.7,1.1c2.3,0,4.4-1.2,5.7-3.1l72.8-112.8
	C452.6,260.6,452.8,255.2,450.2,250.5z M84,244.9c0-3.9-3.2-7.1-7.1-7.1H49.1c-3.9,0-7.1,3.2-7.1,7.1c0,3.9,3.2,7.1,7.1,7.1h27.8
	C80.8,252,84,248.8,84,244.9z M78.6,290.2c0-3.9-3.2-7.1-7.1-7.1H58.6c-3.9,0-7.1,3.2-7.1,7.1c0,3.9,3.2,7.1,7.1,7.1h12.9
	C75.4,297.3,78.6,294.1,78.6,290.2z M302.2,197.6c-5.4-7.4-14.2-11.9-23.4-11.9H93.9c-3.6,0-6.5,2.9-6.5,6.5c0,3.6,2.9,6.5,6.5,6.5
	h184.9c5,0,9.8,2.4,12.8,6.5l7.5,10.3h-38.3c-4.6,0-8.8,2.3-11.3,6.2c-2.5,3.8-2.9,8.6-1,12.8l16.4,37c2.2,4.9,7,8,12.3,8h58.7v47.9
	c0,8.7-7.1,15.9-15.9,15.9h-1.7c-3.1-13.9-15.5-23.9-29.8-23.9c-14.3,0-26.7,10-29.8,23.9H153.2c-3.1-13.9-15.5-23.9-29.8-23.9
	c-14.3,0-26.7,10-29.8,23.9h-9.8c-3.6,0-6.5,2.9-6.5,6.5s2.9,6.5,6.5,6.5h9.8c3.1,13.9,15.5,24,29.8,24c14.3,0,26.7-10.1,29.8-24
	h105.6c3.1,13.9,15.5,24,29.8,24c14.3,0,26.7-10.1,29.8-24h1.7c16,0,29-13,29-29v-56.4c0-6.1-2-12.2-5.6-17.1L302.2,197.6z
	 M277.2,266.5c-0.2,0-0.3-0.1-0.4-0.2l-16.4-37c0-0.1-0.1-0.2,0-0.3c0.1-0.2,0.2-0.2,0.3-0.2h47.9l24.1,33.1c1,1.4,1.8,3,2.3,4.7
	H277.2z M123.4,367.4c-9.6,0-17.4-7.8-17.4-17.4c0-9.6,7.8-17.4,17.4-17.4s17.4,7.8,17.4,17.4C140.8,359.5,133,367.4,123.4,367.4z
	 M288.5,367.4c-9.6,0-17.4-7.8-17.4-17.4c0-9.6,7.8-17.4,17.4-17.4c9.6,0,17.4,7.8,17.4,17.4C305.9,359.5,298.1,367.4,288.5,367.4z
	 M322.3,323.7c3.6,0,6.6-2.9,6.6-6.5c0-3.6-2.9-6.5-6.6-6.5h-11.5c-3.6,0-6.6,2.9-6.6,6.5c0,3.6,2.9,6.5,6.6,6.5H322.3z"/>
<g>
	<path class="st0" d="M249.8,498.9c-21.5,0-43-2.8-63.9-8.4c-41.8-11.2-80.2-33.2-111-63.6c-2.9-2.9-3-7.6-0.1-10.5
		c2.9-2.9,7.6-3,10.5-0.1c29,28.6,65.1,49.3,104.4,59.8c40.5,10.8,83.4,10.5,123.9-1c60.1-17,110.1-56.5,140.6-111
		c30.5-54.6,37.9-117.7,20.9-177.9c-1.1-3.9,1.2-8.1,5.1-9.2c3.9-1.1,8.1,1.2,9.2,5.1c18.1,64,10.2,131.2-22.2,189.2
		s-85.5,100-149.5,118.1C295.6,495.8,272.7,498.9,249.8,498.9z"/>
	<path class="st0" d="M17.7,323.2c-3.2,0-6.2-2.1-7.1-5.4c-18.1-64-10.2-131.2,22.2-189.2c32.4-58,85.5-100,149.5-118.1
		c46.5-13.2,95.4-12.6,141.4,1.7c44.8,13.9,84.6,40,115.1,75.5c2.7,3.1,2.3,7.8-0.8,10.5c-3.1,2.7-7.8,2.3-10.5-0.8
		c-28.7-33.4-66.2-57.9-108.3-71c-43.2-13.4-89.2-14-133-1.6c-60.1,17-110.1,56.5-140.6,111C15.2,190.4,7.8,253.6,24.8,313.7
		c1.1,3.9-1.2,8.1-5.1,9.2C19,323.1,18.3,323.2,17.7,323.2z"/>
</g>
</svg>
