<?xml version="1.0" encoding="UTF-8"?>
<svg id="Layer_2" data-name="Layer 2" xmlns="http://www.w3.org/2000/svg" viewBox="0 0 45 45">
  <defs>
    <style>
      .cls-1 {
        fill: #fff;
      }

      .cls-2 {
        fill: #005ea7;
      }
    </style>
  </defs>
  <g id="Design">
    <g>
      <rect class="cls-2" x="6.2" y="6.2" width="32.6" height="32.6" rx="1.33" ry="1.33" transform="translate(22.5 -9.32) rotate(45)"/>
      <path class="cls-1" d="m22.12,23.01c0-.62-.09-1.23-.25-1.82-.04-.13-.12-.24-.24-.31-.12-.07-.26-.08-.39-.04-.13.04-.24.12-.31.24s-.08.26-.04.39c.14.5.21,1.01.21,1.53,0,4.11-4.65,8.67-5.57,8.67s-5.57-4.56-5.57-8.67c0-3.07,2.5-5.57,5.57-5.57,1.45,0,2.82.55,3.87,1.56.1.1.23.15.37.14.14,0,.27-.06.36-.16.2-.2.19-.53-.01-.73-1.24-1.19-2.86-1.85-4.58-1.85-3.64,0-6.6,2.96-6.6,6.6,0,4.66,4.95,9.7,6.6,9.7s6.6-5.04,6.6-9.7Zm.91-4.68c1.17,0,4.14-3.26,4.14-5.98,0-.29-.04-.59-.11-.91-.01-.06-.03-.12-.05-.17l-.03-.09c-.07-.23-.14-.42-.23-.61-.01-.04-.02-.07-.04-.11l-.06-.08h-.01c-.38-.71-.96-1.28-1.63-1.63l-.09-.07s-.07-.03-.13-.05c-.17-.08-.36-.15-.59-.22l-.08-.03c-.06-.02-.12-.04-.18-.05-.65-.15-1.18-.15-1.82,0-.06.01-.12.03-.18.05l-.08.03c-.23.07-.42.14-.62.23-.04.01-.07.02-.1.04l-.08.06v.02c-.71.39-1.28.96-1.63,1.63l-.07.09s-.03.07-.05.13c-.08.17-.15.36-.22.59l-.03.08c-.02.06-.04.12-.05.18-.07.32-.11.62-.11.91,0,2.72,2.97,5.98,4.14,5.98Zm-3.03-6.66h0s.02-.08.04-.12l.03-.09c.04-.14.09-.28.16-.42.31-.65.83-1.17,1.48-1.48.14-.07.28-.11.42-.16l.09-.03s.08-.03.12-.04c.24-.05.47-.08.68-.08s.44.03.68.08c.04.01.09.02.13.04l.09.03c.14.04.29.09.42.16.65.31,1.18.83,1.48,1.48.06.14.11.28.16.42l.03.09s.03.08.04.13c.05.24.08.46.08.68,0,2.4-2.67,4.9-3.1,4.95-.44-.05-3.11-2.55-3.11-4.95,0-.21.03-.44.08-.68Zm-7.79,11.23c0,1.82,1.48,3.3,3.3,3.3s3.3-1.48,3.3-3.3-1.48-3.3-3.3-3.3-3.3,1.48-3.3,3.3Zm5.58,0c0,1.25-1.02,2.27-2.27,2.27s-2.27-1.02-2.27-2.27,1.02-2.27,2.27-2.27,2.27,1.02,2.27,2.27Zm17.54,5.22l-9.98-4.38,5.46-1.85.08-.03v-.02c.4-.2.65-.57.69-1.01.05-.58-.27-1.08-.81-1.29l-4.95-1.87c-.27-.1-.56.03-.66.3-.1.27.03.56.3.66l1.96.75h0s3,1.13,3,1.13c.14.05.15.17.15.24,0,.05-.03.17-.2.21l-5.6,1.9c-.36.13-.6.45-.62.84-.01.38.2.73.55.88l10.24,4.5c.14.06.15.18.14.25,0,.06-.05.18-.2.2l-16.12,2.25c-.14.02-.26.09-.34.2-.08.11-.12.25-.1.38.04.25.25.44.51.44l16.19-2.25c.57-.08.99-.5,1.07-1.08.08-.57-.21-1.1-.74-1.33Z"/>
    </g>
  </g>
</svg>