<?xml version="1.0" encoding="utf-8"?>
<!-- Generator: Adobe Illustrator 26.2.1, SVG Export Plug-In . SVG Version: 6.00 Build 0)  -->
<svg version="1.1" id="Capa_1" xmlns="http://www.w3.org/2000/svg" xmlns:xlink="http://www.w3.org/1999/xlink" x="0px" y="0px"
	 viewBox="0 0 500 500" style="enable-background:new 0 0 500 500;" xml:space="preserve">
<style type="text/css">
	.st0{fill:#EE3035;}
</style>
<path class="st0" d="M91.7,230.4h36.3c3.7,0,6.7-3,6.7-6.7c0-3.7-3-6.7-6.7-6.7H91.7c-3.7,0-6.7,3-6.7,6.7
	C85,227.4,88,230.4,91.7,230.4z M325.6,183.2c3.8,0,6.8-3.1,6.8-6.8s-3.1-6.8-6.8-6.8h-28c-3.8,0-6.8,3.1-6.8,6.8s3.1,6.8,6.8,6.8
	H325.6z M344.3,208.1c-5.3-7.2-13.7-11.5-22.6-11.5H91.1c-15.4,0-28,12.6-28,28v107.1c0,15.4,12.6,28,28,28h10.4
	c3.1,13.2,15,22.7,28.7,22.7c13.6,0,25.6-9.5,28.7-22.7h143.4c3.1,13.2,15,22.7,28.7,22.7c13.6,0,25.6-9.5,28.7-22.7h1.2
	c15.5,0,28-12.6,28-28v-53.5c0-5.9-1.9-11.8-5.4-16.5L344.3,208.1z M349.8,238.5l22.8,31.2c0.8,1.1,1.5,2.3,1.9,3.6h-54.2
	l-15.4-34.8H349.8z M130.1,369c-8.8,0-16-7.2-16-16c0-8.8,7.2-16,16-16c8.8,0,16,7.2,16,16C146.1,361.8,139,369,130.1,369z
	 M330.9,369c-8.8,0-16-7.2-16-16c0-8.8,7.2-16,16-16c8.8,0,16,7.2,16,16C346.9,361.8,339.7,369,330.9,369z M375.3,331.7
	c0,8-6.5,14.5-14.6,14.5h-1.2c-3.1-13.2-15-22.7-28.7-22.7c-13.6,0-25.6,9.5-28.7,22.7H158.8c-3.1-13.2-15-22.7-28.7-22.7
	s-25.6,9.5-28.7,22.7H91.1c-8,0-14.5-6.5-14.5-14.5V224.6c0-8,6.5-14.6,14.5-14.6h230.6c4.6,0,9,2.2,11.8,6l6.6,9h-35.3
	c-4.5,0-8.7,2.3-11.2,6.1c-2.5,3.8-2.8,8.5-1,12.6l15.6,35.1c2.1,4.8,6.9,7.9,12.2,7.9h55.2L375.3,331.7z M441.6,167.2l-41.3-49.8
	c-2.9-3.5-7.6-4.8-12-3.3c-4.3,1.6-7.1,5.5-7.1,10.1v18.3h-142c-3.8,0-6.8,3.1-6.8,6.8s3.1,6.8,6.8,6.8h148.8c3.8,0,6.8-3.1,6.8-6.8
	v-17.3l36.3,43.7c0.3,0.3,0.3,0.8,0,1.1l-36.3,43.7v-17.3c0-3.8-3.1-6.8-6.8-6.8c-3.8,0-6.8,3.1-6.8,6.8v25.1
	c0,4.6,2.8,8.6,7.1,10.1c1.2,0.4,2.4,0.6,3.7,0.6c3.2,0,6.2-1.4,8.3-3.9l41.3-49.8C446,180.3,446,172.5,441.6,167.2z M293.3,133.8
	h25.8c3.8,0,6.8-3.1,6.8-6.8s-3.1-6.8-6.8-6.8h-25.8c-3.8,0-6.8,3.1-6.8,6.8S289.5,133.8,293.3,133.8z M91.7,266.9h36.3
	c3.7,0,6.7-3,6.7-6.7c0-3.7-3-6.7-6.7-6.7H91.7c-3.7,0-6.7,3-6.7,6.7C85,263.8,88,266.9,91.7,266.9z M108.9,315.2H88.9
	c-3.7,0-6.7,3-6.7,6.7c0,3.7,3,6.7,6.7,6.7h20.1c3.7,0,6.7-3,6.7-6.7C115.7,318.2,112.7,315.2,108.9,315.2z M91.7,250.6h36.3
	c3.7,0,6.7-3,6.7-6.7c0-3.7-3-6.7-6.7-6.7H91.7c-3.7,0-6.7,3-6.7,6.7C85,247.5,88,250.6,91.7,250.6z M289.9,269.7H91.7
	c-3.7,0-6.7,3-6.7,6.7c0,3.7,3,6.7,6.7,6.7h198.2c3.7,0,6.7-3,6.7-6.7C296.7,272.7,293.6,269.7,289.9,269.7z M352.1,328.7H363
	c3.7,0,6.7-3,6.7-6.7c0-3.7-3-6.7-6.7-6.7h-10.9c-3.7,0-6.7,3-6.7,6.7C345.4,325.6,348.4,328.7,352.1,328.7z"/>
<g>
	<path class="st0" d="M249.8,498.9c-21.5,0-43-2.8-63.9-8.4c-41.8-11.2-80.2-33.2-111-63.6c-2.9-2.9-3-7.6-0.1-10.5
		c2.9-2.9,7.6-3,10.5-0.1c29,28.6,65.1,49.3,104.4,59.8c40.5,10.8,83.4,10.5,123.9-1c60.1-17,110.1-56.5,140.6-111
		c30.5-54.6,37.9-117.7,20.9-177.9c-1.1-3.9,1.2-8.1,5.1-9.2c3.9-1.1,8.1,1.2,9.2,5.1c18.1,64,10.2,131.2-22.2,189.2
		s-85.5,100-149.5,118.1C295.6,495.8,272.7,498.9,249.8,498.9z"/>
	<path class="st0" d="M17.7,323.2c-3.2,0-6.2-2.1-7.1-5.4c-18.1-64-10.2-131.2,22.2-189.2c32.4-58,85.5-100,149.5-118.1
		c46.5-13.2,95.4-12.6,141.4,1.7c44.8,13.9,84.6,40,115.1,75.5c2.7,3.1,2.3,7.8-0.8,10.5c-3.1,2.7-7.8,2.3-10.5-0.8
		c-28.7-33.4-66.2-57.9-108.3-71c-43.2-13.4-89.2-14-133-1.6c-60.1,17-110.1,56.5-140.6,111C15.2,190.4,7.8,253.6,24.8,313.7
		c1.1,3.9-1.2,8.1-5.1,9.2C19,323.1,18.3,323.2,17.7,323.2z"/>
</g>
</svg>
