<?xml version="1.0" encoding="utf-8"?>
<!-- Generator: Adobe Illustrator 26.2.1, SVG Export Plug-In . SVG Version: 6.00 Build 0)  -->
<svg version="1.1" id="Capa_1" xmlns="http://www.w3.org/2000/svg" xmlns:xlink="http://www.w3.org/1999/xlink" x="0px" y="0px"
	 viewBox="0 0 500 500" style="enable-background:new 0 0 500 500;" xml:space="preserve">
<style type="text/css">
	.st0{fill:#EE3035;}
</style>
<path class="st0" d="M248.4,190.6c30.6,0,55.4-24.4,55.4-54.3c0-29.9-24.9-54.3-55.4-54.3c-30.5,0-55.4,24.4-55.4,54.3
	C193,166.2,217.8,190.6,248.4,190.6z M336.8,208.9c8.8,0,17-3.5,23.2-9.8c6.1-6.2,9.3-14.4,9.2-22.9v-0.1
	c0-18.1-14.5-32.8-32.4-32.8c-8.6,0-16.6,3.4-22.8,9.6c-6.2,6.2-9.6,14.4-9.6,23.1C304.4,194.2,319,208.9,336.8,208.9z M159.9,206.3
	c8.6,0,16.6-3.4,22.8-9.6c6.2-6.2,9.6-14.4,9.6-23.1c0-18.1-14.5-32.8-32.4-32.8c-8.6,0-16.6,3.4-22.8,9.6
	c-6.2,6.2-9.6,14.5-9.6,23.1C127.5,191.6,142,206.3,159.9,206.3z M387.3,232.2c-13.8-6.3-32.4-9.8-52.3-9.8c-9.1,0-22,1.3-32.2,3.3
	l-0.5,0.1l-0.5-0.1c-17.6-5-37.6-7.6-57.9-7.6c-15.5,0-30.8,1.6-45.5,4.6c-8.7-0.9-25.9-1.7-36.3-1.7c-20.8,0-39.8,3.6-53.7,10.3
	c-13.4,6.4-20.8,15-20.8,24.3v61l70.3,41.1l77.5,47.5c2.1,1.2,5,1.9,7.7,1.9c2.6,0,5.2-0.7,7.8-1.9l0.1,0l87.7-50.1l70.2-37.1v-60.9
	C409,247.4,401.3,238.6,387.3,232.2z M157.4,238.1c-12,8-18.1,16.9-18.1,26.5v66.7l-38.3-22.4v-53c0-1.5,1.1-6.9,14.7-13
	c7.6-3.4,20.7-7.5,40.6-8.3l7.1-0.3L157.4,238.1z M395.8,310l-47.5,25.1v-70.5c0-9.1-5.6-17.7-16.7-25.4l-5.2-3.6h8.1
	c22,0,36.6,4.2,45,7.6c15,6.2,16.2,12.1,16.2,13.7V310z"/>
<g>
	<path class="st0" d="M249.8,498.9c-21.5,0-43-2.8-63.9-8.4c-41.8-11.2-80.2-33.2-111-63.6c-2.9-2.9-3-7.6-0.1-10.5
		c2.9-2.9,7.6-3,10.5-0.1c29,28.6,65.1,49.3,104.4,59.8c40.5,10.8,83.4,10.5,123.9-1c60.1-17,110.1-56.5,140.6-111
		c30.5-54.6,37.9-117.7,20.9-177.9c-1.1-3.9,1.2-8.1,5.1-9.2c3.9-1.1,8.1,1.2,9.2,5.1c18.1,64,10.2,131.2-22.2,189.2
		s-85.5,100-149.5,118.1C295.6,495.8,272.7,498.9,249.8,498.9z"/>
	<path class="st0" d="M17.7,323.2c-3.2,0-6.2-2.1-7.1-5.4c-18.1-64-10.2-131.2,22.2-189.2c32.4-58,85.5-100,149.5-118.1
		c46.5-13.2,95.4-12.6,141.4,1.7c44.8,13.9,84.6,40,115.1,75.5c2.7,3.1,2.3,7.8-0.8,10.5c-3.1,2.7-7.8,2.3-10.5-0.8
		c-28.7-33.4-66.2-57.9-108.3-71c-43.2-13.4-89.2-14-133-1.6c-60.1,17-110.1,56.5-140.6,111C15.2,190.4,7.8,253.6,24.8,313.7
		c1.1,3.9-1.2,8.1-5.1,9.2C19,323.1,18.3,323.2,17.7,323.2z"/>
</g>
</svg>
