<?xml version="1.0" encoding="utf-8"?>
<!-- Generator: Adobe Illustrator 26.2.1, SVG Export Plug-In . SVG Version: 6.00 Build 0)  -->
<svg version="1.1" id="Capa_1" xmlns="http://www.w3.org/2000/svg" xmlns:xlink="http://www.w3.org/1999/xlink" x="0px" y="0px"
	 viewBox="0 0 500 500" style="enable-background:new 0 0 500 500;" xml:space="preserve">
<style type="text/css">
	.st0{fill:#EE3035;}
</style>
<path class="st0" d="M433,285.8l-60.9-69.6c-4.4-5-11.2-6.7-17.4-4.4c-6.2,2.3-10.2,8.1-10.2,14.7v14.8H144.3
	c-4.4,0-8.1,3.6-8.1,8.1l0,21.9l-60.3-68.8c-4.4-5-4.4-12.6,0-17.6l60.3-68.8V138c0,4.4,3.6,8.1,8.1,8.1h208.3
	c4.4,0,8.1-3.6,8.1-8.1s-3.6-8.1-8.1-8.1H152.3v-14.8c0-6.6-4-12.4-10.2-14.7c-6.2-2.3-13-0.6-17.4,4.4l-60.9,69.6
	c-9.7,11.1-9.7,27.8,0,38.8l60.9,69.6c4.4,5,11.2,6.7,17.4,4.4c6.2-2.3,10.2-8.1,10.2-14.7v-14.8h200.2c4.4,0,8.1-3.6,8.1-8.1v-21.9
	l60.3,68.8c4.4,5,4.4,12.6,0,17.6l-60.3,68.8V361c0-4.4-3.6-8.1-8.1-8.1H144.3c-4.4,0-8.1,3.6-8.1,8.1c0,4.4,3.6,8.1,8.1,8.1h200.2
	v14.8c0,6.6,4,12.4,10.2,14.7c1.8,0.7,3.7,1,5.6,1c4.4,0,8.7-1.9,11.8-5.4l60.9-69.6c4.7-5.4,7.3-12.3,7.3-19.4
	C440.3,298.1,437.7,291.2,433,285.8z"/>
<g>
	<path class="st0" d="M249.8,498.9c-21.5,0-43-2.8-63.9-8.4c-41.8-11.2-80.2-33.2-111-63.6c-2.9-2.9-3-7.6-0.1-10.5
		c2.9-2.9,7.6-3,10.5-0.1c29,28.6,65.1,49.3,104.4,59.8c40.5,10.8,83.4,10.5,123.9-1c60.1-17,110.1-56.5,140.6-111
		c30.5-54.6,37.9-117.7,20.9-177.9c-1.1-3.9,1.2-8.1,5.1-9.2c3.9-1.1,8.1,1.2,9.2,5.1c18.1,64,10.2,131.2-22.2,189.2
		s-85.5,100-149.5,118.1C295.6,495.8,272.7,498.9,249.8,498.9z"/>
	<path class="st0" d="M17.7,323.2c-3.2,0-6.2-2.1-7.1-5.4c-18.1-64-10.2-131.2,22.2-189.2c32.4-58,85.5-100,149.5-118.1
		c46.5-13.2,95.4-12.6,141.4,1.7c44.8,13.9,84.6,40,115.1,75.5c2.7,3.1,2.3,7.8-0.8,10.5c-3.1,2.7-7.8,2.3-10.5-0.8
		c-28.7-33.4-66.2-57.9-108.3-71c-43.2-13.4-89.2-14-133-1.6c-60.1,17-110.1,56.5-140.6,111C15.2,190.4,7.8,253.6,24.8,313.7
		c1.1,3.9-1.2,8.1-5.1,9.2C19,323.1,18.3,323.2,17.7,323.2z"/>
</g>
</svg>
