<?xml version="1.0" encoding="UTF-8"?>
<svg id="Layer_2" data-name="Layer 2" xmlns="http://www.w3.org/2000/svg" viewBox="0 0 156.25 21.39">
  <defs>
    <style>
      .cls-1 {
        fill: #cb2b2f;
      }
    </style>
  </defs>
  <g id="Design">
    <g>
      <g>
        <path d="m14.36,2.42l-.47,2.66c-.03.14-.12.25-.25.35-.13.09-.26.14-.4.14h-4.19l-2.64,15.06c-.03.14-.11.26-.23.36-.12.1-.25.15-.39.15h-3.39c-.28,0-.41-.14-.41-.41v-.11l2.64-15.06H.41c-.28,0-.41-.13-.41-.39v-.11l.47-2.66c.03-.14.11-.26.22-.35.11-.1.24-.14.38-.14h12.83c.14,0,.25.04.34.12.09.08.13.18.13.3v.08Z"/>
        <path d="m24.79,11.53c0,.23-.01.45-.04.69-.02.23-.06.47-.09.71l-.26,1.5c-.09.41-.3.62-.65.62h-8.31c-.03.19-.06.38-.08.56-.02.18-.03.35-.03.51,0,.67.18,1.14.53,1.41.35.27.94.4,1.77.4.42,0,.86,0,1.34-.03.47-.02.94-.04,1.4-.05.46-.02.89-.04,1.3-.08.4-.04.74-.06,1-.08h.08c.28,0,.41.11.41.34v.08l-.36,1.97c-.04.21-.09.36-.17.47-.08.1-.24.18-.48.23-.86.21-1.7.36-2.52.47-.82.11-1.79.16-2.91.16-.69,0-1.36-.11-2.02-.31-.66-.21-1.24-.52-1.75-.94-.51-.42-.91-.96-1.22-1.62-.3-.66-.45-1.43-.45-2.33,0-.22.01-.46.04-.7.03-.24.06-.49.09-.75l.31-1.81c.4-2.26,1.25-3.96,2.56-5.1,1.31-1.14,3.04-1.71,5.18-1.71.88,0,1.65.14,2.32.41.66.28,1.22.66,1.67,1.15.45.49.78,1.07,1.01,1.72.23.65.34,1.36.34,2.12m-3.91-.21c0-.6-.16-1.06-.46-1.37-.31-.31-.83-.47-1.55-.47-.88,0-1.55.27-2.01.82-.46.54-.78,1.26-.97,2.16h4.86c.04-.21.06-.41.09-.6.03-.19.04-.37.04-.54"/>
        <path d="m37.03,6.92s0,.06-.01.09c0,.03-.01.06-.01.09l-.42,2.3c-.04.14-.1.25-.21.32-.1.08-.23.12-.36.12h-.05c-.47-.05-.92-.09-1.36-.13-.44-.03-1.03-.05-1.77-.05-.31,0-.6.04-.88.13-.28.08-.53.24-.75.46-.22.23-.42.53-.6.92-.17.39-.31.88-.41,1.49l-.39,2.17c-.04.24-.07.47-.09.67-.02.21-.04.4-.04.57,0,.71.15,1.18.45,1.41.3.23.73.35,1.28.35.36,0,.69,0,.97-.01.28,0,.55-.02.8-.04.25-.02.49-.04.71-.07.22-.03.46-.05.7-.06h.05c.28,0,.41.12.41.36v.08l-.41,2.3c-.04.19-.1.32-.19.4-.1.08-.25.14-.46.2-.38.08-.85.17-1.42.26-.57.08-1.24.13-2.02.13s-1.45-.11-2.07-.34c-.62-.22-1.16-.55-1.6-.97-.45-.42-.8-.95-1.05-1.58-.25-.63-.38-1.34-.38-2.13,0-.48.05-.99.15-1.53l.39-2.17c.21-1.21.52-2.23.94-3.07.42-.83.94-1.51,1.55-2.03.61-.52,1.31-.89,2.1-1.11.78-.23,1.64-.34,2.58-.34.78,0,1.45.04,2.02.13.57.09,1.03.17,1.37.26.31.07.47.21.47.42"/>
        <path d="m51.14,10.41c0,.48-.05,1.01-.16,1.58l-1.5,8.62c-.04.14-.12.26-.24.38-.13.11-.27.17-.4.17h-3.13c-.14,0-.24-.04-.31-.13-.07-.09-.1-.19-.1-.31v-.1l1.5-8.62c.08-.48.13-.86.13-1.14,0-.48-.14-.82-.4-1-.27-.18-.6-.27-.99-.27-.5,0-1.02.1-1.55.28-.54.19-.95.37-1.24.54l-1.79,10.2c-.03.14-.11.26-.23.38-.12.11-.25.17-.39.17h-3.13c-.14,0-.25-.04-.32-.13-.08-.09-.12-.2-.12-.34v-.08l2.43-13.77c.04-.14.11-.26.22-.36.11-.1.24-.15.38-.15h2.82c.29,0,.44.15.44.44v.08l-.1.62c.58-.45,1.23-.78,1.94-1.01.71-.23,1.41-.34,2.1-.34.55,0,1.08.08,1.59.25.51.17.95.42,1.33.76.38.35.68.79.91,1.33.22.54.34,1.2.34,1.95"/>
        <path d="m66.15,11.35c0,.24-.02.51-.05.81-.04.3-.07.53-.1.69l-.34,1.81c-.41,2.19-1.22,3.86-2.42,5.01-1.2,1.15-2.95,1.72-5.24,1.72-.88,0-1.66-.13-2.33-.4-.67-.27-1.24-.63-1.71-1.1-.46-.47-.81-1.02-1.05-1.67-.23-.65-.35-1.35-.35-2.11,0-.24,0-.48.03-.73.02-.24.05-.48.1-.72l.34-1.81c.45-2.35,1.3-4.05,2.56-5.12,1.26-1.07,2.96-1.61,5.1-1.61,1.76,0,3.11.48,4.05,1.42.94.95,1.41,2.22,1.41,3.81m-4.22.31c0-1.31-.63-1.97-1.88-1.97-.76,0-1.37.24-1.84.72-.47.48-.81,1.29-1.02,2.43l-.33,1.81c-.04.24-.07.46-.09.66-.03.2-.04.39-.04.58,0,.67.15,1.16.46,1.48.31.31.79.46,1.44.46.84,0,1.48-.27,1.91-.8.43-.53.74-1.33.93-2.38l.33-1.81c.09-.48.13-.88.13-1.19"/>
        <path d="m83.72,6.12c0,.53-.06,1.07-.18,1.59-.12.53-.3,1.02-.54,1.49-.24.47-.55.88-.93,1.26-.38.37-.83.68-1.35.92.57.35,1,.8,1.28,1.37.29.57.43,1.16.43,1.76,0,1.35-.27,2.46-.82,3.35-.54.89-1.25,1.6-2.13,2.12-.88.53-1.87.89-2.98,1.1-1.1.21-2.22.31-3.34.31-.43,0-.87,0-1.32-.03-.45-.02-.89-.04-1.32-.06-.43-.03-.83-.06-1.19-.09-.36-.03-.66-.08-.91-.13-.42-.09-.72-.2-.91-.35-.19-.15-.29-.4-.29-.76,0-.09,0-.18.02-.27,0-.1.02-.2.04-.3l2.77-15.73c.1-.59.28-.99.53-1.22.25-.22.63-.38,1.15-.47.22-.03.52-.07.89-.1.37-.03.77-.06,1.2-.09.43-.03.88-.05,1.33-.06.46-.02.89-.03,1.31-.03,1.07,0,2.05.08,2.94.25.89.16,1.65.42,2.29.78.64.35,1.14.81,1.49,1.37.35.56.53,1.24.53,2.03m-5.62,8.57c0-.5-.18-.92-.53-1.27-.35-.35-.98-.52-1.88-.52h-2.9l-.86,4.84h.45c.2,0,.4,0,.62.01.21.01.42.02.62.02h.43c.53,0,1.05-.04,1.54-.12.49-.08.92-.23,1.29-.45.37-.22.66-.54.88-.94.21-.4.32-.93.32-1.57m1.27-7.84c0-.57-.25-.97-.75-1.19-.5-.22-1.34-.34-2.51-.34h-1c-.2,0-.39,0-.57.01-.18,0-.31.01-.4.01l-.8,4.48h2.9c.98,0,1.75-.24,2.3-.73.55-.48.83-1.23.83-2.25"/>
        <path d="m98.75,6.87l-2.43,13.77c-.04.14-.11.26-.22.36-.11.1-.24.15-.38.15h-2.9c-.29,0-.44-.14-.44-.41v-.1l.13-.62c-.6.4-1.22.73-1.84.98-.62.26-1.38.39-2.28.39-1.29,0-2.29-.38-2.99-1.14-.7-.76-1.05-1.82-1.05-3.18,0-.48.05-1.01.15-1.58l1.5-8.62c.04-.14.12-.26.25-.38.13-.11.26-.17.4-.17h3.13c.14,0,.24.04.31.13.07.09.1.19.1.31v.1l-1.5,8.62c-.09.48-.13.88-.13,1.19,0,.45.12.77.35.96.23.19.65.29,1.26.29.14,0,.31-.02.52-.07.21-.04.43-.1.67-.18.24-.08.48-.17.73-.27.24-.1.46-.22.67-.34l1.79-10.2c.03-.14.11-.26.23-.38.12-.11.25-.17.39-.17h3.13c.14,0,.25.04.32.13.08.09.12.2.12.34v.08Z"/>
        <path d="m111.2,7.32l-.36,2.11c-.05.33-.23.49-.52.49h-.08c-.17-.04-.43-.07-.78-.1-.35-.03-.72-.07-1.13-.11-.41-.03-.81-.06-1.23-.09-.42-.03-.79-.04-1.11-.04h-.1c-.17,0-.34,0-.5.01-.16,0-.31.04-.45.11-.14.06-.25.15-.34.27-.09.12-.13.29-.13.52,0,.27.21.54.62.8l2.87,1.83c.81.52,1.35,1.05,1.63,1.61.28.56.41,1.09.41,1.59,0,.93-.18,1.72-.53,2.36-.35.65-.83,1.17-1.41,1.58-.59.4-1.27.69-2.04.86-.78.17-1.58.26-2.41.26-.72,0-1.51-.05-2.37-.14-.86-.1-1.6-.24-2.24-.43-.26-.09-.39-.24-.39-.47v-.13l.39-2.1c.05-.33.25-.49.59-.49h.08c.34.05.71.1,1.1.14.39.04.78.08,1.16.12.39.03.76.06,1.13.07.36.02.68.03.96.03.45,0,.85-.06,1.19-.18.34-.12.52-.45.52-.98,0-.17-.06-.34-.17-.51-.11-.16-.31-.34-.61-.53l-3.03-1.94c-.59-.38-1.01-.84-1.28-1.4-.27-.55-.4-1.11-.4-1.68,0-.91.17-1.67.5-2.26.34-.6.79-1.07,1.36-1.42.57-.36,1.22-.61,1.94-.75.72-.15,1.47-.22,2.25-.22.91,0,1.74.06,2.46.17.73.11,1.41.26,2.04.43.26.07.39.23.39.47v.13Z"/>
        <path d="m113.21,4.33c-1.15,0-2.17-.8-2.17-2.17s1.03-2.16,2.17-2.16,2.17.8,2.17,2.16-1.02,2.17-2.17,2.17m0-3.83c-.86,0-1.55.66-1.55,1.66s.69,1.67,1.55,1.66h0c.84,0,1.55-.66,1.55-1.66s-.71-1.66-1.55-1.66m-.36,2.82h-.5V1h.87c.6,0,.96.17.96.7,0,.43-.25.58-.56.6l.6,1.02h-.59l-.54-.98h-.24v.98Zm.44-1.37c.22,0,.35-.05.35-.3,0-.24-.26-.26-.45-.26h-.35v.56h.44Z"/>
      </g>
      <g>
        <path class="cls-1" d="m142.78,6.87l-2.43,13.77c-.04.14-.11.26-.22.36-.11.1-.24.15-.38.15h-2.9c-.29,0-.44-.14-.44-.41v-.1l.13-.62c-.6.4-1.22.73-1.84.98-.62.26-1.38.39-2.28.39-1.29,0-2.29-.38-2.99-1.14-.7-.76-1.05-1.82-1.05-3.18,0-.48.05-1.01.15-1.58l1.5-8.62c.04-.14.12-.26.25-.38.13-.11.26-.17.4-.17h3.13c.14,0,.24.04.31.13.07.09.1.19.1.31v.1l-1.5,8.62c-.09.48-.13.88-.13,1.19,0,.45.12.77.35.96.23.19.65.29,1.26.29.14,0,.31-.02.52-.07.21-.04.43-.1.67-.18.24-.08.48-.17.73-.27.24-.1.46-.22.67-.34l1.79-10.2c.03-.14.11-.26.23-.38.12-.11.25-.17.39-.17h3.13c.14,0,.25.04.32.13.08.09.12.2.12.34v.08Z"/>
        <path class="cls-1" d="m128.48,2.61c-.81-.22-1.67-.4-2.62-.55-.93-.14-1.99-.22-3.15-.22-.98,0-1.95.1-2.87.28-.91.18-1.74.5-2.45.95-.7.44-1.27,1.03-1.69,1.77-.42.74-.63,1.69-.63,2.83,0,.7.17,1.41.5,2.09.33.68.86,1.26,1.59,1.73l3.92,2.51c.41.27.68.51.84.74.17.25.25.5.25.76,0,.77-.27,1.26-.79,1.45-.47.16-1.01.25-1.6.25-.37,0-.79-.01-1.25-.04-.45-.02-.93-.05-1.46-.1-.5-.05-1.01-.1-1.51-.15-.48-.05-.96-.12-1.43-.19h-.08c-.36,0-.53.14-.58.48l-.5,2.72v.13c0,.14.05.31.38.42.8.24,1.76.42,2.86.54,1.09.12,2.11.18,3.04.18,1.05,0,2.08-.11,3.07-.33.97-.21,1.84-.58,2.58-1.09.73-.51,1.32-1.17,1.77-1.97.44-.8.66-1.8.66-2.96,0-.61-.17-1.28-.51-1.97-.34-.68-1.03-1.36-2.04-2.01l-3.71-2.37c-.59-.36-.89-.77-.89-1.19,0-.34.07-.59.2-.78.13-.18.3-.32.51-.41.19-.09.41-.14.65-.15.22-.01.44-.02.66-.02h.14c.44,0,.93.02,1.45.05.54.03,1.07.07,1.59.12.52.05,1.01.09,1.46.14.44.04.77.09,1,.13h.08c.2,0,.42-.06.49-.48l.46-2.71v-.15c0-.23-.11-.36-.36-.42Z"/>
        <path class="cls-1" d="m152.31,6.1c-1.38.1-2.68.93-3.29,1.62l.12-.87v-.08c0-.29-.15-.44-.44-.44h-2.82c-.14,0-.26.05-.38.15-.11.1-.18.23-.22.36l-2.43,13.77v.08c0,.14.04.25.12.34.08.09.19.13.32.13h3.13c.14,0,.27-.06.39-.17.12-.11.2-.24.23-.38l1.6-9.49c.83-.67,2.25-1.46,3.42-1.46.74,0,1.34.02,1.77.05.44.04.89.08,1.36.13h.05c.14,0,.26-.04.36-.12.1-.08.17-.18.21-.32l.42-2.3s0-.07.01-.09c0-.02.01-.05.01-.09,0-.21-.15-.34-.47-.42-.35-.09-.8-.17-1.37-.26-.5-.07-1.27-.21-2.1-.15Z"/>
      </g>
    </g>
  </g>
</svg>