<?xml version="1.0" encoding="UTF-8"?>
<svg id="Layer_2" data-name="Layer 2" xmlns="http://www.w3.org/2000/svg" viewBox="0 0 159.1 32.01">
  <defs>
    <style>
      .cls-1 {
        fill: #80bc00;
      }
    </style>
  </defs>
  <g id="Design">
    <g>
      <path class="cls-1" d="m14.8,7.5l-.48,2.75c-.04.14-.12.26-.25.36-.13.1-.27.15-.41.15h-4.32l-2.72,15.52c-.04.14-.12.27-.24.37-.12.11-.26.16-.4.16h-3.49c-.28,0-.43-.14-.43-.43v-.11l2.72-15.52H.43c-.28,0-.43-.13-.43-.4v-.11l.48-2.75c.04-.14.11-.26.23-.36.12-.1.24-.15.39-.15h13.23c.14,0,.26.04.35.12.09.08.13.18.13.31v.08Z"/>
      <path class="cls-1" d="m25.01,16.89c0,.23-.01.47-.04.71-.03.24-.06.48-.09.73l-.27,1.55c-.09.43-.31.64-.67.64h-8.56c-.04.2-.06.39-.08.57-.02.19-.03.36-.03.52,0,.69.18,1.18.55,1.45.36.28.97.41,1.83.41.43,0,.88,0,1.37-.03.49-.02.97-.04,1.44-.05.47-.02.92-.04,1.33-.08.42-.04.76-.06,1.03-.08h.08c.28,0,.43.12.43.35v.08l-.37,2.03c-.04.21-.09.37-.17.48-.08.11-.24.19-.49.24-.89.21-1.76.37-2.6.48-.84.11-1.84.16-3,.16-.71,0-1.4-.11-2.08-.32-.68-.21-1.28-.54-1.8-.97-.52-.44-.94-.99-1.25-1.67-.31-.68-.47-1.48-.47-2.4,0-.23.01-.47.04-.72.03-.25.06-.51.09-.77l.32-1.87c.41-2.33,1.29-4.08,2.64-5.25,1.35-1.17,3.13-1.76,5.33-1.76.91,0,1.7.14,2.39.43.68.28,1.26.68,1.72,1.19.46.51.81,1.1,1.04,1.77.23.68.35,1.4.35,2.19m-4.03-.21c0-.62-.16-1.09-.48-1.41-.32-.32-.85-.48-1.6-.48-.91,0-1.6.28-2.07.84-.47.56-.8,1.3-1,2.23h5.01c.04-.21.07-.42.09-.61.03-.2.04-.38.04-.56"/>
      <path class="cls-1" d="m37.62,12.14s0,.07-.01.09c0,.03-.01.06-.01.09l-.43,2.37c-.04.14-.11.25-.21.33-.11.08-.23.12-.37.12h-.05c-.48-.05-.95-.1-1.4-.13-.45-.04-1.06-.05-1.83-.05-.32,0-.62.04-.91.13-.28.09-.54.25-.77.48-.23.23-.44.55-.61.95-.18.4-.32.91-.43,1.53l-.4,2.24c-.04.25-.07.48-.09.69-.03.21-.04.41-.04.59,0,.73.16,1.21.47,1.45.31.24.75.36,1.32.36.37,0,.71,0,1-.01.29,0,.57-.02.83-.04.26-.02.5-.04.73-.07.23-.03.47-.05.72-.07h.05c.28,0,.43.12.43.37v.08l-.43,2.37c-.04.2-.1.33-.2.41-.1.08-.25.15-.47.2-.39.09-.88.18-1.47.27-.59.09-1.28.13-2.08.13s-1.49-.12-2.13-.35c-.64-.23-1.19-.56-1.65-1-.46-.44-.82-.98-1.08-1.63-.26-.65-.39-1.38-.39-2.2,0-.5.05-1.02.16-1.57l.4-2.24c.21-1.24.54-2.3.97-3.16.44-.86.97-1.56,1.6-2.09.63-.53,1.35-.92,2.16-1.15.81-.23,1.69-.35,2.65-.35.8,0,1.49.04,2.08.13.59.09,1.06.18,1.41.27.32.07.48.21.48.43"/>
      <path class="cls-1" d="m51.62,15.74c0,.5-.05,1.04-.16,1.63l-1.55,8.88c-.04.14-.12.27-.25.39-.13.12-.27.17-.41.17h-3.23c-.14,0-.25-.04-.32-.13-.07-.09-.11-.2-.11-.32v-.11l1.55-8.88c.09-.5.13-.89.13-1.17,0-.5-.14-.84-.41-1.03-.28-.19-.62-.28-1.03-.28-.52,0-1.05.1-1.6.29-.55.2-.98.38-1.28.56l-1.84,10.51c-.04.14-.12.27-.24.39-.12.12-.26.17-.4.17h-3.23c-.14,0-.25-.04-.33-.13-.08-.09-.12-.2-.12-.35v-.08l2.51-14.19c.04-.14.11-.27.23-.37.12-.11.24-.16.39-.16h2.91c.3,0,.45.15.45.45v.08l-.11.64c.6-.46,1.27-.81,2-1.04.73-.23,1.45-.35,2.16-.35.57,0,1.12.08,1.64.25.52.17.98.43,1.37.79.39.36.7.81.93,1.37.23.56.35,1.23.35,2.01"/>
      <path class="cls-1" d="m66.02,16.7c0,.25-.02.53-.05.84-.04.31-.07.55-.11.71l-.35,1.87c-.43,2.26-1.26,3.98-2.49,5.16-1.24,1.18-3.04,1.77-5.4,1.77-.91,0-1.71-.14-2.4-.41-.69-.28-1.28-.65-1.76-1.13-.48-.48-.84-1.05-1.08-1.72-.24-.67-.36-1.39-.36-2.17,0-.25,0-.5.03-.75.02-.25.05-.5.11-.75l.35-1.87c.46-2.42,1.34-4.18,2.64-5.28,1.3-1.1,3.05-1.65,5.25-1.65,1.81,0,3.2.49,4.17,1.47.97.98,1.45,2.28,1.45,3.92m-4.35.32c0-1.35-.65-2.03-1.94-2.03-.78,0-1.41.25-1.9.75-.49.5-.84,1.33-1.05,2.51l-.35,1.87c-.04.25-.07.48-.09.68-.03.2-.04.4-.04.6,0,.69.16,1.2.48,1.52.32.32.81.48,1.49.48.87,0,1.52-.28,1.96-.83.44-.55.76-1.37.95-2.45l.35-1.87c.09-.5.13-.91.13-1.23"/>
      <path class="cls-1" d="m81.35,7.48s0,.06-.01.08c0,.02-.01.04-.01.08l-.45,2.48c-.04.14-.11.27-.23.37-.12.11-.24.16-.39.16h-5.41c-.55,0-.99.1-1.32.31-.33.21-.56.7-.71,1.49l-.43,2.47h6.91c.28,0,.43.15.43.45v.08l-.43,2.51c-.04.14-.12.27-.24.37-.12.11-.26.16-.4.16h-6.91l-.51,2.83c-.05.27-.08.5-.08.69,0,.43.12.72.35.88.23.16.6.24,1.12.24h5.41c.3,0,.45.15.45.45v.08l-.45,2.48c-.05.32-.26.51-.61.56-.23.04-.5.07-.8.11-.3.04-.66.07-1.07.11-.41.04-.88.07-1.41.09s-1.16.04-1.89.04-1.38-.07-2.06-.21c-.68-.14-1.29-.38-1.84-.72-.55-.34-.98-.79-1.31-1.36-.33-.57-.5-1.28-.5-2.13,0-.37.04-.81.13-1.31l1.58-8.85c.23-1.3.59-2.32,1.06-3.08.47-.76,1.04-1.33,1.69-1.72.65-.39,1.39-.64,2.2-.75.82-.11,1.68-.16,2.59-.16.73,0,1.36.01,1.88.04.52.03.99.06,1.39.09.4.04.74.07,1.03.11.28.04.54.07.77.11.32.05.48.18.48.37"/>
      <path class="cls-1" d="m92.18,12.55l-.37,2.18c-.05.34-.23.51-.53.51h-.08c-.18-.04-.44-.07-.8-.11-.36-.04-.74-.07-1.16-.11-.42-.04-.84-.07-1.27-.09-.43-.03-.81-.04-1.15-.04h-.11c-.18,0-.35,0-.52.01-.17,0-.32.04-.47.11-.14.06-.26.16-.35.28-.09.12-.13.3-.13.53,0,.28.21.56.64.82l2.96,1.89c.84.53,1.4,1.09,1.68,1.66.28.58.43,1.12.43,1.64,0,.96-.18,1.77-.55,2.43-.36.66-.85,1.21-1.45,1.62-.6.42-1.31.71-2.11.89-.8.18-1.63.27-2.48.27-.75,0-1.56-.05-2.44-.15-.88-.1-1.65-.24-2.31-.44-.27-.09-.4-.25-.4-.48v-.13l.4-2.16c.05-.34.26-.51.61-.51h.08c.36.05.73.1,1.13.15.4.04.8.08,1.2.12.4.04.79.06,1.16.08.37.02.7.03.99.03.46,0,.87-.06,1.23-.19.36-.12.53-.46.53-1.01,0-.18-.06-.35-.17-.52-.12-.17-.32-.35-.63-.55l-3.12-2c-.6-.39-1.04-.87-1.32-1.44-.28-.57-.41-1.15-.41-1.73,0-.94.17-1.72.52-2.33.35-.61.81-1.1,1.4-1.47.59-.36,1.25-.62,2-.77.75-.15,1.52-.23,2.32-.23.94,0,1.79.06,2.53.17.75.12,1.45.26,2.11.44.27.07.4.23.4.48v.13Z"/>
      <path class="cls-1" d="m106.12,16.7c0,.23-.01.47-.04.71-.03.24-.06.48-.09.73l-.35,2.08c-.21,1.24-.54,2.3-.99,3.16-.44.86-.99,1.56-1.64,2.11-.65.54-1.4.94-2.25,1.19-.85.25-1.79.37-2.8.37-.37,0-.76-.02-1.16-.05-.4-.04-.8-.08-1.21-.13l-.83,4.61c-.04.14-.11.27-.23.37-.12.11-.24.16-.39.16h-3.23c-.14,0-.26-.04-.35-.12-.09-.08-.13-.19-.13-.33v-.08l3.31-18.69c.04-.21.11-.37.23-.48.12-.11.36-.2.73-.29.8-.2,1.71-.36,2.72-.49,1.01-.13,2.04-.2,3.07-.2,1.8,0,3.18.49,4.16,1.48.98.99,1.47,2.29,1.47,3.91m-4.35.05c0-.62-.14-1.09-.41-1.4-.28-.31-.78-.47-1.51-.47-.44,0-.86.01-1.24.04-.38.03-.71.06-.97.09l-1.47,8.32c.75.11,1.41.16,2,.16.43,0,.8-.05,1.13-.15.33-.1.62-.27.88-.51.26-.24.48-.57.67-1s.33-.97.44-1.63l.35-2.08c.04-.27.07-.52.09-.75.03-.23.04-.44.04-.64"/>
      <path class="cls-1" d="m120.63,16.89c0,.23-.01.47-.04.71-.03.24-.06.48-.09.73l-.27,1.55c-.09.43-.31.64-.67.64h-8.56c-.04.2-.06.39-.08.57-.02.19-.03.36-.03.52,0,.69.18,1.18.55,1.45.36.28.97.41,1.83.41.43,0,.88,0,1.37-.03.49-.02.97-.04,1.44-.05.47-.02.92-.04,1.33-.08.42-.04.76-.06,1.03-.08h.08c.28,0,.43.12.43.35v.08l-.37,2.03c-.04.21-.09.37-.17.48-.08.11-.24.19-.49.24-.89.21-1.76.37-2.6.48-.84.11-1.84.16-3,.16-.71,0-1.4-.11-2.08-.32-.68-.21-1.28-.54-1.8-.97-.52-.44-.94-.99-1.25-1.67-.31-.68-.47-1.48-.47-2.4,0-.23.01-.47.04-.72.03-.25.06-.51.09-.77l.32-1.87c.41-2.33,1.29-4.08,2.64-5.25,1.35-1.17,3.13-1.76,5.33-1.76.91,0,1.7.14,2.39.43.68.28,1.26.68,1.72,1.19.46.51.81,1.1,1.04,1.77.23.68.35,1.4.35,2.19m-4.03-.21c0-.62-.16-1.09-.48-1.41-.32-.32-.85-.48-1.6-.48-.91,0-1.6.28-2.07.84-.47.56-.8,1.3-1,2.23h5.01c.04-.21.07-.42.09-.61.03-.2.04-.38.04-.56"/>
      <path class="cls-1" d="m132.7,12.14s0,.07-.01.09c0,.03-.01.06-.01.09l-.43,2.37c-.04.14-.11.25-.21.33-.11.08-.23.12-.37.12h-.05c-.48-.05-.95-.1-1.4-.13-.45-.04-1.06-.05-1.83-.05-.32,0-.62.04-.91.13-.28.09-.54.25-.77.48-.23.23-.44.55-.61.95-.18.4-.32.91-.43,1.53l-.4,2.24c-.04.25-.07.48-.09.69-.03.21-.04.41-.04.59,0,.73.16,1.21.47,1.45.31.24.75.36,1.32.36.37,0,.71,0,1-.01.29,0,.57-.02.83-.04.26-.02.5-.04.73-.07.23-.03.47-.05.72-.07h.05c.28,0,.43.12.43.37v.08l-.43,2.37c-.04.2-.1.33-.2.41-.1.08-.25.15-.47.2-.39.09-.88.18-1.47.27-.59.09-1.28.13-2.08.13s-1.49-.12-2.13-.35c-.64-.23-1.19-.56-1.65-1-.46-.44-.82-.98-1.08-1.63-.26-.65-.39-1.38-.39-2.2,0-.5.05-1.02.16-1.57l.4-2.24c.21-1.24.54-2.3.97-3.16.44-.86.97-1.56,1.6-2.09.63-.53,1.35-.92,2.16-1.15.81-.23,1.69-.35,2.65-.35.8,0,1.49.04,2.08.13.59.09,1.06.18,1.41.27.32.07.48.21.48.43"/>
      <path class="cls-1" d="m138.28,12.06l-2.51,14.21c-.04.14-.12.27-.24.37-.12.11-.26.16-.4.16h-3.25c-.28,0-.43-.14-.43-.43v-.11l2.51-14.21c.04-.14.11-.27.23-.37.12-.11.24-.16.39-.16h3.25c.3,0,.45.15.45.45v.08Zm1.01-5.28l-.43,2.5c-.04.14-.12.27-.24.38-.12.11-.26.16-.4.16h-3.47c-.28,0-.43-.14-.43-.43v-.11l.43-2.5c.04-.14.12-.27.24-.38.12-.11.26-.16.4-.16h3.47c.28,0,.43.14.43.43v.11Z"/>
      <path class="cls-1" d="m152.38,12.57c0,.09,0,.16-.03.21l-2.35,13.49c-.04.14-.11.27-.23.37-.12.11-.24.16-.39.16h-2.72c-.14,0-.25-.04-.33-.13-.08-.09-.12-.19-.12-.32v-.08l.11-.77c-.73.56-1.42.96-2.08,1.19-.66.23-1.34.34-2.05.34-.8,0-1.48-.14-2.05-.43-.57-.28-1.03-.66-1.39-1.13-.36-.47-.62-1.02-.79-1.64-.17-.62-.25-1.26-.25-1.92,0-.25.01-.5.04-.75.03-.25.06-.5.09-.75.05-.39.12-.75.19-1.07.05-.28.1-.56.15-.84.04-.28.08-.48.09-.6.41-2.33,1.3-4.01,2.67-5.05,1.37-1.04,3.1-1.56,5.2-1.56.91,0,1.84.06,2.79.19.95.12,1.86.28,2.73.48.23.05.41.12.53.19.12.07.19.2.19.4m-5.68,2.37c-.37-.04-.75-.05-1.12-.05-.96,0-1.66.28-2.09.83-.44.55-.75,1.37-.95,2.45l-.48,2.8c-.05.28-.08.58-.08.88,0,.44.1.83.31,1.15.2.32.61.48,1.21.48.46,0,.94-.09,1.43-.28.49-.19.96-.4,1.4-.65l1.31-7.49c-.25-.04-.56-.07-.93-.11"/>
      <path class="cls-1" d="m159.1,6.89l-3.41,19.36c-.04.14-.11.27-.23.39-.12.12-.24.17-.39.17h-3.25c-.14,0-.25-.04-.33-.13-.08-.09-.12-.2-.12-.35v-.08l3.41-19.36c.04-.14.12-.27.24-.37.12-.11.26-.16.4-.16h3.25c.28,0,.43.14.43.43v.11Z"/>
      <path class="cls-1" d="m60.23,0c-3.08,0-5.98.76-8.53,2.11-.51.27-.69.92-.4,1.42l.02.04c.27.47.87.66,1.36.4,2.26-1.19,4.82-1.87,7.54-1.87,2.22,0,4.34.45,6.27,1.26.48.2,1.04.02,1.3-.43l.02-.03c.31-.54.08-1.23-.5-1.47-2.18-.92-4.58-1.43-7.09-1.43"/>
      <path class="cls-1" d="m60.23,7.04c-1.79,0-3.47.42-4.98,1.16-.53.26-.72.92-.43,1.43l.02.03c.27.47.86.64,1.35.41,1.22-.6,2.59-.93,4.03-.93.98,0,1.92.16,2.8.44.46.15.96-.05,1.2-.47l.02-.04c.33-.57.04-1.3-.58-1.5-1.08-.35-2.24-.54-3.44-.54"/>
      <path class="cls-1" d="m60.23,3.6c-2.41,0-4.68.58-6.69,1.61-.53.27-.73.92-.43,1.44l.02.04c.27.47.87.65,1.35.4,1.73-.88,3.68-1.38,5.75-1.38,1.58,0,3.08.29,4.47.82.48.18,1.02,0,1.27-.44l.02-.04c.32-.55.07-1.25-.52-1.48-1.63-.62-3.4-.97-5.25-.97"/>
    </g>
  </g>
</svg>