<?xml version="1.0" encoding="UTF-8"?>
<svg id="Layer_2" data-name="Layer 2" xmlns="http://www.w3.org/2000/svg" viewBox="0 0 25 25">
  <defs>
    <style>
      .cls-1 {
        fill: #6d6e71;
      }

      .cls-2 {
        fill: none;
      }
    </style>
  </defs>
  <g id="Design">
    <g>
      <rect class="cls-2" y="0" width="25" height="25" rx="1.83" ry="1.83"/>
      <g>
        <path class="cls-1" d="m5.12,15.83l-.07-.06h-1.81l1.98-6.9h-.3l-1.16,3.87c-.09.34-.29.5-.62.5-.17,0-.32-.05-.45-.15-.12-.1-.19-.25-.19-.45v-.04s.03-.12.06-.23c.02-.12.04-.19.04-.21l1.27-4.15c.04-.12.11-.26.21-.41.11-.15.22-.29.36-.42.13-.13.27-.24.42-.33.15-.09.29-.13.43-.13h2.84c.12,0,.26.04.42.12.16.08.3.18.44.31.14.12.26.26.36.4.11.14.18.28.21.4l1.36,4.47s.02.03.02.07v.11c0,.19-.06.35-.17.48-.11.13-.26.2-.45.2-.14,0-.26-.05-.38-.15-.12-.1-.19-.22-.21-.36l-1.18-3.91h-.32l1.98,6.9h-1.83v5.29c0,.15-.07.3-.21.45-.14.15-.29.22-.44.22-.21,0-.36-.04-.46-.11-.09-.07-.2-.19-.33-.34v-5.51h-.41v5.36c0,.15-.08.29-.23.41-.16.12-.31.19-.46.19-.05,0-.12-.01-.2-.04-.08-.02-.16-.06-.24-.09-.08-.04-.15-.08-.21-.14-.06-.06-.08-.12-.08-.18v-5.46Z"/>
        <path class="cls-1" d="m5.23,4.78c0-.41.15-.77.45-1.07.3-.3.65-.45,1.07-.45s.77.15,1.05.45c.27.3.41.65.41,1.07s-.14.78-.41,1.06c-.27.28-.63.42-1.07.42-.21,0-.41-.04-.59-.12-.18-.08-.34-.19-.47-.33-.13-.14-.24-.29-.32-.47-.08-.17-.12-.36-.12-.56Z"/>
        <rect class="cls-1" x="12.16" y="3.49" width="1.68" height="18.09"/>
        <path class="cls-1" d="m16.99,9.06h-.04c-.09,0-.13.01-.13.04v4.45c0,.12-.08.22-.24.29-.16.07-.31.1-.43.1-.1,0-.22-.04-.36-.12-.14-.08-.21-.19-.21-.33v-5.18c0-.15.05-.32.14-.5.09-.19.21-.36.36-.52.14-.16.3-.3.48-.4.17-.11.34-.16.5-.16h3.93c.19,0,.37.05.55.16.18.11.35.24.5.41.15.17.27.35.36.55.09.2.13.39.13.56v5.08c0,.14-.07.25-.22.33-.15.08-.28.12-.39.12-.2,0-.36-.06-.49-.17-.12-.11-.19-.27-.19-.49v-4.22h-.26v11.93c0,.21-.11.38-.32.5-.21.12-.41.19-.6.19-.21,0-.41-.07-.59-.22-.18-.15-.27-.34-.27-.58v-6.93h-.3v6.93c0,.24-.09.43-.27.58-.18.15-.38.22-.61.22s-.42-.07-.59-.22c-.17-.15-.25-.34-.25-.58v-11.78s-.02-.04-.06-.04h-.11Z"/>
        <path class="cls-1" d="m17.55,4.78c0-.41.14-.77.42-1.07s.63-.45,1.04-.45.78.15,1.07.45c.29.3.44.65.44,1.07s-.15.76-.44,1.05c-.29.29-.65.43-1.07.43s-.76-.14-1.04-.43c-.28-.29-.42-.64-.42-1.05Z"/>
      </g>
    </g>
  </g>
</svg>