<?xml version="1.0" encoding="UTF-8"?>
<svg id="Layer_2" data-name="Layer 2" xmlns="http://www.w3.org/2000/svg" viewBox="0 0 260 585.12">
  <defs>
    <style>
      .cls-1 {
        fill: #e2e2e2;
      }

      .cls-2 {
        fill: #bdbfbf;
      }
    </style>
  </defs>
  <g id="Layer_1-2" data-name="Layer 1">
    <g>
      <g>
        <path class="cls-2" d="m11.25,21.53c.72,1.7,6.74.78,13.44-2.06s11.54-6.53,10.81-8.23c-.72-1.7-6.74-.78-13.43,2.06s-11.54,6.53-10.82,8.23Z"/>
        <path class="cls-2" d="m248.75,21.53c-.72,1.7-6.74.78-13.44-2.06s-11.54-6.53-10.81-8.23,6.74-.78,13.43,2.06c6.7,2.84,11.54,6.53,10.82,8.23Z"/>
      </g>
      <path class="cls-1" d="m0,555.74c0,16.16,13.22,29.38,29.38,29.38h201.25c16.16,0,29.37-13.22,29.37-29.38V34.24S246.49,0,133.22,0,0,34.24,0,34.24v521.5Z"/>
      <path class="cls-2" d="m9.8,37.19v11.29h115.52l120.39-15.81c-10.4-8.3-39.12-22.88-112.48-22.88C39.29,9.79,14.6,31.57,9.8,37.19Z"/>
    </g>
  </g>
</svg>