<?xml version="1.0" encoding="UTF-8"?>
<svg id="Layer_2" data-name="Layer 2" xmlns="http://www.w3.org/2000/svg" viewBox="0 0 25 25">
  <defs>
    <style>
      .cls-1 {
        stroke-width: .3px;
      }

      .cls-1, .cls-2 {
        fill: #fff;
        stroke: #6d6e71;
        stroke-miterlimit: 10;
      }

      .cls-3 {
        fill: none;
      }

      .cls-2 {
        stroke-width: .29px;
      }
    </style>
  </defs>
  <g id="Design">
    <g>
      <rect class="cls-3" width="25" height="25" rx="1.83" ry="1.83"/>
      <g>
        <path class="cls-1" d="m21.68,19.19H2.5v.83h0c0,.45.37.81.82.81h18.37c.45,0,.81-.36.82-.81h0v-.83h-.82Z"/>
        <g>
          <path class="cls-1" d="m8.04,4.1h8.91c1.69,0,3.06,1.37,3.06,3.06v12.67c0,1.69-1.37,3.06-3.06,3.06h-8.92c-1.69,0-3.06-1.37-3.06-3.06V7.16c0-1.69,1.37-3.06,3.06-3.06Z"/>
          <path class="cls-1" d="m20.02,19.84v-.65H4.98v.65c0,1.69,1.37,3.06,3.06,3.06h8.91c1.69,0,3.06-1.37,3.06-3.06Z"/>
          <path class="cls-1" d="m22.5,7.61c0-.46-.38-.84-.84-.84h-.8c-.46,0-.84.38-.84.84v11.58h2.48V7.61Z"/>
          <path class="cls-1" d="m4.98,7.61c0-.46-.38-.84-.84-.84h-.8c-.46,0-.84.38-.84.84v11.58h2.48V7.61Z"/>
          <path class="cls-1" d="m16.39,18.93c0-.46-.38-.84-.84-.84h-6.11c-.46,0-.84.38-.84.84v2.73h7.79v-2.73Z"/>
        </g>
      </g>
      <path class="cls-2" d="m17.47,10.46h.09c.21,0,.32-.03.32-.09v-3.13c0-.3.2-.54.59-.7.39-.17.74-.25,1.04-.25.24,0,.54.1.89.3.35.2.52.46.52.79v5.86c0,.36-.11.77-.34,1.23-.23.45-.51.88-.86,1.27-.35.39-.73.72-1.16.98-.42.26-.83.39-1.23.39H7.8c-.45,0-.9-.13-1.34-.39-.44-.26-.84-.59-1.2-1-.36-.41-.65-.86-.86-1.34-.21-.48-.32-.94-.32-1.36v-5.64c0-.33.18-.6.54-.79.36-.2.68-.3.95-.3.48,0,.88.14,1.18.41.3.27.45.67.45,1.18v2.59h.64V3.54c0-.52.26-.92.77-1.23.52-.3,1-.45,1.45-.45.52,0,.99.18,1.43.54.44.36.66.83.66,1.41v3.42h.73v-3.42c0-.58.22-1.04.66-1.41.44-.36.93-.54,1.48-.54s1.02.18,1.43.54c.41.36.61.83.61,1.41v6.55c0,.06.05.09.14.09h.27Z"/>
      <path class="cls-1" d="m9.77,15.57c0-.85.26-1.59.77-2.21s1.15-.93,1.9-.93,1.43.31,1.97.93c.54.62.81,1.36.81,2.21s-.27,1.58-.81,2.17c-.54.59-1.19.89-1.97.89s-1.39-.3-1.9-.89c-.51-.59-.77-1.32-.77-2.17Z"/>
    </g>
  </g>
</svg>