<?xml version="1.0" encoding="UTF-8"?>
<svg id="Layer_2" data-name="Layer 2" xmlns="http://www.w3.org/2000/svg" viewBox="0 0 25 25">
  <defs>
    <style>
      .cls-1 {
        fill: #fff;
        stroke: #6d6e71;
        stroke-miterlimit: 10;
        stroke-width: .3px;
      }

      .cls-2 {
        fill: #6d6e71;
      }

      .cls-3 {
        fill: none;
      }
    </style>
  </defs>
  <g id="Design">
    <g>
      <rect class="cls-3" y="0" width="25" height="25" rx="1.83" ry="1.83"/>
      <g>
        <path class="cls-1" d="m21.68,19.19H2.5v.83h0c0,.45.37.81.82.81h18.37c.45,0,.81-.36.82-.81h0v-.83h-.82Z"/>
        <g>
          <path class="cls-1" d="m16.96,22.9c1.69,0,3.06-1.37,3.06-3.06V7.16c0-1.68-1.37-3.06-3.06-3.06l-4.74-2.14-4.18,2.14c-1.68,0-3.06,1.37-3.06,3.06v12.68c0,1.69,1.37,3.06,3.06,3.06h8.91Z"/>
          <path class="cls-1" d="m20.02,19.84v-.65H4.98v.65c0,1.69,1.37,3.06,3.06,3.06h8.91c1.69,0,3.06-1.37,3.06-3.06Z"/>
          <path class="cls-1" d="m22.5,7.61c0-.46-.38-.84-.84-.84h-.8c-.46,0-.84.38-.84.84v11.58h2.48V7.61Z"/>
          <path class="cls-1" d="m4.98,7.61c0-.46-.38-.84-.84-.84h-.8c-.46,0-.84.38-.84.84v11.58h2.48V7.61Z"/>
        </g>
      </g>
      <path class="cls-2" d="m12.5,1.66c-3.57,0-6.47,2.87-6.47,6.4s2.9,6.4,6.47,6.4,6.47-2.87,6.47-6.4-2.9-6.4-6.47-6.4Zm0,1.15c2.73,0,4.99,2.05,5.28,4.68h-3.24c-.25-.89-1.07-1.54-2.05-1.54s-1.79.66-2.04,1.54h-3.24c.29-2.63,2.55-4.68,5.28-4.68Zm-.58,10.47c-2.47-.26-4.44-2.21-4.71-4.64h3.24c.2.7.76,1.26,1.47,1.45v3.19Zm-.41-5.22c0-.53.44-.97.98-.97s.98.43.98.97-.44.97-.98.97-.98-.43-.98-.97Zm1.56,5.22v-3.19c.71-.2,1.27-.75,1.47-1.45h3.24c-.27,2.44-2.24,4.38-4.71,4.64Z"/>
    </g>
  </g>
</svg>