<?xml version="1.0" encoding="UTF-8"?>
<svg id="Layer_2" data-name="Layer 2" xmlns="http://www.w3.org/2000/svg" viewBox="0 0 200 45.08">
  <defs>
    <style>
      .cls-1, .cls-2 {
        fill: #252146;
      }

      .cls-1, .cls-3, .cls-4 {
        fill-rule: evenodd;
      }

      .cls-3 {
        fill: #76bacb;
      }

      .cls-4 {
        fill: #c73771;
      }
    </style>
  </defs>
  <g id="Capa_1" data-name="Capa 1">
    <path class="cls-4" d="m10.26,7.7l-5.79,2.99c-2.6,1.33-4,5.65-2.39,7.86.04.06.09.13.14.19l5.46-7.51,2.6-3.54h-.02Z"/>
    <path class="cls-3" d="m10.25,29.72L2.22,18.74l-1.6,2.2c-1.62,2.23.18,6.6,2.38,7.71l10.33,5.19c-1.06-1.4-2.09-2.79-3.08-4.14v.02Z"/>
    <path class="cls-4" d="m29.03,41.78l-13.87-7.01-1.8-.9c2.26,2.99,4.61,6.06,6.86,9.14,1.97,2.7,5.19,2.72,7.41.32l1.43-1.55h-.02Z"/>
    <path class="cls-3" d="m37.34,32.81l-8.31,8.97,1.39.7c2.65,1.34,5.5.13,6.26-2.6.9-3.21,1.73-6.24,2.55-9.09l-1.88,2.03h0Z"/>
    <path class="cls-4" d="m40.61,25.84c-.45,1.59-.91,3.24-1.39,4.94l5.73-6.18c1.3-1.39,1.73-3.16.14-4.94l-.9-1.02-1.2-1.35-2.39,8.53h0Z"/>
    <path class="cls-3" d="m36.6,10.11l6.39,7.19c.23-.81.43-1.6.67-2.37.43-1.57-.03-3.13-1.99-3.92l-1.3-.52-5.35-2.16,1.57,1.77v.02Z"/>
    <path class="cls-4" d="m29.37,6.09l5.66,2.27-5.56-6.26c-.27-.31-.55-.61-.81-.92-1.37-1.53-3.06-1.39-4.65-.57l-3.63,1.87,8.99,3.61Z"/>
    <path class="cls-1" d="m35.03,8.35l-5.66-2.26-8.99-3.61-5.55,2.87-4.56,2.35-2.6,3.54-5.44,7.5,8.03,10.98c.99,1.35,2.02,2.74,3.08,4.14l1.82.9,13.9,7.01,8.31-8.97,1.86-2.05c.48-1.71.94-3.35,1.39-4.94l2.39-8.53-6.39-7.17-1.57-1.77Z"/>
    <path class="cls-3" d="m14.82,5.34l5.55-2.87-1.79-.71-.43-.18c-1.73-.69-3-.58-3.9.66l-.36.49-3.61,4.97,4.56-2.35h-.03Z"/>
    <path class="cls-2" d="m59.87,36.79V8.9c0-.28.23-.52.52-.52h0c.87,0,1.98-.15,2.28.21l18.38,20.31V8.92c0-.28.23-.52.52-.52h2.91c.28,0,.52.23.52.52h0v27.86c0,.72-1.33.6-1.58.32l-19.51-21.49v21.17c0,.28-.23.52-.52.52h-2.99c-.28,0-.52-.23-.52-.52h0ZM196.57,8.41h2.91c.28,0,.52.23.52.52h0v27.86c0,.28-.23.52-.52.52h-2.91c-.28,0-.51-.23-.52-.52V8.92c0-.28.23-.52.52-.52h0Zm-33.38,0h2.91c.28,0,.52.23.52.52h0c0,1.57-.09,18.31.06,19.45.38,2.7,2.01,4.12,4.64,4.73.8.17,1.63.23,2.45.19h0c2.7.07,5.1-1.74,5.78-4.35.25-.91.32-3.46.32-4.71v-15.31c0-.28.23-.52.52-.52h2.91c.28,0,.52.23.52.52h0v15.29c0,3.03-.27,6.62-2.06,8.98-1.85,2.44-4.77,3.85-7.84,3.77h0c-2.69,0-4.82-.19-7.16-1.69-4.18-2.68-4.09-6.33-4.09-11.05v-15.29c0-.28.23-.52.52-.52h0Zm-25.57-.48c8.36,0,14.81,6.25,14.81,14.58.07,3.87-1.45,7.6-4.2,10.32l3.51,3.52c.19.21.17.54-.04.73-.09.08-.21.13-.33.13h-2.99c-.15,0-.3-.07-.39-.18l-2.2-2.2c-3.95,2.6-9.31,2.97-13.63,1.22-5.46-2.22-9.02-7.53-8.99-13.42,0-8.11,6.29-14.72,14.46-14.72v.03Zm.32,17.8h3c.15,0,.29.07.39.18l4.29,4.3c4.6-4.72,4.11-13.42-2.4-17.16h0c-7.22-4.14-16.26.87-16.26,9.58s8.99,13.42,16.13,9.49l-5.5-5.52c-.19-.21-.18-.53.03-.73.09-.09.21-.13.34-.14h0Zm-40.13-17.33h14.72c.28,0,.52.23.52.52h0v2.71c0,.28-.23.52-.52.52h-11.29v7.69h11.16c.28,0,.52.23.52.52h0v2.71c0,.28-.23.52-.52.52h-11.16v9.96h11.16c.28,0,.52.23.52.52h0v2.72c0,.28-.23.51-.52.52h-14.59c-.28,0-.52-.23-.52-.52h0V8.92c0-.28.23-.52.52-.52h0Z"/>
  </g>
</svg>