<?xml version="1.0" encoding="UTF-8"?>
<svg id="Layer_2" data-name="Layer 2" xmlns="http://www.w3.org/2000/svg" viewBox="0 0 200 155.87">
  <defs>
    <style>
      .cls-1 {
        fill: #050504;
      }

      .cls-2 {
        fill: #c20d23;
      }

      .cls-2, .cls-3 {
        isolation: isolate;
        opacity: .9;
      }

      .cls-3 {
        fill: #dd961b;
      }
    </style>
  </defs>
  <g id="Capa_1" data-name="Capa 1">
    <path class="cls-1" d="m13.92,140.68c2.59-3.16,7.91-2.75,10.17.69,1.7-2.37,4.05-3.09,6.83-2.74,3.04.28,5.36,2.83,5.36,5.88.06,3.41,0,6.83.03,10.25,0,.53-.17.71-.69.67-.96-.08-2.18.39-2.79-.21-.54-.52-.14-1.75-.15-2.62-.02-2.1,0-4.21,0-6.32,0-.37-.02-.74-.08-1.1-.34-2.18-1.48-3.21-3.49-3.22-2.14,0-3.61,1.2-3.93,3.27-.07.51-.1,1.02-.1,1.53v7.94c0,.53-.11.8-.7.74-.95-.09-2.18.39-2.79-.21-.54-.53-.14-1.75-.15-2.62v-5.8c0-.4,0-.8-.03-1.2-.17-2.38-1.41-3.64-3.55-3.64-2.3,0-3.87,1.42-3.93,3.72-.08,2.85-.03,5.68-.04,8.54,0,1.38.16,1.21-1.24,1.21-.76,0-1.75.32-2.24-.13s-.17-1.52-.17-2.3v-13.15c0-.65.13-.97.84-.87.28.02.57.02.85,0,.57,0,1.23-.16,1.69.07.52.26,0,1.03.3,1.61Z"/>
    <path class="cls-1" d="m66.93,155.83c-2.24.03-4.45-.56-6.38-1.7-.52-.31-.59-.57-.24-1.06.37-.54.71-1.1,1.02-1.68.21-.39.4-.44.79-.17,1.87,1.18,4.11,1.65,6.3,1.31.54-.05,1.07-.21,1.54-.47.55-.27.9-.84.87-1.45-.03-.68-.48-1-1.03-1.23-1-.34-2.04-.55-3.09-.63-1.16-.12-2.3-.42-3.37-.87-1.62-.76-2.65-1.96-2.73-3.81-.14-1.75.71-3.43,2.21-4.34,1.25-.76,2.69-1.16,4.15-1.15,2.23-.13,4.45.31,6.47,1.27.55.28.8.53.39,1.15s-.59,1.59-1.16,1.94-1.34-.46-2.06-.65c-1.42-.36-2.83-.67-4.3-.39-.42.07-.83.23-1.19.46-.5.3-.79.86-.73,1.45.07.56.49,1.01,1.04,1.12,1.01.28,2.05.48,3.1.57,1.1.13,2.19.41,3.21.83,1.56.7,2.62,1.79,2.82,3.57.25,1.77-.54,3.53-2.04,4.51-1.65,1.17-3.55,1.44-5.58,1.44Z"/>
    <path class="cls-1" d="m80.35,146.86c0-1.28-.03-2.56,0-3.84,0-.58-.13-.83-.75-.78s-1.37,0-2.05,0c-.44,0-.61-.16-.58-.6.05-.85-.33-1.91.14-2.48s1.55-.2,2.36-.17.91-.24.87-.93c-.05-1.14,0-2.28,0-3.41,0-.5.12-.72.66-.69.79.04,1.59.03,2.39,0,.44,0,.59.16.59.6,0,1.19.04,2.39,0,3.58-.03.71.23.87.87.84,1.42-.04,2.85,0,4.27-.03.56,0,.76.17.72.72-.04.6-.04,1.19,0,1.79.04.58-.13.8-.75.78-1.42-.04-2.85,0-4.27-.02-.6,0-.87.1-.84.78.04,2.25,0,4.5,0,6.74,0,1.99.92,2.78,2.9,2.62.71-.05,1.41-.26,2.03-.6.53-.29.69-.09.83.38.16.61.36,1.2.59,1.78.2.3.12.71-.18.91-.06.04-.13.07-.21.09-1.95.98-4.21,1.19-6.31.58-2.18-.64-3.06-2.36-3.22-4.46-.1-1.38,0-2.78,0-4.18h-.07Z"/>
    <path class="cls-1" d="m132.91,155.82c-6.93.07-10.23-5.77-8.56-11.48,1.12-3.83,4.85-6.14,9.11-5.79,1.69.08,3.31.63,4.7,1.59.38.27.47.48.2.87-.4.59-.76,1.2-1.09,1.83-.25.48-.47.49-.91.21-1.43-.98-3.19-1.34-4.89-1-2.64.56-4.21,3.14-3.73,6.11.34,2.65,2.75,4.54,5.41,4.22,1.14-.1,2.24-.48,3.19-1.1.49-.34.71-.22.96.26.29.59.63,1.15,1.01,1.69.36.51.19.76-.27,1.07-1.5,1.04-3.3,1.57-5.13,1.51Z"/>
    <path class="cls-1" d="m116.06,140.78c1.69-2.18,3.76-2.54,6.11-2.01.59.14.74.35.51.93-.26.66-.48,1.34-.66,2.03-.13.46-.31.72-.83.47h-.08c-3.21-.78-5.03.64-5.05,3.97,0,2.82-.03,5.63,0,8.45,0,.69-.21.9-.87.85-.65-.05-1.31-.05-1.96,0-.65.06-.82-.18-.81-.82.03-3.19,0-6.38,0-9.56,0-1.75.03-3.47,0-5.21-.02-.74.23-.94.92-.87.6.05,1.2.05,1.79,0,.71-.07,1,.18.87.9,0,.3.02.59.06.89Z"/>
    <path class="cls-1" d="m165.87,140.7c.84-1.23,2.18-2.01,3.66-2.13.88-.05,1.77.04,2.62.27.36.08.47.27.33.62-.1.26-.18.54-.27.81-.22.65-.26,1.48-.7,1.88s-1.21-.14-1.85-.18c-2.31-.16-3.79,1.18-3.84,3.66-.06,2.93-.06,5.86,0,8.79,0,.83-.22,1.11-1.04,1.02s-1.88.33-2.39-.15-.18-1.61-.18-2.45c-.02-4.32,0-8.65-.03-12.97,0-.72.19-.96.9-.87.6.06,1.2.06,1.79,0,.75-.08.96.23.87.92-.06.27-.02.56.13.8Z"/>
    <path class="cls-1" d="m190.69,133.66v-.77c.02-.41-.15-.55-.55-.55-.77.02-1.54.04-2.31,0-.6-.03-.79.17-.78.77.03,2.22,0,4.44,0,6.66,0,.28.14.62-.18.87-.81-.89-1.86-1.53-3.02-1.86-4.76-1.28-9.38,1.96-10.13,7.08-.53,3.66,1.11,7.22,4.1,8.91s6.17,1.34,9.14-1.07q.25,1.71,2.02,1.71c.25-.02.51-.02.76,0,.76.12.96-.19.95-.94-.03-6.93-.01-13.88-.01-20.82Zm-8.42,18.8c-2.86-.03-4.89-2.21-4.89-5.24s2.05-5.27,4.95-5.26,4.97,2.21,4.95,5.28-2.13,5.26-5.01,5.23Z"/>
    <path class="cls-1" d="m157.47,140.89q0-1.91-1.91-1.91-1.58,0-1.72,1.52s-.05.08-.1.15c-.07-.03-.14-.06-.2-.11-2.4-2.35-5.21-2.49-8.14-1.31-3.88,1.57-5.84,6.15-4.63,10.52,1.63,5.89,8.47,8.01,12.88,4,.03-.03.1,0,.21,0,.02.28.02.56,0,.84-.09.67.16.92.84.87.62-.06,1.25-.06,1.88,0,.71.07.91-.17.9-.87-.04-4.61-.02-9.16-.02-13.71Zm-8.43,11.57c-2.85-.05-4.9-2.27-4.89-5.27s2.1-5.26,4.99-5.24,4.93,2.18,4.91,5.3-2.14,5.27-5.01,5.21Z"/>
    <path class="cls-1" d="m56.5,139.79c0-.62-.14-.87-.8-.82-.68.05-1.36.05-2.04,0-.58-.04-.84.13-.78.75.1.32.05.67-.13.96-3.14-3.38-8.59-2.41-11.13.56-1.69,1.94-2.44,4.52-2.07,7.07.38,3.28,2.01,5.76,5.16,6.94,2.93,1.11,5.7.82,8.09-1.6.22.6-.15,1.27.21,1.63s1.03.13,1.56.14q1.92,0,1.92-1.89c0-4.57,0-9.15.01-13.73Zm-8.39,12.66c-2.86,0-4.97-2.28-4.94-5.31s2.09-5.2,4.94-5.2,4.97,2.16,4.97,5.24-2.07,5.28-4.97,5.28h0Z"/>
    <path class="cls-1" d="m97.21,148.57c1.79.03,3.59,0,5.38,0h4.1q2.18,0,2.05-2.21c-.32-5.75-5.34-9.24-10.67-7.34-3.54,1.26-5.04,4.04-5.32,7.62-.3,3.84,1.71,7.36,5.07,8.55,3.15,1.19,6.69.77,9.46-1.14.61-.39.65-.72.21-1.26-.34-.42-.64-.87-.9-1.35-.27-.49-.51-.52-.98-.2-1.47,1.02-3.25,1.47-5.02,1.28-1.86-.12-3.43-1.4-3.93-3.19-.15-.51-.1-.76.56-.75Zm-.55-3.49c.41-1.98,2.2-3.37,4.22-3.29,2.05,0,3.52,1.22,4.02,3.28.14.57-.03.69-.56.68-1.2-.02-2.39,0-3.59,0h-3.59c-.53,0-.62-.2-.5-.68h0Z"/>
    <path class="cls-2" d="m100.19,111.15c-7.78,6.07-16.88,10.2-26.56,12.07-24.18,4.76-49.55-5.86-63.19-26.47C-8.77,67.71-.73,29.19,28.54,10.25,37.24,4.58,47.27,1.27,57.64.65c15.8-1.01,29.99,3.35,42.55,12.99.61.12,1.17.43,1.61.87,4.02,3.37,7.62,7.22,10.7,11.47,6.38,8.84,10.33,19.2,11.46,30.04.37,3.79.4,7.61.09,11.41-.44,5.91-1.76,11.73-3.89,17.26-2.2,5.69-5.21,11.03-8.94,15.86-2.26,2.95-4.9,5.54-7.53,8.13-.73.72-1.52,1.38-2.35,1.97-.34.25-.73.43-1.15.51Z"/>
    <circle class="cls-3" cx="137.66" cy="62.34" r="62.34"/>
  </g>
</svg>