<?xml version="1.0" encoding="UTF-8"?>
<svg id="Layer_2" data-name="Layer 2" xmlns="http://www.w3.org/2000/svg" viewBox="0 0 202 95.98">
  <defs>
    <style>
      .cls-1 {
        fill: none;
        stroke: #c4292f;
        stroke-miterlimit: 10;
        stroke-width: 4px;
      }

      .cls-2 {
        fill: #c4292f;
      }
    </style>
  </defs>
  <g id="Capa_1" data-name="Capa 1">
    <path class="cls-2" d="m4.29,52.52v-5.59c0-1.27.15-2.57,1.79-2.57s1.79,1.23,1.79,2.55v10.11c0,.91.21,1.33,1.14,1.46,3.99.56,7.87.34,11.55-1.54,4.2-2.13,6.76-8.43,1.4-13-3.02-2.57-6.59-3.19-10.27-3.52-3.05-.24-6.12.09-9.04.97-1.06.31-2.07.48-2.51-.83s.29-2.13,1.36-2.62c2.35-1.02,4.85-1.2,7.35-1.26,4.55-.11,9,.45,13.17,2.46,3.78,1.82,6.53,4.62,7.23,9.12.77,4.96-1.98,9.92-6.8,12.17s-10.01,2.53-15.2,1.6c-2.06-.37-2.78-1.39-2.93-3.6v-5.9h-.03Zm42.51-15.83c1.64,0,2.89.87,4.04,1.89,2.32,2.04,4.04,4.61,5.66,7.26,2.31,3.83,4.32,7.85,5.99,12,.22.53.39,1.08.48,1.65.22,1.36-.21,2.45-1.52,2.9s-2.04-.49-2.49-1.65c-1.93-5.1-4.37-10-7.28-14.62-.88-1.47-1.99-2.78-3.31-3.87-.85-.8-2.18-.82-3.05-.05-1.38,1.11-2.54,2.46-3.44,3.99-2.83,4.46-5.21,9.19-7.11,14.12-.5,1.27-.99,2.61-2.71,2.07-1.35-.42-1.92-2.05-1.24-3.78,2.55-6.45,5.59-12.63,9.95-17.99,1.6-1.95,3.37-3.72,6.02-3.92h0Z"/>
    <path class="cls-2" d="m75.61,62.51c-1.36-.04-2.43-.73-3.42-1.62-1.78-1.7-3.3-3.65-4.51-5.8-2.64-4.46-4.87-9.15-6.65-14.02-.3-.81-.62-1.64-.37-2.54s.73-1.71,1.79-1.82,1.5.58,1.82,1.45c1.1,3.09,2.36,6.13,3.77,9.09,1.41,2.96,2.86,5.91,4.93,8.45,1.99,2.44,3.3,2.49,5.26.05,3.14-3.92,5.11-8.55,7.08-13.16.63-1.48,1.15-3.02,1.75-4.51.35-.85.87-1.55,1.88-1.37s1.52.9,1.7,1.89c.12.63.07,1.28-.15,1.88-2.35,6.29-5.08,12.37-9.04,17.78-.83,1.16-1.81,2.2-2.94,3.09-.8.72-1.84,1.12-2.92,1.14l.02.02Z"/>
    <path class="cls-2" d="m99.05,49.83v9.91c0,1.9-.7,2.8-2.03,2.76s-2.03-1.02-2.03-2.83v-20.02c0-1.83.72-2.83,1.99-2.87s2.06.98,2.07,2.95c0,3.37-.01,6.73-.01,10.1Z"/>
    <path class="cls-2" d="m106.02,49.19c0-2.27-.07-4.09-.14-5.77h2.89l.14,3.03h.07c1.3-2.22,3.72-3.54,6.29-3.44,4.26,0,7.49,3.62,7.49,8.99,0,6.36-3.87,9.5-8.04,9.5-2.34,0-4.39-1.02-5.45-2.78h-.07v9.61h-3.19v-19.15Zm3.2,4.71c0,.44.06.89.15,1.32.55,2.21,2.54,3.77,4.82,3.76,3.39,0,5.37-2.78,5.37-6.83,0-3.55-1.86-6.58-5.26-6.58-2.34.06-4.34,1.7-4.86,3.98-.13.43-.2.87-.22,1.31v3.03Z"/>
    <path class="cls-2" d="m126.81,35.16h3.19v25.95h-3.19v-25.95Z"/>
    <path class="cls-2" d="m145.21,61.11l-.26-2.23h-.11c-1.28,1.69-3.29,2.67-5.41,2.63-3.58,0-5.41-2.52-5.41-5.08,0-4.26,3.8-6.61,10.64-6.57v-.37c0-1.46-.4-4.09-4.02-4.09-1.63,0-3.22.46-4.61,1.31l-.73-2.13c1.75-1.05,3.76-1.6,5.81-1.57,5.41,0,6.72,3.69,6.72,7.23v6.62c-.02,1.42.07,2.85.29,4.26h-2.93Zm-.47-9.05c-3.51-.07-7.49.53-7.49,3.98-.13,1.57,1.04,2.94,2.61,3.07.14.01.28.01.43,0,1.91.04,3.63-1.16,4.26-2.96.11-.33.17-.67.18-1.02l.02-3.07Z"/>
    <path class="cls-2" d="m156.77,38.34v5.08h4.61v2.44h-4.61v9.54c0,2.19.62,3.44,2.41,3.44.63,0,1.26-.07,1.87-.22l.14,2.42c-.92.32-1.88.47-2.85.44-1.3.08-2.57-.42-3.47-1.35-.91-.95-1.24-2.52-1.24-4.6v-9.65h-2.74v-2.45h2.74v-4.26l3.14-.82Z"/>
    <path class="cls-2" d="m174.79,61.11l-.26-2.23h-.11c-1.28,1.69-3.29,2.67-5.41,2.63-3.58,0-5.41-2.52-5.41-5.08,0-4.26,3.8-6.61,10.64-6.57v-.37c0-1.46-.4-4.09-4.02-4.09-1.63,0-3.22.46-4.61,1.31l-.73-2.13c1.75-1.05,3.76-1.6,5.81-1.57,5.41,0,6.72,3.69,6.72,7.23v6.62c-.02,1.42.07,2.85.29,4.26h-2.92Zm-.48-9.05c-3.51-.07-7.49.53-7.49,3.98-.13,1.57,1.04,2.94,2.61,3.07.14.01.28.01.43,0,1.91.04,3.63-1.16,4.26-2.96.11-.33.18-.67.18-1.02l.02-3.07Z"/>
    <path class="cls-1" d="m94.98,31.17s18.03-17.39,39.06-26.27c16.17-6.81,27.77.04,32.27,3.59.56.43,1.36.33,1.8-.22.18-.23.27-.5.27-.79v-.04s0-.09,0-.14c-.06-.48-.29-3.34,3.62-2.89s9.87.21,10.72.17c.08,0,.15,0,.23,0,.57.09,2.96.53,2.66,2.28-.28,1.65-1.48,9.22-1.86,11.59-.07.44.1.89.45,1.18l11.87,9.74c.84.68,1.54,1.5,2.09,2.43,1.56,2.66,3.79,8.04-1.38,10.9-6.05,3.36-11.14,2.13-12.47,1.74-.12-.04-.25.02-.29.14-.01.03-.02.07-.01.11.68,6.06,2.88,11.85,6.38,16.84,5.9,8.24,5.25,16.28-1.15,23.34-6.19,6.82-14.84,8.43-27.41,6.75-.94-.14-1.9-.17-2.85-.09-8.51.76-12.33,5.18-26.86-.1-3.69-1.31-33.05,9.04-33.87-23.24"/>
    <circle class="cls-2" cx="94.88" cy="31.23" r="1.15"/>
    <circle class="cls-2" cx="98.24" cy="68.2" r="1.15"/>
  </g>
</svg>