<?xml version="1.0" encoding="UTF-8"?>
<svg id="Layer_2" data-name="Layer 2" xmlns="http://www.w3.org/2000/svg" viewBox="0 0 200 77.65">
  <defs>
    <style>
      .cls-1 {
        fill: #e5ac19;
      }

      .cls-2 {
        fill: #2f63aa;
      }
    </style>
  </defs>
  <g id="Capa_1" data-name="Capa 1">
    <path class="cls-2" d="m109.78,58.25c-3.48.05-6.96-.12-10.42-.51-1.2-.12-1.82.38-2.12,1.78-.85,3.86-1.7,7.73-2.54,11.6-.15.68-.28,1.36-.44,2.04-.36,1.45-1.57,2.03-2.93,1.42-.78-.35-.87-.97-.76-1.75,1.01-5.77,1.99-11.54,3.01-17.31,1.42-8.04,2.86-16.08,4.32-24.12.44-2.38.98-4.72,2.48-6.71,2.45-3.26,5.87-4.69,9.76-5.24,3.92-.56,7.91-.55,11.83.05,3.45.52,6.4,1.9,7.81,5.39.87,2.12.74,4.33.44,6.55-.65,5.22-1.61,10.39-2.88,15.49-.82,3.16-2.13,6.01-4.68,8.19s-5.56,2.93-8.78,3.11c-1.36.08-2.73.02-4.09.02Zm-.29-4.2c2.46.02,4.67.05,6.86-.4,2.76-.56,4.71-2.07,5.73-4.72.2-.5.38-1,.53-1.52.97-3.77,1.72-7.59,2.22-11.45.33-2.25.87-4.47.79-6.77-.1-2.09-1.03-3.69-2.98-4.45-3.9-1.48-8.13-1.86-12.23-1.1-3.21.53-5.61,2.23-6.9,5.3-2.75,6.55-3.82,13.42-4.03,20.45-.05,1.72.92,2.98,2.5,3.73.78.35,1.6.6,2.45.74,1.76.31,3.54.14,5.06.21h0Z"/>
    <path class="cls-2" d="m188.58,40.98c-3.31-.12-7.74.23-12.17.14-1.31-.03-2.59-.12-3.89-.12-2.1,0-2.7.54-2.93,2.62-.18,1.62-.49,3.24-.27,4.9.44,3.31,2.7,5.4,6.08,5.49,5.85.17,11.71.23,17.56.23.74,0,1.6-.17,1.69.99.14,1.78-.34,2.76-1.5,2.96-.12.02-.25.04-.38.03-4.66-.11-9.29.46-13.94.37-2.57,0-5.13-.31-7.62-.93-4.22-1.14-6.5-3.99-6.68-8.37-.2-4.98.62-9.83,1.75-14.65.45-2.04,1.01-4.06,1.67-6.04,1.79-5.21,5.66-8.02,10.96-8.94,4.53-.77,9.15-.79,13.68-.07,4.49.7,7.08,3.63,7.35,8.21.23,3.89-.32,7.71-1.04,11.5-.23,1.18-.87,1.64-2.18,1.65-2.34.02-4.68,0-8.14,0Zm-2.73-17.3c-2.69.03-4.56,0-6.42.2-2.73.27-4.8,1.43-6.01,3.99-1.07,2.4-1.95,4.88-2.62,7.42-.28.96.08,1.43,1.07,1.59.76.12,1.52-.12,2.27-.11,6.3.07,12.6-.14,18.91.1,1.18.04,1.79-.41,1.93-1.48.26-2.01.51-4.02.74-6.03.41-3.67-.46-4.8-4.14-5.36-1.89-.27-3.81-.38-5.72-.32Z"/>
    <path class="cls-2" d="m141.55,58.09h-10.35c-1.31,0-1.56-.29-1.38-1.59.25-1.75.59-2,2.4-2.09,5.68-.28,11.32-.36,16.99-.4,2.08,0,4.08-.4,5.78-1.78,2.06-1.67,3.17-5.59,2.24-8.06-.69-1.83-2.14-2.68-3.96-3-2.66-.4-5.35-.58-8.04-.54-2.31-.03-4.62-.07-6.87-.73-3.71-1.1-5.72-4.22-5.24-8.07.2-1.95.68-3.86,1.41-5.68,1.35-3.17,3.74-5.04,7.09-5.68,3.36-.61,6.78-.83,10.2-.66,3.49.14,7.02.19,10.53.27,1.21.03,1.36.19,1.31,1.4-.09,1.52-.96,2.36-2.62,2.42-1.42.05-2.85-.07-4.27-.11-4.14-.11-8.3-.3-12.43.13-3.34.35-5.84,2.27-6.58,5.17-.52,2.05-.48,4.05,1.25,5.61.96.78,2.15,1.24,3.39,1.31,2.55.3,5.12.17,7.68.2,1.62.01,3.23.2,4.8.57,4.8,1.13,7.36,4.37,7.21,9.3-.13,4.1-1.73,7.48-5.27,9.78-1.94,1.26-4.18,1.38-6.37,1.64-2.97.34-5.95.47-8.93.6Z"/>
    <path class="cls-1" d="m60.73,40.02h-13.01c-1.52,0-2.73.41-3.72,1.66-1.38,1.75-3.87,1.83-5.59.31-1.66-1.49-1.81-4.05-.34-5.73,1.41-1.65,3.89-1.84,5.54-.44,1.09,1.03,2.54,1.59,4.04,1.54,7.53-.04,15.07-.02,22.61-.03.32,0,.79.18.95-.2s-.28-.59-.49-.85c-1.52-1.94-3.09-3.85-4.58-5.81-.56-.83-1.5-1.33-2.5-1.31h-10.16c-1.26,0-2.18.66-3.04,1.52-1.54,1.61-4.08,1.66-5.69.13-1.61-1.54-1.66-4.08-.13-5.69.25-.26.53-.48.83-.67,1.64-1.08,3.49-1.06,4.77.33s2.76,1.75,4.52,1.71c3.26-.05,6.52,0,9.78-.03,1.42-.06,2.76.63,3.53,1.83,1.88,2.62,4.04,5.03,5.95,7.63.72.96,1.86,1.49,3.06,1.43,4.72-.03,9.43-.02,14.15,0,1.17,0,1.65.35,1.72,1.19s-.31,1.37-1.15,1.45c-.66.08-1.33.07-1.99-.03-5.24-.97-8.43,1.45-10.32,5.93-.46,1.28-1.07,2.5-1.81,3.65-1.36,2.09-3.89,3.1-6.31,2.53-1.84-.35-3.24-.05-4.48,1.42s-3.58,1.53-5.08.32c-1.97-1.59-2.14-3.6-1.04-5.39,1.36-2.21,3.98-2.57,6.09-.93.62.54,1.32.99,2.06,1.35,2.54,1.08,5.1.52,6.68-1.72.98-1.39,2.04-2.74,2.9-4.21,1.14-1.94.46-3.21-1.81-3.06-4.33.29-8.67.13-13,.18-.97,0-1.95,0-2.93,0Z"/>
    <path class="cls-1" d="m60.42,4.08C60.42,1.83,62.25,0,64.51,0c2.25,0,4.08,1.83,4.08,4.08,0,2.18-1.96,4.18-4.1,4.16-2.26-.05-4.06-1.9-4.07-4.16Z"/>
    <path class="cls-1" d="m64.16,77.65c-2.22-.04-3.98-1.88-3.94-4.1.04-2.12,1.73-3.84,3.85-3.93,2.22-.08,4.09,1.66,4.17,3.88,0,.07,0,.15,0,.22,0,2.29-1.72,3.94-4.08,3.93Z"/>
    <path class="cls-1" d="m72.14,65.87c-2.48,0-4.11-1.56-4.11-3.95,0-2.24,1.82-4.05,4.06-4.05.02,0,.04,0,.05,0,2.27,0,3.9,1.67,3.93,4,0,2.45-1.52,4-3.93,4Z"/>
    <path class="cls-1" d="m56.54,19.48c-2.18,0-4.06-1.77-4.07-3.81-.09-2.21,1.62-4.08,3.83-4.18.09,0,.17,0,.26,0,2.17-.07,3.99,1.63,4.06,3.8,0,.03,0,.06,0,.09.04,2.22-1.73,4.05-3.95,4.1-.05,0-.09,0-.14,0Z"/>
    <path class="cls-1" d="m72.09,11.48c2.38,0,3.96,1.61,3.97,4.03.1,2.09-1.52,3.87-3.61,3.96-.11,0-.21,0-.32,0-2.19.05-4.01-1.69-4.06-3.89,0-.04,0-.08,0-.12-.06-2.14,1.62-3.92,3.76-3.98.09,0,.18,0,.27,0Z"/>
    <path class="cls-1" d="m33,31.25c-1.83.1-3.4-1.31-3.5-3.14,0-.13,0-.26,0-.39.02-2.01,1.36-3.28,3.49-3.31,1.81-.12,3.37,1.25,3.49,3.06,0,.06,0,.13,0,.19-.02,2.1-1.44,3.57-3.49,3.59Z"/>
    <path class="cls-1" d="m52.45,73.73c0,2.01-1.37,3.34-3.44,3.34s-3.41-1.31-3.41-3.34,1.23-3.47,3.06-3.49c2.43,0,3.8,1.26,3.79,3.49Z"/>
    <path class="cls-1" d="m49.03,7.5c-2.11,0-3.54-1.42-3.52-3.49.1-1.85,1.64-3.3,3.49-3.3,2.01.04,3.49,1.46,3.49,3.38-.02,2.11-1.33,3.42-3.46,3.42Z"/>
    <path class="cls-1" d="m43.92,15.48c0,2.04-1.38,3.42-3.38,3.39-2.14-.03-3.46-1.35-3.44-3.42s1.34-3.38,3.49-3.38c2.06,0,3.35,1.32,3.33,3.41Z"/>
    <path class="cls-1" d="m52.46,50.57c.07,1.76-1.29,3.25-3.05,3.32-.1,0-.2,0-.3,0-2.18,0-3.6-1.36-3.61-3.49,0-1.77,1.75-3.32,3.72-3.31,1.84,0,3.24,1.52,3.24,3.48Z"/>
    <path class="cls-1" d="m56.5,58.6c2.18,0,3.55,1.23,3.54,3.31.04,1.83-1.4,3.35-3.23,3.39-.1,0-.2,0-.3,0-2.18-.06-3.31-1.17-3.31-3.37s1.07-3.33,3.29-3.33Z"/>
    <path class="cls-1" d="m33.06,53.88c-2.29,0-3.59-1.35-3.54-3.64.15-1.78,1.62-3.16,3.41-3.18,1.93-.01,3.51,1.54,3.52,3.47,0,0,0,.02,0,.03-.04,1.56-1.13,3.43-3.39,3.33Z"/>
    <path class="cls-1" d="m21.84,38.87c0-2.07,1.28-3.26,3.47-3.27s3.4,1.27,3.39,3.45c0,1.93-1.34,3.23-3.33,3.24-2.22.01-3.53-1.24-3.53-3.42Z"/>
    <path class="cls-1" d="m30.59,73.66c-.04-1.3.98-2.38,2.27-2.42.03,0,.06,0,.09,0,1.33,0,2.4,1.08,2.4,2.41,0,0,0,.01,0,.02,0,1.49-.94,2.44-2.33,2.41-1.58-.03-2.45-.91-2.43-2.42Z"/>
    <path class="cls-1" d="m17.43,48.18c1.38.02,2.35.93,2.33,2.18-.03,1.66-.92,2.57-2.5,2.54-1.43-.03-2.28-.95-2.26-2.45.02-1.41.96-2.29,2.43-2.27Z"/>
    <path class="cls-1" d="m38.76,61.88c0-1.46.87-2.3,2.42-2.28,1.22-.08,2.28.85,2.35,2.08,0,.11,0,.22,0,.33,0,1.29-1.06,2.33-2.35,2.32-.04,0-.08,0-.13,0-1.44,0-2.29-.91-2.29-2.44Z"/>
    <path class="cls-1" d="m16.18,38.63c.09,1.26-.86,2.35-2.13,2.44-.07,0-.14,0-.21,0-1.28.06-2.37-.94-2.43-2.22,0-.05,0-.1,0-.15-.03-1.46.87-2.34,2.36-2.35,1.59,0,2.38.76,2.41,2.27Z"/>
    <path class="cls-1" d="m25.33,17.78c-1.57,0-2.45-.83-2.46-2.36,0-1.41.87-2.24,2.36-2.24,1.57,0,2.45.8,2.48,2.25s-.86,2.35-2.38,2.36Z"/>
    <path class="cls-1" d="m30.59,4.15c0-1.49.87-2.38,2.34-2.37,1.59,0,2.42.83,2.42,2.38-.01,1.29-1.04,2.35-2.34,2.38-1.33-.01-2.4-1.08-2.43-2.4Z"/>
    <path class="cls-1" d="m17.38,30.14c-1.58,0-2.32-.82-2.4-2.4-.07-1.42,1.37-2.31,2.38-2.33,1.3-.02,2.38,1.01,2.41,2.32,0,.02,0,.05,0,.07,0,1.43-.9,2.34-2.38,2.34Z"/>
    <path class="cls-1" d="m25.24,63.76c-.96.05-1.79-.68-1.84-1.64,0-.07,0-.14,0-.21,0-1.18.7-1.81,1.96-1.78.98-.03,1.8.75,1.83,1.74,0,.04,0,.08,0,.12-.02,1-.85,1.8-1.85,1.78-.03,0-.06,0-.09,0Z"/>
    <path class="cls-1" d="m13.81,17.01c-.83.06-1.55-.57-1.61-1.41,0-.06,0-.12,0-.18.04-.89.78-1.6,1.67-1.59.88.03,1.57.77,1.54,1.65,0,.02,0,.03,0,.05.02.8-.6,1.46-1.4,1.49-.06,0-.13,0-.19,0Z"/>
    <path class="cls-1" d="m15.4,62.02c0,.93-.61,1.44-1.75,1.45-.81-.05-1.44-.73-1.43-1.55-.04-.82.59-1.53,1.42-1.57.04,0,.09,0,.13,0,.85-.05,1.58.59,1.63,1.44,0,.08,0,.16,0,.24Z"/>
    <path class="cls-1" d="m5.71,29.37c-.97,0-1.61-.6-1.6-1.48-.04-.83.61-1.54,1.44-1.58.06,0,.13,0,.19,0,.86-.01,1.58.66,1.62,1.52.03.93-.64,1.55-1.66,1.54Z"/>
    <path class="cls-1" d="m5.63,52.13c-.87,0-1.47-.74-1.45-1.75.04-.82.74-1.46,1.56-1.42.04,0,.08,0,.11,0,.81.07,1.46.72,1.51,1.53-.04.93-.81,1.65-1.74,1.62Z"/>
    <path class="cls-1" d="m1.55,40.4C.5,40.4-.02,39.87,0,38.84c0-.82.68-1.49,1.5-1.48.04,0,.07,0,.11,0,.81,0,1.46.66,1.45,1.47,0,.02,0,.05,0,.07,0,.99-.49,1.49-1.51,1.49Z"/>
  </g>
</svg>