<?xml version="1.0" encoding="UTF-8"?>
<svg id="Layer_2" data-name="Layer 2" xmlns="http://www.w3.org/2000/svg" viewBox="0 0 200 236.11">
  <defs>
    <style>
      .cls-1 {
        fill: #040504;
        fill-rule: evenodd;
      }
    </style>
  </defs>
  <g id="Capa_1" data-name="Capa 1">
    <path class="cls-1" d="m138.05,185.51l.09,22.82c.19,2.19.47,3.42.9,4.32,3.08,6.74,13.76,6.12,19.96,2.1l-2.75-5.74c-2.04.76-4.46,2.46-7.35,1.58-2.56-.76-2.37-3.8-2.37-6.79v-18.48l17.22.05,13.86,31.6c.28,1.38-2.8,6.83-3.47,7.73-4.79,6.74-9.25,3.89-13.1,3.04l-1.9,6.83c7.31,2.8,14.95,1.75,19.22-2.89,3.79-4.13,5.98-9.92,8.35-16.37l13.28-36.73h-8.83l-9.33,28.26c-.95-1.05-8.16-19.12-9.49-22.2-1.8-4.18-4.41-5.98-9.98-6.03-5.22-.05-10.51,0-15.84,0v-11.36c-1.85.43-7.12,1.99-8.49,2.71v8.52l-6.83.09.05,6.79,6.8.16ZM120.71,0c43.6,0,72.26,35.06,64,78.38-8.26,43.32-50.32,78.38-93.92,78.38S18.49,121.7,26.74,78.38,77.08,0,120.73,0h-.02Zm20.84,10.15c27,9.46,42.66,36.44,36.58,68.22-7.07,37.05-41.14,67.57-78.14,71.45-2.94-.09-2.99-1.75-3.08-4.2.14-5.12.33-10.3.47-15.42.05-.76-.24-1-.57-1.09-3.82-.41-7.58-1.21-11.24-2.37-4.22-1.75-8.26-3.91-12.05-6.46-1.85-.9-1.61-5.17-1.58-6.83.33-3.04,2.56-10.11,6.17-10.44,4.32-.24,6.36,2.04,10.63,4.13,7.5,3.56,17.98,5.64,25.74,1.99,3.75-2.28,4.65-5.36,2.89-9.25-3.04-6.36-17.6-11.56-24.2-14.76-15.8-6.74-24.62-20.4-21.83-36.68,2.1-12,13.33-21.11,25.1-22.77v-5.76c-14.51,4.2-25.57,12.58-35.49,22.3-14.35,14.04-22.79,31.79-23.48,54.47,1.13,27.75,15.56,40.04,30.65,49.25-25.92-10.03-40.73-36.49-34.8-67.57C40.6,40.31,76.28,9.2,114.47,6.69c1.52.9,1.61,1.05,2.42,3.08-.33,4.79-.62,9.59-.95,14.38,7.54,1.52,14.66,3.68,20.4,8.54.19,11.03-8.07,15.61-11.2,13.95.14-.53-12.43-3.99-15.04-4.6-3.19-.61-6.49-.23-9.46,1.09-3.68,1.75-5.46,4.37-3.68,8.44,1.51,3.04,4.03,5.03,6.78,6.74,7.92,4.27,15.85,8.59,23.77,12.85,6.83,3.85,11.72,8.83,14.85,14.85,2.28,5.8,2.79,12.14,1.47,18.22-1.58,5.03-3.46,9.39-6.36,12.15-2.24,2.59-4.93,4.76-7.93,6.4-4.03,2.13-8.06,4.03-12.24,4.7-.14,2.56-.24,5.07-.38,7.64.34.14.72.14,1.05,0,8.97-2.89,16.84-7.97,24.53-13.52,9.98-8.78,19.26-17.98,24.16-29.89,3.6-7.1,6-14.75,7.12-22.63,2.71-24.2-6.12-46.97-32.22-58.93h-.02ZM41.26,178.58l.09-8.44c-.09-2.99,2.63-7.64,6.3-9.35,3.42-1.58,9.92-1.66,13.13.43l-1.58,6.69c-9.63-2.13-9.58-.33-9.58,10.67h10.51l-2.68,6.71-7.78.05v31.52c-1.58.19-7.02.28-8.41-.09v-31.36l-4.2-.09-2.63-6.65,6.82-.08Zm56.65,20.17c.53,22.54,25.01,21.3,31.6,15.32-.24-.95-1.9-5.17-2.46-5.74-4.51,1.85-8.93,3.94-14.38,1.23-8.49-4.18-7.88-19.96.71-23.91,3.32-1.52,7.92-1.38,11.38.09,1.23.57,2.13,1.19,3.15,1.61v-7.32c-5.03-1.99-8.68-3.32-15.04-1.9-9.58,2.23-15.13,11.01-14.95,20.59h-.02Zm-89.3-5.04c.62-5.13,2.56-9.35,8.02-9.46,5.25-.09,7.78,4.27,8.02,9.54l-16.04-.08Zm23.53,20.35l-2.37-5.6c-2.23.62-3.61,1.71-6.5,2.23-7.54,1.28-14.38-2.23-14.52-10.82h24.55c0-8.59-1.52-18.46-11.11-21.45-4.41-1.42-9.82-.9-13.47,1.28-13.29,7.97-12.61,38.29,10.68,38.01,4.45-.05,10.15-1.28,12.76-3.68l-.02.02Zm36.73-20.26c.43-5.17,2.8-9.49,8.11-9.54,5.13,0,7.73,4.46,7.78,9.54h-15.89Zm-8.54,5.5c.9,14.18,11.91,20.88,25.43,17.7,2.99-.71,4.41-1.85,6.65-2.63l-2.37-5.96c-3.41,1.05-7.83,3.99-14,1.85-4.08-1.47-6.92-5.03-7.07-10.34l24.57-.05c0-11.2-3.37-22.16-16.28-22.25-12.61-.14-17.6,10.51-16.94,21.68h0Z"/>
  </g>
</svg>