<?xml version="1.0" encoding="UTF-8"?>
<svg id="Layer_2" data-name="Layer 2" xmlns="http://www.w3.org/2000/svg" viewBox="0 0 200 61.68">
  <defs>
    <style>
      .cls-1 {
        fill: #e65f41;
      }

      .cls-2 {
        fill: #ed9b7f;
      }

      .cls-3 {
        fill: #e76344;
      }

      .cls-4 {
        fill: #eb8a6c;
      }

      .cls-5 {
        fill: #e4201d;
      }

      .cls-6 {
        fill: #164584;
      }

      .cls-7 {
        fill: #396796;
      }

      .cls-8 {
        fill: #da1d1f;
      }

      .cls-9 {
        fill: #eef2f7;
      }

      .cls-10 {
        fill: #de2621;
      }

      .cls-11 {
        fill: #002159;
      }

      .cls-12 {
        fill: #62719d;
      }

      .cls-13 {
        fill: #7081b2;
      }

      .cls-14 {
        fill: #e43f29;
      }

      .cls-15 {
        fill: #1b447f;
      }

      .cls-16 {
        fill: #ec1818;
      }

      .cls-17 {
        fill: #dd4b33;
      }

      .cls-18 {
        fill: #faa626;
      }

      .cls-19 {
        fill: #e03225;
      }

      .cls-20 {
        fill: #e91919;
      }

      .cls-21 {
        fill: #fcfdfd;
      }

      .cls-22 {
        fill: #e46d4c;
      }

      .cls-23 {
        fill: #e05e42;
      }

      .cls-24 {
        fill: #f9a977;
      }

      .cls-25 {
        fill: #ee1616;
      }

      .cls-26 {
        fill: #fedabc;
      }

      .cls-27 {
        fill: #032056;
      }

      .cls-28 {
        fill: #f09779;
      }

      .cls-29 {
        fill: #8b96ba;
      }

      .cls-30 {
        fill: #fef300;
      }

      .cls-31 {
        fill: #ed620f;
      }

      .cls-32 {
        fill: #030634;
      }

      .cls-33 {
        fill: #4987c5;
      }

      .cls-34 {
        fill: #e81a1a;
      }

      .cls-35 {
        fill: #0c1648;
      }

      .cls-36 {
        fill: #db452b;
      }

      .cls-37 {
        fill: #d0d4e2;
      }

      .cls-38 {
        fill: #ec8362;
      }

      .cls-39 {
        fill: #6193cb;
      }

      .cls-40 {
        fill: #919db9;
      }

      .cls-41 {
        fill: #435889;
      }

      .cls-42 {
        fill: #003a7e;
      }

      .cls-43 {
        fill: #e22520;
      }

      .cls-44 {
        fill: #375c98;
      }

      .cls-45 {
        fill: #fedebd;
      }

      .cls-46 {
        fill: #821310;
      }

      .cls-47 {
        fill: #6f9acd;
      }

      .cls-48 {
        fill: #415d97;
      }

      .cls-49 {
        fill: #d1d5e4;
      }

      .cls-50 {
        fill: #4686c5;
      }

      .cls-51 {
        fill: #4c93c7;
      }

      .cls-52 {
        fill: #e21d1e;
      }

      .cls-53 {
        fill: #e37255;
      }

      .cls-54 {
        fill: #c6daf0;
      }

      .cls-55 {
        fill: #1a599c;
      }

      .cls-56 {
        fill: #e41a1b;
      }

      .cls-57 {
        fill: #010329;
      }

      .cls-58 {
        fill: #003e83;
      }

      .cls-59 {
        fill: #eb7e5e;
      }

      .cls-60 {
        fill: #04458b;
      }

      .cls-61 {
        fill: #578cc7;
      }

      .cls-62 {
        fill: #e25439;
      }

      .cls-63 {
        fill: #003a7d;
      }

      .cls-64 {
        fill: #123067;
      }

      .cls-65 {
        fill: #979fbc;
      }

      .cls-66 {
        fill: #00306d;
      }

      .cls-67 {
        fill: #000c42;
      }

      .cls-68 {
        fill: #181444;
      }

      .cls-69 {
        fill: #002864;
      }

      .cls-70 {
        fill: #f59053;
      }

      .cls-71 {
        fill: #e45a3d;
      }

      .cls-72 {
        fill: #fdeedb;
      }

      .cls-73 {
        fill: #ec977a;
      }

      .cls-74 {
        fill: #4f85c3;
      }

      .cls-75 {
        fill: #e97859;
      }

      .cls-76 {
        fill: #002964;
      }

      .cls-77 {
        fill: #00397b;
      }

      .cls-78 {
        fill: #4382c3;
      }

      .cls-79 {
        fill: #e53224;
      }

      .cls-80 {
        fill: #301e4a;
      }

      .cls-81 {
        fill: #979fbf;
      }

      .cls-82 {
        fill: #003b7e;
      }

      .cls-83 {
        fill: #05184d;
      }

      .cls-84 {
        fill: #f99800;
      }

      .cls-85 {
        fill: #1a1646;
      }

      .cls-86 {
        fill: #457fc0;
      }

      .cls-87 {
        fill: #821a0c;
      }

      .cls-88 {
        fill: #010d41;
      }

      .cls-89 {
        fill: #eb1817;
      }

      .cls-90 {
        fill: #060e40;
      }

      .cls-91 {
        fill: #dc3528;
      }

      .cls-92 {
        fill: #071b50;
      }

      .cls-93 {
        fill: #e35034;
      }

      .cls-94 {
        fill: #7583ad;
      }

      .cls-95 {
        fill: #d92623;
      }

      .cls-96 {
        fill: #be2c19;
      }

      .cls-97 {
        fill: #d92a1f;
      }

      .cls-98 {
        fill: #294678;
      }

      .cls-99 {
        fill: #000637;
      }

      .cls-100 {
        fill: #0a1e52;
      }

      .cls-101 {
        fill: #ea794d;
      }

      .cls-102 {
        fill: #0b3f80;
      }

      .cls-103 {
        fill: #e14915;
      }

      .cls-104 {
        fill: #e57759;
      }

      .cls-105 {
        fill: #00468f;
      }

      .cls-106 {
        fill: #002b68;
      }

      .cls-107 {
        fill: #131142;
      }

      .cls-108 {
        fill: #ed7856;
      }

      .cls-109 {
        fill: #252f5c;
      }

      .cls-110 {
        fill: #3e6a99;
      }

      .cls-111 {
        fill: #6a1205;
      }

      .cls-112 {
        fill: #e91a19;
      }

      .cls-113 {
        fill: #e26649;
      }

      .cls-114 {
        fill: #eb1818;
      }

      .cls-115 {
        fill: #fab244;
      }

      .cls-116 {
        fill: #3d466f;
      }

      .cls-117 {
        fill: #ea9275;
      }

      .cls-118 {
        fill: #e0eaf6;
      }

      .cls-119 {
        fill: #87b6e1;
      }

      .cls-120 {
        fill: #e8191a;
      }

      .cls-121 {
        fill: #b8bed3;
      }

      .cls-122 {
        fill: #003d81;
      }

      .cls-123 {
        fill: #0e356c;
      }

      .cls-124 {
        fill: #60719b;
      }

      .cls-125 {
        fill: #061145;
      }

      .cls-126 {
        fill: #000434;
      }

      .cls-127 {
        fill: #002c6a;
      }

      .cls-128 {
        fill: #211848;
      }

      .cls-129 {
        fill: #02255e;
      }

      .cls-130 {
        fill: #f9a218;
      }

      .cls-131 {
        fill: #e67d5e;
      }

      .cls-132 {
        fill: #00438a;
      }

      .cls-133 {
        fill: #e1432c;
      }

      .cls-134 {
        fill: #e36f51;
      }

      .cls-135 {
        fill: #d52224;
      }

      .cls-136 {
        fill: #2763a2;
      }

      .cls-137 {
        fill: #93bae3;
      }

      .cls-138 {
        fill: #eb8667;
      }

      .cls-139 {
        fill: #a82016;
      }

      .cls-140 {
        fill: #e01c1d;
      }

      .cls-141 {
        fill: #e82216;
      }

      .cls-142 {
        fill: #fee4c6;
      }

      .cls-143 {
        fill: #df2e24;
      }

      .cls-144 {
        fill: #f37302;
      }

      .cls-145 {
        fill: #01255e;
      }

      .cls-146 {
        fill: #6091c9;
      }

      .cls-147 {
        fill: #e4231c;
      }

      .cls-148 {
        fill: #e56749;
      }

      .cls-149 {
        fill: #fde2cd;
      }

      .cls-150 {
        fill: #fbb654;
      }

      .cls-151 {
        fill: #356093;
      }

      .cls-152 {
        fill: #fbfbfb;
      }

      .cls-153 {
        fill: #003576;
      }

      .cls-154 {
        fill: #dd4730;
      }

      .cls-155 {
        fill: #001147;
      }

      .cls-156 {
        fill: #0f4180;
      }

      .cls-157 {
        fill: #105298;
      }

      .cls-158 {
        fill: #d9dce8;
      }

      .cls-159 {
        fill: #3a446d;
      }

      .cls-160 {
        fill: #2f5899;
      }

      .cls-161 {
        fill: #fbb247;
      }

      .cls-162 {
        fill: #5f73a6;
      }

      .cls-163 {
        fill: #e7191a;
      }

      .cls-164 {
        fill: #071d54;
      }

      .cls-165 {
        fill: #291d49;
      }

      .cls-166 {
        fill: #050c3c;
      }

      .cls-167 {
        fill: #d71e20;
      }

      .cls-168 {
        fill: #6f7ca2;
      }

      .cls-169 {
        fill: #051246;
      }

      .cls-170 {
        fill: #051b50;
      }

      .cls-171 {
        fill: #07194d;
      }

      .cls-172 {
        fill: #f19c7f;
      }

      .cls-173 {
        fill: #9aa4c7;
      }

      .cls-174 {
        fill: #cf3417;
      }

      .cls-175 {
        fill: #002d6a;
      }

      .cls-176 {
        fill: #ec6f50;
      }

      .cls-177 {
        fill: #f09e82;
      }

      .cls-178 {
        fill: #ef1616;
      }

      .cls-179 {
        fill: #05194f;
      }

      .cls-180 {
        fill: #fafbfd;
      }

      .cls-181 {
        fill: #e88465;
      }

      .cls-182 {
        fill: #003373;
      }

      .cls-183 {
        fill: #de533a;
      }

      .cls-184 {
        fill: #eaf1f8;
      }

      .cls-185 {
        fill: #01397b;
      }

      .cls-186 {
        fill: #f9a671;
      }

      .cls-187 {
        fill: #e43a28;
      }

      .cls-188 {
        fill: #ee1716;
      }

      .cls-189 {
        fill: #eb8e71;
      }

      .cls-190 {
        fill: #004086;
      }

      .cls-191 {
        fill: #f78b05;
      }

      .cls-192 {
        fill: #ed1816;
      }

      .cls-193 {
        fill: #e26145;
      }

      .cls-194 {
        fill: #ec1a16;
      }

      .cls-195 {
        fill: #3d73a4;
      }

      .cls-196 {
        fill: #529fd6;
      }

      .cls-197 {
        fill: #4b91c5;
      }

      .cls-198 {
        fill: #e5422b;
      }

      .cls-199 {
        fill: #fef7f3;
      }

      .cls-200 {
        fill: #022159;
      }

      .cls-201 {
        fill: #e81a19;
      }

      .cls-202 {
        fill: #0a174b;
      }

      .cls-203 {
        fill: #004791;
      }

      .cls-204 {
        fill: #e5edf7;
      }

      .cls-205 {
        fill: #1b3f75;
      }

      .cls-206 {
        fill: #d82a25;
      }

      .cls-207 {
        fill: #dc1f20;
      }

      .cls-208 {
        fill: #e3472e;
      }

      .cls-209 {
        fill: #3a6a9b;
      }

      .cls-210 {
        fill: #a5c5e8;
      }

      .cls-211 {
        fill: #5c91ca;
      }

      .cls-212 {
        fill: #c0c6da;
      }

      .cls-213 {
        fill: #5aa2d7;
      }

      .cls-214 {
        fill: #78aede;
      }

      .cls-215 {
        fill: #da392b;
      }

      .cls-216 {
        fill: #e24b32;
      }

      .cls-217 {
        fill: #de2a23;
      }

      .cls-218 {
        fill: #06194e;
      }

      .cls-219 {
        fill: #00184e;
      }

      .cls-220 {
        fill: #e03527;
      }

      .cls-221 {
        fill: #03174d;
      }

      .cls-222 {
        fill: #ec1918;
      }

      .cls-223 {
        fill: #011b52;
      }

      .cls-224 {
        fill: #dc3227;
      }

      .cls-225 {
        fill: #022863;
      }

      .cls-226 {
        fill: #df593e;
      }

      .cls-227 {
        fill: #1c2554;
      }

      .cls-228 {
        fill: #3e609d;
      }

      .cls-229 {
        fill: #012f6d;
      }

      .cls-230 {
        fill: #de3a29;
      }

      .cls-231 {
        fill: #ee9375;
      }

      .cls-232 {
        fill: #7ba4d2;
      }

      .cls-233 {
        fill: #4d89c6;
      }

      .cls-234 {
        fill: #181343;
      }

      .cls-235 {
        fill: #d72022;
      }

      .cls-236 {
        fill: #003474;
      }

      .cls-237 {
        fill: #ed5e0d;
      }

      .cls-238 {
        fill: #e85b3d;
      }

      .cls-239 {
        fill: #e88061;
      }

      .cls-240 {
        fill: #8e98ba;
      }

      .cls-241 {
        fill: #e4ebf3;
      }

      .cls-242 {
        fill: #da2e26;
      }

      .cls-243 {
        fill: #61a4d9;
      }

      .cls-244 {
        fill: #fdcba6;
      }

      .cls-245 {
        fill: #6878a1;
      }

      .cls-246 {
        fill: #df4f36;
      }

      .cls-247 {
        fill: #fefefe;
      }

      .cls-248 {
        fill: #416f9f;
      }

      .cls-249 {
        fill: #8d96b8;
      }

      .cls-250 {
        fill: #002762;
      }

      .cls-251 {
        fill: #bdd4ed;
      }

      .cls-252 {
        fill: #002a66;
      }
    </style>
  </defs>
  <g id="Capa_1" data-name="Capa 1">
    <g id="skfrQo">
      <g>
        <path class="cls-178" d="m197.16,37.13c-2.42,7.82-7.77,12.56-15.64,14.53-1.61.4-3.33.55-4.99.55H44.54c-.66,0-1.41.3-2.02-.3-.55-1.61.81-2.57,1.26-3.88,1.01-2.67,1.46-5.45,1.06-8.32-.05-.4-.05-.76.1-1.16.1-.2.25-.4.4-.5,1.01-.4,2.02-.45,3.03.1.61.71.5,1.56.55,2.37.05,1.56,0,3.08,0,4.64,0,1.31.55,1.87,1.87,1.87,4.84,0,9.69.2,14.53-.05,5.9-.3,9.49-3.94,10.09-9.79.05-.5.05-1.01.2-1.51.15-.3.35-.55.71-.55.76.61.86,1.56,1.16,2.42,2.72,7.57,9.89,11.05,17.51,8.43,1.26-.45,2.27-.76,3.23.61.45.66,3.99.76,4.69.3.5-.35.55-.86.55-1.36,0-4.49.1-8.93-.05-13.42-.05-1.77-.71-3.43-1.56-4.94-.4-.71-1.01-1.41-.66-2.32,1.21-.91,2.42-.81,3.68-.15.66.91.4,2.02.45,3.03.1,2.62-.2,5.3.15,7.92.35,1.97.86,3.88,1.97,5.6,2.93,4.44,7.16,6.1,12.31,5.9,1.16-.05,1.56-.61,1.61-1.72.05-1.41-.25-2.83.3-4.24.1-.2.3-.25.5-.3.71.15,1.01.76,1.46,1.21,6.36,7.52,18.06,6.1,22.55-2.72.4-.76.5-1.77,1.51-2.17.76-.2,1.46-.05,2.07.5,1.61,2.88,3.33,5.65,6.31,7.42,2.52,1.56,5.25,2.07,8.17,1.97,1.06-.05,1.56-.55,1.56-1.56v-.76q.05-3.08-2.98-3.23c-2.22-.1-4.19-.91-5.7-2.57-.55-.61-1.26-1.26-.3-2.12,2.72-.55,5.5-.25,8.22-.2,1.06.2,1.36,1.06,1.72,1.92,3.08,7.52,11.4,10.6,18.52,6.76,2.93-1.56,5.1-3.99,6.41-7.06.35-.81.5-1.77,1.41-2.27.86-.3,1.77-.3,2.67-.15.71.15,1.41.3,1.36,1.31Z"/>
        <path class="cls-196" d="m10.18,13.32c.81-.45.1-1.41.71-1.92.45.71.15,1.51.2,2.52.1-3.08.2-5.95.35-8.83.15-.35.45-.4.81-.3,2.27.61,4.64.86,6.91,1.51.86,1.51.5,2.98-.35,4.34-.96,1.51-2.17,2.88-3.18,4.39-2.88,4.09-5.9,8.07-8.43,12.41-.5.76-1.06,1.56-2.12,1.31-1.01-.25-1.01-1.21-1.16-2.02-1.01-5.1-1.97-10.19-2.93-15.29-.05-.25.05-.5.15-.76,2.42-.25,4.79-.5,7.21-.71,1.72.55,1.16,2.12,1.46,3.33q.05.2.2.25c-.05-.1.05-.15.15-.25Z"/>
        <path class="cls-167" d="m183.49,10.7c2.42.76,4.49,2.17,6.61,3.53-.55,1.21-1.87.81-2.72,1.26-2.37-.5-4.34-2.17-6.81-2.47-.76-.3-1.56-.35-2.37-.5-1.51-.3-3.03-.1-4.49-.15-1.11.05-2.27-.05-3.38,0-.91.05-1.87-.1-2.77,0-1.16.05-2.32-.05-3.48,0s-2.32-.05-3.48,0c-.81.05-1.61,0-2.42,0-1.26.1-2.57,0-3.83,0-1.16.05-2.32,0-3.48,0-1.16.1-2.32-.05-3.48,0s-2.32-.05-3.48,0c-.91.05-1.87-.05-2.77,0-1.41.05-2.77,0-4.19,0-.81.05-1.61-.05-2.47,0-1.16.05-2.37-.05-3.53,0-1.92.05-3.83,0-5.75,0-1.41.1-2.88-.05-4.29,0-1.56.05-3.08-.05-4.64,0-.96.1-1.92-.1-2.83,0-1.77.05-3.58-.05-5.35,0-1.11.1-2.17-.1-3.28,0-3.33,0-6.61.05-9.94,0-1.56.1-3.18-.05-4.74,0-1.56.05-3.13-.05-4.74,0-1.97.1-3.88-.05-5.85,0-2.42.05-4.79,0-7.21,0h-21.04c-.66,0-1.77-.35-1.26,1.06-.15.91-1.06.71-1.61,1.01-.2.1-.45.1-.71.15-4.99.05-10.04.4-15.04-.15-.76-1.51.4-3.43,2.47-4.04h142.78c1.92.05,3.73.61,5.6.3Z"/>
        <path class="cls-235" d="m183.49,10.7c-.61.61-1.36.35-2.02.35H36.87c-.76,0-1.56.3-2.17-.4,0-.61.3-.96.91-.91h141.32c.86,0,1.66-.15,2.52.15,1.41-.05,2.67.66,4.04.81Z"/>
        <path class="cls-155" d="m35.51,58.48c-1.26,1.31-2.93,1.87-4.64,2.32-.4.25-.76.1-1.11-.05-1.36-.5-2.83-.15-4.24-.45-8.02-1.61-14.43-5.6-18.87-12.56-.55-.91-.81-1.92-.96-2.93-.05-.96-.5-1.87-.35-2.83.15-.86.35-1.72.35-2.52-.55.2.61,1.61-.76,1.46-.1-.55-.1-1.11.1-1.61.05-3.78,1.66-7.01,3.88-9.99.61-.15.61.3.66.71-.3,1.21-1.06,2.27-1.51,3.43-2.47,5.25-1.87,12.46,3.28,16.75,3.63,3.03,7.42,5.8,11.91,7.47,3.58,1.31,7.21,1.41,10.75-.2.86-.1,1.66-.25,1.51,1.01Z"/>
        <path class="cls-135" d="m179.4,9.89c-.96,0-1.97.05-2.93.05H35.2c-.1-.1-.15-.2-.1-.25.1-.2.25-.15.4-.1.86,0,1.66.05,2.52.05h138.7c.91-.05,1.82-.25,2.67.25Z"/>
        <path class="cls-34" d="m196.35,22.75c1.61,3.13,2.17,6.41,1.61,9.84-.66-1.31-1.77-1.72-3.18-1.56-.55.05-1.16,0-1.72-.2-1.56-1.87-2.72-3.94-3.28-6.31.71-.45,1.46-.35,2.22-.4.71-.05,1.46.15,1.92-.61.61-.81,1.41-1.16,2.42-.76Z"/>
        <path class="cls-222" d="m192.87,30.52c.96,0,1.97.1,2.88,0,1.72-.25,2.37.45,2.22,2.12.05,1.56-.15,3.08-.86,4.54-1.16-1.51-2.83-.45-4.24-.81-.4-1.97-.61-3.94,0-5.85Z"/>
        <path class="cls-179" d="m35.51,9.54c-.1.15-.2.25-.3.4-.15.25-.35.5-.5.71-.81,1.16-1.61,2.37-2.37,3.53-.15,1.21-1.11,1.97-1.61,2.98-.81,1.21-1.87,2.32-2.52,3.68-.25.45.3,1.06-.3,1.41-.45.2-.91.15-1.36-.1-.81-1.06-.4-2.12.2-3.03,2.57-3.99,4.99-8.07,8.32-11.5.3-.3.61-.61.76-1.01.2-.45.35-.96.35-1.46.05-.45.05-.91.2-1.31.15-.25.3-.45.66-.4.05.2.05.45.1.66.2.81.25,1.66-.05,2.47-.05,1.16-1.21,1.87-1.56,2.98Z"/>
        <path class="cls-33" d="m1.2,10.7c1.01,5.2,1.97,10.44,2.98,15.64.15.76,0,1.87,1.01,2.12s1.21-.96,1.87-1.46c.4-.3.81-.3,1.16,0,0,.15-.05.25-.05.4-.2.5-.66.71-1.01,1.11-.76,1.06-1.46,2.12-2.88,2.42C2.81,24.12,1.5,17.26.39,10.34c-.25-.86-.2-1.66,0-2.52.05-.2.05-.4.1-.61.35-.1.5.1.61.35s.15.5.15.81c0,.25,0,.5.05.81-.05.5.2,1.01-.1,1.51Z"/>
        <path class="cls-170" d="m15.53,19.93c1.26-1.87,2.47-3.73,3.73-5.55,2.62-3.83,5.3-7.72,7.97-11.55.4-.55.96-1.01,1.41-1.51.25-.1.5-.05.66.2.05.15.05.35,0,.5-.3.71-.66,1.41-1.11,2.07-3.83,5.15-7.32,10.54-11.1,15.79-.2.25-.25.61-.4.86-.2.4-.45.66-.96.61-.55-.4-.4-.91-.2-1.41Z"/>
        <path class="cls-166" d="m28.04,61.5c-9.18,1.11-17.41-3.18-21.29-11.2-.45-.96-1.01-1.97-.96-3.08,1.06-.05,1.06.91,1.36,1.51.35.61.61,1.26.96,1.87,3.63,6.16,8.83,9.74,16.2,9.69.81-.05,1.61.15,2.42.2.5.2,1.21.2,1.31,1.01Z"/>
        <path class="cls-52" d="m196.35,22.75c-.55.55-1.82,0-1.97,1.16-.15.1-.3.1-.5,0-.55-.81-.76-1.82-1.41-2.62-.61-1.31-2.27-2.07-2.17-3.78.66-.86,1.51-.81,2.42-.61,1.72,1.66,3.18,3.48,3.63,5.85Z"/>
        <path class="cls-219" d="m35.51,58.48c-.25-.45-.5-1.01-1.21-.81-.05-.1-.1-.15-.1-.25,0-.2.1-.35.2-.5,2.57-1.56,5.1-3.18,6.56-6,.15-.35.35-.66.55-.96,1.06-.91.91-2.72,2.42-3.28.5.5.3,1.11.1,1.66-.61,1.11-1.26,2.22-1.61,3.43-1.92,2.72-3.78,5.35-6.91,6.71Z"/>
        <path class="cls-209" d="m16.74,15.64c-2.27,3.63-4.79,7.06-7.37,10.44-.25.35-.61.66-1.11.61-.45-.45-.4-.91-.05-1.36,2.57-3.13,4.59-6.61,7.01-9.84.2-.2.45-.4.71-.45.4.05.81,0,.81.61Z"/>
        <path class="cls-51" d="m15.53,15.74c-2.37,3.33-4.49,6.81-7.11,9.94-.2.25-.15.71-.2,1.11.05.1.05.2-.05.25h-1.16c.86-2.57,2.83-4.39,4.24-6.61,1.21-1.87,2.27-3.88,3.94-5.45.35.15.2.5.35.76Z"/>
        <path class="cls-207" d="m192.77,16.9c-.61.66-1.77,0-2.32.86-1.51-.2-2.57-1.01-3.08-2.42.66-1.01,1.92-.5,2.72-1.06,1.06.71,2.12,1.46,2.67,2.62Z"/>
        <path class="cls-83" d="m15.53,19.93c.05.45-.05.96.4,1.26.1.1.15.2.1.3,0,.1-.05.15-.05.15-1.21,1.16-1.92,2.67-2.93,3.99-.91.86-1.41,1.97-1.97,3.03-.5.55-.66,1.56-1.77,1.41,0-.35-.1-.61-.4-.81,2.22-3.08,4.44-6.21,6.61-9.33Z"/>
        <path class="cls-214" d="m.79,9.13c0-.25,0-.5.05-.81,1.06-.81,2.32-.45,3.48-.5,1.31-.1,2.67-.1,3.73-1.06.2-.1.4-.1.61.05.35.1.4.4.4.71-.1.55-.05,1.11-.45,1.56-2.07,1.11-4.29,1.11-6.56.91-.61-.05-1.01-.35-1.26-.86Z"/>
        <path class="cls-78" d="m11.69,4.84c.25,3.13-.45,6.21-.71,9.28-.05-.91-.1-1.87-.15-2.77,0-2.27.05-4.59.05-6.86,0-.55,0-1.16.4-1.61.4-.05.55.2.71.5.15.55.1,1.06-.3,1.46Z"/>
        <path class="cls-251" d="m1.55,6.1c.15-.15.3-.3.45-.5,1.72.81,3.38-.1,5.1-.15.5.2.91.5.86,1.16-.1.25-.2.55-.4.61-2.07.55-4.14,1.06-6.31.3-.4-.55-.05-1.01.3-1.41Z"/>
        <path class="cls-233" d="m8.56,8.73c0-.45,0-.96.45-1.26.61,1.92.96,3.83,1.16,5.85-.2.61.5,1.06.1,1.87-1.41-1.41-.76-3.48-1.72-4.89-.45-.5-.3-1.01,0-1.56Z"/>
        <path class="cls-210" d="m12.45,1.82c.2-.2.4-.4.61-.55.2,0,.35.05.5.15,1.56.86,3.23,1.11,4.99,1.01.2,0,.4.05.55.15.3.3.4.71.3,1.11-.1.4-.4.76-.81.71-2.12-.2-4.39-.15-6.21-1.61-.15-.35-.2-.66.05-.96Z"/>
        <path class="cls-50" d="m19.82,2.93c.76,2.72.4,5.45.15,8.22-.55-.35-.55-.91-.55-1.46-.2-1.26.05-2.57-.35-3.78-.05-.3-.1-.61-.05-.96.05-.5.35-.96.3-1.51,0-.3.1-.55.5-.5Z"/>
        <path class="cls-136" d="m198.42,13.07c-2.07.76-3.18.4-4.09-1.31-.76-1.46-.3-2.57,1.66-3.73.2.15.45.2.5.55-.05.25-.2.45-.4.66-.91,1.01-1.01,2.02.1,2.93.5.4,1.16.25,1.72.35.25.1.45.3.5.55Z"/>
        <path class="cls-195" d="m16.74,15.64c-.25-.1-.5-.2-.76-.3.1-1.56,1.51-3.43,2.88-3.78.2.4.15.81-.1,1.16-.3,1.21-1.11,2.12-2.02,2.93Z"/>
        <path class="cls-204" d="m7,5.7c-1.26.66-2.57.76-3.94.71-.55,0-1.06-.1-1.06-.81.1,0,.2,0,.3.05.25-.25.4-.61.86-.55.81.3,1.51-.15,2.27-.35.45-.15.86,0,1.21.3.2.15.35.4.35.66Z"/>
        <path class="cls-166" d="m5.13,41.02c.61-.5.15-1.31.66-2.37.15,2.37-.05,4.34.45,6.26-.5.25.2,1.21-.76,1.16-.3-.45-.55-.96-.4-1.56.4-1.16-.45-2.32.05-3.48Z"/>
        <path class="cls-32" d="m5.49,46.01c.25-.4.5-.76.76-1.16,0,.96.4,1.82.76,2.72.3.96.96,1.66,1.31,2.57-.05.3-.25.45-.55.55-1.11-.91-.86-2.57-2.02-3.48-.45-.3-.35-.76-.25-1.21Z"/>
        <path class="cls-157" d="m198.42,13.07c-.15-.15-.3-.3-.5-.4,0-.25.15-.5.25-.76.81-1.01.2-1.97-.05-2.98.05-.3.25-.45.5-.55,1.92,1.66,1.82,3.28-.2,4.69Z"/>
        <path class="cls-86" d="m13.11,1.21h-.1c1.41-1.61,3.88-1.56,5.35.15-.1.15-.25.2-.45.25-1.11.05-2.07-.96-3.23-.35-.15.05-.35.05-.5.1-.35.05-.71-.05-1.06-.15Z"/>
        <path class="cls-248" d="m4.28,30.93c.91-.91,1.82-1.87,2.77-2.77.3.15.2.5.3.76-.3.66-.55,1.41-1.41,1.61-.55.25-.71,1.36-1.61.76-.05-.1-.1-.2-.05-.35Z"/>
        <path class="cls-169" d="m5.13,41.02c.1,1.16.81,2.32,0,3.48-.45-1.72-.55-3.48-.05-5.2,0,.55,0,1.11.05,1.72Z"/>
        <path class="cls-118" d="m17.9,1.41c.15,0,.3-.05.45-.05.1.1.2.2.35.3.25.25.25.55.05.86l-.1-.05c-1.46.3-2.83-.25-4.19-.55-.5-.1-.76-.45-.4-.96.1,0,.25-.05.35-.05,1.21-.1,2.27.71,3.48.5Z"/>
        <path class="cls-7" d="m18.71,12.66v-1.21c-.2-.96,0-1.66,1.11-1.82.05.5.1,1.01.1,1.51-.15.71-.5,1.21-1.21,1.51Z"/>
        <path class="cls-171" d="m28.04,61.5c-.4-.25-.76-.45-1.16-.71,1.01-.55,2.02-.66,3.13-.4.2.35.5.35.86.4-.91.5-1.82.66-2.83.71Z"/>
        <path class="cls-88" d="m30.41.3c1.16-.4,2.32-.4,3.43,0,.05.35-.15.5-.45.61-.45.15-.96.15-1.41.15-.4,0-.76-.05-1.11-.15-.25-.1-.5-.25-.45-.61Z"/>
        <path class="cls-151" d="m4.33,31.28c.55-.25,1.06-.5,1.61-.76-.05.91-.61,1.46-1.31,2.17-.4-.45-.3-.96-.3-1.41Z"/>
        <path class="cls-74" d="m6.6,5.3c-.4-.1-.76-.2-1.16-.35-.61.1-1.16.35-1.77.25-.25-.15-.55-.2-.5-.61,1.31-.25,2.62-.45,3.78.4.05.25.05.5-.35.3Z"/>
        <path class="cls-203" d="m198.67,8.38c-.15.1-.3.25-.4.35-.1.1-.25.2-.45.2-.5-.05-.96-.15-1.36-.55-.15-.15-.3-.3-.5-.4.96-.05,1.92-.3,2.72.4Z"/>
        <path class="cls-92" d="m30.41.3c.15.1.3.2.45.3.05.3-.05.5-.25.66-.4.25-.76.71-1.36.45-.2-.15-.35-.3-.55-.45.4-.5,1.01-.81,1.72-.96Z"/>
        <path class="cls-146" d="m6.6,5.3c.15-.1.25-.2.4-.3.86.3,1.46.86,1.66,1.82h-.45c-.25,0-.3-.25-.35-.4-.2-.35-.35-.66-.81-.71-.2-.15-.35-.3-.45-.4Z"/>
        <path class="cls-159" d="m36.97,3.33c-.15.15-.25.3-.4.45-.15.05-.3.05-.45,0-.2-.15-.35-.35-.45-.55-.05-.25-.05-.5,0-.76.15-.25.3-.4.61-.25.45.15.61.61.71,1.11Z"/>
        <path class="cls-110" d="m7.35,28.91c-.1-.25-.2-.5-.3-.76.35-.25.76-.5,1.11-.76.2.76-.55,1.01-.81,1.51Z"/>
        <path class="cls-47" d="m1.55,6.1c-.1.35-.2.71-.35,1.06.1.35-.1.45-.4.45-.15-.15-.25-.25-.4-.4.2-.55.4-1.11,1.16-1.11Z"/>
        <path class="cls-39" d="m18.76,2.52c0-.3-.05-.55-.05-.86.71.1,1.01.61,1.11,1.26-.1.15-.25.25-.35.4-.15.15-.25.15-.3-.05-.15-.25-.25-.5-.4-.76Z"/>
        <path class="cls-61" d="m12.45,1.82v.71c.05.35-.05.66-.3.86-.15.05-.3.05-.4-.1-.1-.15-.25-.25-.35-.4.1-.5.2-1.16,1.06-1.06Z"/>
        <path class="cls-227" d="m36.21,2.17l-.35.35c-.91.1-1.01-.61-1.31-1.16.05-.3.15-.55.5-.35.61.2,1.01.5,1.16,1.16Z"/>
        <path class="cls-109" d="m37.02,6.46c0-.81,0-1.66.05-2.47.5.81.4,1.66-.05,2.47Z"/>
        <path class="cls-211" d="m.34,7.82v2.52c-.45-.81-.45-1.66,0-2.52Z"/>
        <path class="cls-116" d="m35.1.96c-.15.1-.25.2-.4.3-.45.4-.81.1-1.16-.1-.1-.15-.15-.3-.1-.5.15-.15.3-.25.45-.4.45.1.91.25,1.21.71Z"/>
        <path class="cls-232" d="m3.17,4.59c.1.1.25.2.35.3.05.3-.1.45-.4.45-.3.1-.55.2-.86.3-.1-.71.35-.96.91-1.06Z"/>
        <path class="cls-30" d="m75.92,35.67c.05,7.67-4.09,11.81-11.91,11.81-4.69,0-9.33-.05-14.03,0-1.21,0-1.72-.35-1.66-1.66.1-2.52,0-5.05-.05-7.57-.96-1.36-.5-2.98-.55-4.44-.05-1.06-.05-2.17.05-3.23-.05-1.82-.05-3.63,0-5.45-.05-1.41-.05-2.88,0-4.29-.05-1.31-.05-2.62,0-3.88,0-.96-.15-1.92.61-2.72h0c.81-.35,1.77-.15,2.47-.81,5.05-.3,10.04-.5,15.04.25,1.41.2,2.67.91,3.78,1.82,1.01,1.06,2.17,2.02,2.77,3.43.66,1.97,1.31,3.94.55,6-1.46,2.22-1.01,3.94,1.01,5.7,1.46,1.21,2.12,3.03,1.92,5.05Z"/>
        <path class="cls-30" d="m101.3,25.08c2.37,3.38,3.03,7.11,2.83,11.15-.15,3.23-.05,6.46,0,9.69.05,1.21-.4,1.61-1.56,1.51-1.21-.1-2.47,0-3.68,0-.45,0-1.11.1-1.16-.4-.2-2.12-1.31-1.01-2.17-.66-8.53,3.38-17.81-2.07-19.12-11.2-1.16-2.17-.25-4.24.35-6.26.4-1.51,1.31-2.93,2.27-4.19.2-.25.4-.45.61-.66,1.51-1.51,3.08-2.88,5.05-3.68,1.61-.5,3.28-.96,4.94-1.21,2.72.05,5.3.61,7.67,1.97,1.51,1.11,3.43,1.82,3.99,3.94Z"/>
        <path class="cls-30" d="m192.87,30.52c.25,1.92.45,3.88.05,5.85-1.21,4.24-3.58,7.52-7.57,9.59-7.52,3.83-16.35.3-19.22-7.57-.15-.4-.35-.81-.5-1.26-1.16-2.02-1.26-4.14-.66-6.36.71-2.12,1.36-4.29,2.88-6.05.55-.61,1.16-1.16,1.72-1.77.45-.4.86-.86,1.41-1.21.76-.45,1.61-.76,2.32-1.26.66-.4,1.41-.5,2.12-.76.66-.15,1.36-.2,2.02-.4.81-.15,1.61-.15,2.47-.1,1.31.25,2.62.4,3.83.91,1.66.81,3.38,1.56,4.84,2.83.55.5,1.31.91,1.26,1.82,1.31,1.66,2.32,3.63,3.03,5.75Z"/>
        <path class="cls-30" d="m147.51,37.44c-3.18,8.22-11.2,12.06-18.87,8.93-2.72-1.11-4.79-2.98-6.41-5.4-1.61-1.26-1.77-3.18-2.32-4.94-.15-1.61-.15-3.23,0-4.84.25-1.21.66-2.32,1.11-3.43.55-1.06,1.11-2.12,1.82-3.13.25-.35.55-.71.86-1.01.76-.76,1.51-1.46,2.42-2.02.55-.35,1.11-.66,1.66-.96,1.16-.5,2.37-.91,3.63-1.16,1.11-.25,2.22-.45,3.33-.4,1.72.2,3.43.61,4.99,1.31,2.17,1.01,4.09,2.47,5.6,4.34,2.32,2.93,3.43,6.21,3.18,9.89-.05,1.06-.05,2.12-1.01,2.83Z"/>
        <path class="cls-30" d="m156.44,37.13c1.51,2.88,3.99,3.83,7.11,3.78s2.72-.4,2.77,2.62c0,3.99,0,4.04-4.04,3.88-5.6-.2-9.38-3.23-12.01-7.97-.25-.5-.5-1.06-.76-1.56-.4-.71-.96-1.36-.86-2.22v-11.45c.15-3.33-.2-6.66.15-9.99.1-.25.2-.4.4-.61.86-.5,1.87-.3,2.83-.4.45-.05.91,0,1.31,0,2.47.1,2.88.5,2.98,3.08,0,.66.05,1.31.05,1.97-.15.96.35,1.16,1.21,1.21,1.41.05,2.77-.2,4.19.2.2.1.35.25.5.4.3.61.3,1.31.3,1.97,0,.91.05,1.77,0,2.67.1,1.77-.76,2.47-2.42,2.42h-.61q-3.13.05-3.18,3.23c-.05,2.27.15,4.54.05,6.76Z"/>
        <path class="cls-30" d="m121.78,41.07v5.25c0,.76-.2,1.16-1.06,1.26-7.92,1.01-14.43-3.78-15.64-11.65,0-.25-.05.05-.05-.2.15-6.41-.5-12.76-.4-19.12.05-2.57.35-2.93,2.88-2.98,1.36-.05,2.72-.1,4.04.3.35.2.55.5.66.86.15.96.15,1.92.1,2.88,0,.71.05,1.41,0,2.07.05,1.61.05,3.28,0,4.89.05,1.06.05,2.07,0,3.13.05,1.06.05,2.07,0,3.13.05,1.66-.05,3.33.05,4.99.86,3.03,2.72,4.44,5.85,4.64,1.26.05,2.57-.45,3.58.55Z"/>
        <path class="cls-114" d="m156.44,37.13c-1.26-2.12-.66-4.39-.66-6.66,2.07-1.16,4.29-.45,6.46-.61,1.11-.05,2.37-.3,3.33.61-.71,2.22,0,4.39.05,6.56-3.03.05-6.1.1-9.18.1Z"/>
        <path class="cls-89" d="m48.27,30.52v7.77h-3.03c-.76-.2-1.01-1.06-1.72-1.36-.35-.25-.61-.55-.91-.86-.25-.45-.66-.71-1.21-.66-.2-.05-.35-.1-.5-.15-1.56-1.06-.05-2.02.05-3.03.3-.66.15-1.56.96-1.97,2.17-.4,4.29-.81,6.36.25Z"/>
        <path class="cls-201" d="m79.55,24.67c-2.27,3.13-3.38,6.61-3.18,10.44-.15.15-.3.35-.45.5-.71-2.77-1.92-5.3-4.39-6.96-.66-.45-.4-.76-.15-1.26.4-.81.76-1.61,1.16-2.42,2.27-1.61,4.64-1.11,7.01-.3Z"/>
        <path class="cls-188" d="m121.78,41.07c-1.11,0-2.22-.05-3.28-.05-3.28-.05-5.35-1.46-6.61-4.64,2.83-.96,5.65-.96,8.48,0,.61,1.56,1.26,3.13,1.87,4.64-.15,0-.3,0-.45.05Z"/>
        <path class="cls-194" d="m149.18,35.92c.15.66.25,1.31.4,1.97-.61-.4-1.31-.35-2.02-.4,1.36-4.74-.05-8.88-2.72-12.76,1.31-.91,2.62-.66,3.99-.15.45,2.83.1,5.65.2,8.48.05.96-.15,1.92.15,2.88Z"/>
        <path class="cls-79" d="m101.3,25.08c-1.11-1.36-2.52-2.42-3.94-3.48,0-.35.15-.61.4-.86,1.21-.71,2.52-.45,3.78-.35,1.26.55,2.57,1.01,3.43,2.12-.05.71.2,1.46-.2,2.17-1.16.15-2.42-.4-3.48.4Z"/>
        <path class="cls-36" d="m104.78,24.67v-2.32c-.81-1.06-.5-2.22-.55-3.38,0-1.41-.05-2.83.1-4.24.4-.91,1.11-1.77.5-2.88h3.13c1.16.45,2.22,1.21,3.43,1.61.35.1.71.35.4.86-1.87-.4-3.73-.1-5.6-.2-1.26-.05-1.01.91-1.01,1.61v18.01c0,.71-.05,1.41-.05,2.12-.66-2.62-.15-5.3-.3-7.97-.05-1.06-.05-2.12-.05-3.23Z"/>
        <path class="cls-202" d="m44.03,48.44c-.1-.55.15-1.21-.4-1.61-.35-1.01,0-1.92.35-2.83.5-1.26.3-2.52.2-3.78-.05-.2-.05-.35-.1-.55,0-.2.05-.35.1-.55.2-.3.5-.55.91-.4.61,3.33.3,6.61-1.06,9.74Z"/>
        <path class="cls-68" d="m45.14,38.65c-.2.1-.45.25-.66.35-.45-.2-.55-.66-.76-1.06-.1-.4-.4-.81-.05-1.26,1.16-.1,1.06,1.01,1.51,1.56,0,.15,0,.3-.05.4Z"/>
        <path class="cls-243" d="m11.69,3.33h.35c2.42.66,4.94.91,7.42,1.56v.81c-.25.2-.1.61-.4.76-2.57.1-5.1-.35-7.42-1.56.05-.55.05-1.06.05-1.56Z"/>
        <path class="cls-213" d="m8.56,8.73v1.56c-2.47.4-4.89,1.31-7.42.4-.25-.5-.45-1.01-.4-1.56,2.67.86,5.25.25,7.82-.4Z"/>
        <path class="cls-197" d="m19.11,6.41c0-.3.1-.61.4-.76-.05,1.36,0,2.67.35,3.99-.86.3-.96,1.11-1.11,1.82-1.11,1.16-2.07,2.42-2.72,3.88l-.4.4c-.3-.15-.35-.45-.35-.76.66-.96,1.16-1.97,1.92-2.83,1.41-1.66,2.22-3.48,1.92-5.75Z"/>
        <path class="cls-95" d="m69.82,16.09c-2.22-1.77-4.89-2.12-7.62-2.17-3.78-.05-7.62-.05-11.4-.1-.3.15-.66.25-.91-.1-.35-.71-1.11-1.01-2.12-1.87h24.37c1.36.5,2.57,1.31,3.68,2.27.45.4,1.06.81.45,1.56-2.12,1.01-4.29.66-6.46.4Z"/>
        <path class="cls-8" d="m48.32,14.18c0,.91-.05,1.82-.05,2.72-.61.61-1.41.61-2.17.61-4.54.05-9.03.05-13.57,0-.76,0-1.56,0-2.17-.61.5-1.01,1.11-1.92,1.92-2.72h16.04Z"/>
        <path class="cls-154" d="m111.79,14.33c-1.31-.81-2.98-1.06-3.83-2.47h5.45c2.37,1.26,4.54,2.67,6.36,4.69,0,.2,0,.35-.1.55-1.06,1.16-2.42.1-3.53.5-1.92-.1-3.18-1.26-4.29-2.67-.05-.2-.05-.4-.05-.61Z"/>
        <path class="cls-4" d="m177.33,19.73c-.55.45-1.26.25-1.92.35-.91.4-1.41-.25-2.07-.71-2.47-1.77-4.89-3.58-7.42-5.25-.61-.76-1.87-.96-1.87-2.17h3.48c3.43,1.66,6.26,4.19,9.28,6.46.35.25.76.71.5,1.31Z"/>
        <path class="cls-177" d="m187.42,15.34c1.01.81,2.07,1.61,3.08,2.42.55,1.31,1.92,2.02,2.37,3.43-.25,1.11-.45,1.26-1.46.45-2.02-1.46-4.14-2.83-6.16-4.34-1.31-.81-2.47-1.82-3.63-2.77-.55-.45-1.31-.91-.81-1.87,2.37.4,4.44,1.66,6.61,2.67Z"/>
        <path class="cls-224" d="m85.3,11.86h4.69c2.17,1.31,4.19,2.88,6.21,4.39.3.35.76.71.25,1.26-1.11.55-2.37.2-3.53.4-1.36-.05-2.17-1.11-3.23-1.77-1.16-.86-2.27-1.72-3.43-2.57-.45-.45-1.16-.81-.96-1.72Z"/>
        <path class="cls-246" d="m116.13,11.86h4.69c1.92.66,3.28,2.17,4.94,3.23.66.5,1.56.91,1.46,1.97-1.01,1.36-2.37.2-3.53.55-1.21-.05-2.02-1.01-2.98-1.56-1.31-.86-2.42-1.87-3.63-2.83-.45-.35-1.11-.61-.96-1.36Z"/>
        <path class="cls-206" d="m76.37,15.34c-1.16-1.51-3.08-2.07-4.29-3.48h7.42c1.26.55,2.47,1.16,3.43,2.12.3.35.91.66.25,1.21-1.87.66-3.88-.1-5.75.61-.5.15-.86,0-1.06-.45Z"/>
        <path class="cls-242" d="m83.39,14.98c-1.31-1.06-2.57-2.07-3.88-3.13h5.85c1.21,1.72,3.13,2.52,4.69,3.88-.1,1.01-.96.81-1.56.91-.81.1-1.61,0-2.42.1-1.26-.1-2.07-.76-2.67-1.77Z"/>
        <path class="cls-215" d="m104.83,11.86c.45.55.86,1.11,1.31,1.66-.35.5-1.06.1-1.31.66-2.17.96-4.49.45-6.76.5-1.51-.45-3.03-.96-3.38-2.83h10.14Z"/>
        <path class="cls-189" d="m177.33,19.73c-1.77-2.22-4.29-3.48-6.41-5.2-1.11-.91-2.22-1.72-3.33-2.57h2.72c2.57,1.26,4.69,3.28,7.11,4.79.76,1.06,2.52,1.26,2.57,2.93-.91,0-1.77,0-2.67.05Z"/>
        <path class="cls-226" d="m125.06,11.86h5.85c1.16.86,2.98,1.01,3.23,2.88-1.06,1.06-2.52.91-3.83,1.26-.96,0-1.61-.55-2.32-1.11-.91-1.01-2.72-1.21-2.93-3.03Z"/>
        <path class="cls-91" d="m94.69,11.86c.81,1.11,1.87,1.82,3.13,2.32.5.61,1.92.4,1.46,1.77-1.06.81-2.22.61-3.43.61-1.87-1.66-4.29-2.62-5.85-4.64,1.56-.05,3.13-.05,4.69-.05Z"/>
        <path class="cls-22" d="m149.28,13.82c-.05,3.48-.15,6.96-.2,10.44-.2.05-.4,0-.5-.2-.25-.55-.25-1.16-.25-1.77v-2.07c.3-1.72-.45-2.88-1.92-3.73-1.21-.71-2.22-1.66-3.43-2.37-.66-.71-1.97-.86-1.87-2.22h2.72c.81.35,1.61.71,2.27,1.31.86.91,1.92,1.41,3.18.61Z"/>
        <path class="cls-73" d="m173.8,11.91c1.56,0,3.13-.4,4.64.35.91,1.77,2.88,2.42,4.09,3.83.45.5,1.41.81.86,1.82-.55.3-1.11.3-1.66.2-1.82-.45-2.93-1.97-4.49-2.83-1.21-1.06-3.03-1.51-3.43-3.38Z"/>
        <path class="cls-113" d="m141.06,11.91c.35.96,1.51,1.01,1.92,1.92,1.01.81,1.31,1.92,1.26,3.13-1.16,1.11-1.82-.05-2.67-.5-1.21-.86-2.42-1.66-3.58-2.57-.61-.5-1.46-.91-1.26-1.97h4.34Z"/>
        <path class="cls-239" d="m158.21,11.91h2.37c2.22,1.46,4.49,2.77,6.16,4.89.1.61.76,1.06.4,1.77-1.01.5-1.72-.25-2.47-.71-.91-.61-1.87-1.16-2.72-1.82-.86-.76-1.97-1.26-2.77-2.07-.61-.55-1.51-1.01-.96-2.07Z"/>
        <path class="cls-117" d="m173.8,11.91c1.16,1.01,2.32,2.02,3.48,3.03,1.16,1.31,1.16,1.46,0,1.92-2.57-1.31-4.89-3.03-7.01-4.99,1.16.05,2.37.05,3.53.05Z"/>
        <path class="cls-131" d="m158.21,11.91c.3,1.26,1.36,1.82,2.27,2.52.55.4,1.31.61,1.61,1.31.15.71-.35.96-.81,1.31-1.56.15-2.47-1.06-3.63-1.77-.81-.61-1.56-1.26-2.42-1.82-.55-.35-1.06-.71-.91-1.51,1.26-.05,2.57-.05,3.88-.05Z"/>
        <path class="cls-181" d="m166.38,16.9c-1.31-1.61-3.33-2.37-4.74-3.88-.35-.35-.71-.76-1.06-1.11h3.53c.45.86,1.61.91,1.92,1.87.66.86,1.36,1.66,2.27,2.27.4.3,1.31.55.71,1.41-1.06.45-1.92.1-2.62-.55Z"/>
        <path class="cls-2" d="m183.49,17.66c-1.61-1.61-3.28-3.18-5.25-4.39-.3-.2-.96-.35-.55-.96.1-.15.45-.05.71-.1.81-.05,1.61-.05,2.37.45.96,2.07,3.03,2.88,4.69,4.19.15.61.4,1.16-.1,1.72-.86.2-1.41-.25-1.87-.91Z"/>
        <path class="cls-183" d="m125.06,11.86c.76,1.21,2.17,1.66,3.13,2.67-.76.86-1.72.81-2.72.76-1.66-1.01-3.23-2.17-4.64-3.48,1.41.05,2.83.05,4.24.05Z"/>
        <path class="cls-193" d="m136.77,11.91c1.26,1.92,3.43,2.77,5.05,4.24-.1.5-.4.81-.91.91-1.01-.35-1.97-.91-3.03-1.11-1.51-1.06-3.48-1.72-3.43-4.09.76.05,1.56.05,2.32.05Z"/>
        <path class="cls-17" d="m116.13,11.86c1.56,1.31,3.13,2.57,4.64,3.88,0,.86-.5.96-1.16.76-2.17-1.46-4.34-2.83-6.21-4.64h2.72Z"/>
        <path class="cls-23" d="m134.45,11.91c.55,1.87,2.27,2.62,3.48,3.83.15.66-.35.76-.81.91-1.31-.3-2.37-.96-3.08-2.12-.76-1.21-2.42-1.36-3.13-2.67,1.16,0,2.32.05,3.53.05Z"/>
        <path class="cls-104" d="m154.32,11.91c.76,1.46,2.57,1.77,3.48,3.08-.1.66-.55,1.16-.91,1.66-.4.55-.76.3-1.06-.1q-.1-2.52-3.88-2.72c-.55-.5-1.77-.66-1.16-1.92,1.16,0,2.32,0,3.53,0Z"/>
        <path class="cls-134" d="m149.28,13.82c-.5,1.36-1.26,1.41-2.37.61-1.06-.81-2.12-1.61-3.13-2.52h3.53c.76.5,2.12.45,1.97,1.92h0Z"/>
        <path class="cls-53" d="m149.28,13.82c-.35-.96-1.51-1.11-1.97-1.97h3.48c0,.91.91,1.21,1.16,1.92-.91.05-1.77.05-2.67.05Z"/>
        <path class="cls-97" d="m49.84,13.72c.3.05.61.05.91.1-.81.15-1.61.25-2.42.4.35-.66,1.01-.35,1.51-.5Z"/>
        <path class="cls-219" d="m34.3,57.72c-3.13,2.02-6.51,1.92-9.84.86-6.56-2.07-12.01-5.8-16.25-11.2-2.57-3.28-2.67-10.65-.4-14.13.81,1.41-.4,2.57-.4,3.88-.81,3.63.05,6.91,2.22,9.89.61,1.11,1.51,1.92,2.57,2.57,3.78,2.37,7.67,4.59,11.45,7.01,2.67,1.66,5.5,1.72,8.43,1.16.76-.2,1.46-.71,2.22-.05h0Z"/>
        <path class="cls-99" d="m30.01,60.39c-1.06,0-2.02.61-3.13.4h-2.72c-4.74-.55-8.78-2.57-12.31-5.75-.61-.91-1.36-1.66-2.32-2.22-.55-.76-1.72-1.21-1.36-2.47-.5-.86-1.26-1.61-1.16-2.72,1.97,3.38,4.84,5.9,7.97,7.97,4.04,2.62,8.43,4.49,13.37,4.44.61,0,1.21-.2,1.66.35Z"/>
        <path class="cls-145" d="m7,37.08c-.2-1.36.81-2.52.76-3.88.3-1.16.81-2.22,1.56-3.13.5-.5,1.06-1.06,1.56-1.56.05.05.1.15.15.2.2,1.11-.71,1.77-1.06,2.62-.35.61-.55,1.31-.81,1.97-.5,1.01-.66,2.12-1.06,3.13-.4,1.41-.3,2.77-.1,4.19.35,2.37,1.56,4.04,3.88,4.79.55.2,1.06.4,1.51.81.15.1.3.25.4.4.4,1.11,2.07,1.77,1.21,3.28-1.66-.86-3.38-1.66-4.84-2.77-2.17-1.61-3.08-3.94-3.33-6.51-.1-1.06-.25-2.32.15-3.53Z"/>
        <path class="cls-28" d="m183.49,17.66c.66.25,1.31.5,1.97.76,1.82.61,3.13,1.97,4.49,3.23,1.16,1.06,2.32,2.27,4.14,2.12.1.05.2.05.3.1-.15,1.11-1.06.66-1.66.71-.96.05-1.92.05-2.88.05-1.61-1.92-3.83-3.03-5.95-4.19-.61-1.06-2.22-1.31-2.32-2.77.66,0,1.31,0,1.92,0Z"/>
        <path class="cls-140" d="m30.36,16.9h17.91v3.88c-.61.61-1.41.61-2.17.61-5.5,0-11,.1-16.5-.05-.71,0-1.46.05-1.97-.55.76-1.41,1.66-2.67,2.72-3.88Z"/>
        <path class="cls-56" d="m27.64,20.79h20.64v4.29c-.96.81-2.07.5-3.18.55-2.17.15-4.39-.45-6.51.55-.5.25-.96.1-1.36-.25-.35-.35-.76-.71-1.21-1.01-.71-.5-1.46-.81-2.22-1.16-.5-.3-1.06-.55-1.61-.76-1.16-.45-2.32-.81-3.58-.86-.2,0-.35-.1-.5-.2.15-.5-1.26-.4-.45-1.16Z"/>
        <path class="cls-160" d="m28.09,21.95h.3c.3-.25.45-.05.55.2-.05.86.61,1.21,1.16,1.61,2.22,1.61,4.44,3.18,6.91,4.49.25.15.45.3.66.5.4.81,2.07.86,1.51,2.32-.91.45-1.72-.05-2.57-.15-4.19-2.02-7.92-4.84-11.91-7.21-1.36-.81-.81-1.51.35-1.97.2-.05.4-.1.55-.1.3,0,.55.15.81.3h1.66Z"/>
        <path class="cls-42" d="m26.53,21.95h-.81c-.76-.91-.55-1.87-.1-2.72,2.12-4.19,4.74-7.97,7.77-11.55.66-.4,1.36-.66,2.02-.05-2.98,3.28-5.25,7.11-7.82,10.75-.71,1.06-1.26,2.17-1.06,3.58Z"/>
        <path class="cls-44" d="m29.25,1.77c.4-.25.81-.45,1.21-.71,2.07,1.31,3.73,3.28,6.1,4.19-.15.5-.25,1.01-.4,1.56-.96.76-1.92.15-2.88,0-1.16-.5-2.22-1.16-3.08-2.07-.45-.71-.96-1.31-1.21-2.17.05-.3,0-.61.25-.81h0Z"/>
        <path class="cls-29" d="m36.57,5.25c-2.83-.25-4.49-2.22-6.1-4.19.15-.15.25-.3.4-.45h1.11c1.36,1.11,2.62,2.32,4.29,3.03.1.05.2.05.3.1,0,.5,0,1.01,0,1.51Z"/>
        <path class="cls-156" d="m33.14,6.41c1.01.1,2.02.25,3.03.35-.05.4-.35.66-.71.81-.66-.05-1.31,0-1.92.4-.3-.05-.5-.25-.61-.5-.15-.4-.15-.76.2-1.06Z"/>
        <path class="cls-137" d="m.85,7.62c.15-.15.25-.3.4-.45,2.27.25,4.54.5,6.61-.76.1.15.25.25.35.4.05.76-.3,1.01-1.06,1.21-2.07.5-4.19.3-6.31.3v-.71Z"/>
        <path class="cls-250" d="m16.38,20.38c1.36-2.02,2.57-4.14,4.04-6.05,2.62-3.48,4.69-7.42,7.62-10.65.15.15.25.3.3.5.1,1.16-.71,1.92-1.36,2.72-.96,1.16-1.56,2.52-2.57,3.63-1.97,2.62-3.78,5.3-5.65,8.02-.55.81-1.01,1.92-2.37,1.82Z"/>
        <path class="cls-182" d="m16.38,20.38c2.72-2.17,3.99-5.45,6.16-8.02.55-.66.81-1.61,1.61-2.07.2.2.25.5.2.81-2.02,3.73-4.69,7.06-7.06,10.6-.3.45-.71.96-1.41.66-.15-.3-.15-.55.05-.81v-.4c.35-.1.4-.4.45-.76Z"/>
        <path class="cls-123" d="m28.09,4.09v-.4c.4-.66.5-1.46,1.21-1.92v.76c.35.66.1,1.16-.35,1.61-.35.2-.61.2-.86-.05Z"/>
        <path class="cls-57" d="m8.16,50.3c.05,1.11,1.21,1.46,1.56,2.32.86.55,1.46,1.41,2.32,1.97,2.77,2.67,6.1,4.34,9.74,5.45.76.25,1.66.2,2.32.76-6.76.15-11.65-3.23-15.59-8.38-.4-.5-.71-1.06-.76-1.77.15-.1.3-.2.4-.35Z"/>
        <path class="cls-172" d="m194.08,23.81c-.66.71-1.41.66-2.07.15-2.22-1.82-4.39-3.68-6.56-5.5-.35-.5-.35-1.06,0-1.56,2.12,1.51,4.24,3.08,6.36,4.59.5.4.91.55,1.01-.3.71.76,1.11,1.61,1.26,2.62Z"/>
        <path class="cls-129" d="m41.31,51.11c-1.46,3.03-4.04,4.84-7.01,6.21-.91.25-1.82.55-2.77.76-1.66.4-3.48.45-4.89-.35-2.83-1.66-5.85-2.98-8.73-4.59-.45-.25-.86-.55-1.16-.96-.1-.2-.15-.35-.1-.55.1-.15.25-.3.45-.35,1.61,0,2.62,1.41,4.14,1.66.45.05.91.1,1.36.25,1.01.25,2.07.55,2.93-.3,1.21-.3,2.42-.55,3.63-.86.3,0,.55.05.81.2.25,1.01-.66,1.06-1.21,1.46-1.31.91-1.31,1.56.15,2.32,1.87.96,3.78.61,5.6-.1,1.82-.71,3.38-1.77,4.64-3.33.61-.76,1.01-1.66,2.17-1.46Z"/>
        <path class="cls-27" d="m16.74,51.87c3.99,2.12,7.82,4.44,12.06,6,1.92.71,3.63-.71,5.45-.55v.4c-2.83.76-5.65,1.21-8.58.4-2.07-.61-3.68-2.07-5.5-3.13-2.93-1.77-5.85-3.53-8.73-5.35-.91-.55-1.87-1.16-2.07-2.37,2.07.45,3.43,2.22,5.35,2.88.96.25,1.61.81,2.02,1.72Z"/>
        <path class="cls-252" d="m41.31,51.11c-2.02,1.66-3.43,4.04-6.05,4.94-2.47.91-4.89,1.56-7.37-.2-1.36-.96-1.16-1.66.1-2.42.66-.4,1.46-.55,1.97-1.16,1.56-1.46,2.67-3.38,4.74-4.29.35.55.1,1.06-.15,1.61-.25.4-.55.71-.91,1.06-.66.66-1.31,1.26-1.92,1.92-.5.55-1.41,1.06-.81,1.92.55.86,1.41,1.31,2.52,1.01,1.16-.35,2.32-.71,3.33-1.51,1.26-1.16,2.52-2.37,3.63-3.68.35-.4.66-1.01,1.36-.71.15.3.1.55-.1.76-.1.2-.25.45-.35.76Z"/>
        <path class="cls-129" d="m41.71,50.3v-.76c-.15-.81.25-1.51.5-2.22.61-1.51,1.01-3.03.96-4.69,0-.2.1-.4.15-.61.3-.4.55-1.01,1.21-.45,0,.86.2,1.72-.15,2.57-.25.91-.5,1.82-.76,2.72-.4,1.26-.81,2.52-1.92,3.43Z"/>
        <path class="cls-106" d="m15.98,21.54v.81c.2.4,0,.71-.2,1.01-1.21,1.06-1.56,2.83-2.98,3.73-.2,0-.35-.05-.45-.2-.25-.66.3-1.01.5-1.46,1.01-1.31,1.36-3.13,3.13-3.88Z"/>
        <path class="cls-145" d="m12.85,25.43c-.15.5-.25,1.06-.4,1.56-.25.81-.4,1.66-1.56,1.56h0c.35-1.21.76-2.42,1.97-3.13Z"/>
        <path class="cls-119" d="m19.46,4.84c-2.62.15-5.15-.05-7.42-1.56.1-.25.25-.5.35-.76,1.87.91,3.99.96,5.95,1.41.55.1.66-.25.76-.66.1,0,.2.05.3.05.05.5.05,1.01.05,1.51Z"/>
        <path class="cls-54" d="m14.01,1.01c.35,1.26,1.56.81,2.37,1.11.71.25,1.46.3,2.22.4-1.87.76-4.49.15-5.55-1.26.3-.3.66-.3.96-.25Z"/>
        <path class="cls-21" d="m195.95,12.56c-1.56-1.56-1.56-2.17,0-3.73.15.15.25.3.35.5.2.91.2,1.82,0,2.72-.05.2-.15.35-.35.5Z"/>
        <path class="cls-9" d="m195.95,12.56c0-.1,0-.25.05-.35,1.06-1.72,1.11-1.72,2.22-.2.05.1.05.15.1.25-.15.15-.25.3-.4.4-.66.4-1.31.45-1.97-.1Z"/>
        <path class="cls-247" d="m196,9.23c0-.15,0-.25-.05-.4.15-.15.35-.25.5-.4.5.05,1.01,0,1.46.35.15.2.1.4-.1.55-.66.3-1.21.3-1.82-.1Z"/>
        <path class="cls-180" d="m3.17,5.35c.15-.15.25-.3.4-.45.61,0,1.26.05,1.87.05-.76.25-1.31,1.56-2.27.4Z"/>
        <path class="cls-241" d="m197.92,9.18v-.4c.1-.05.25-.05.35,0,.96,1.16,1.41,2.27.05,3.48v.05c-.71-1.01-.71-2.02-.4-3.13Z"/>
        <path class="cls-184" d="m17.9,1.41c-1.31.76-2.37-.05-3.48-.45,1.31-.96,2.37,0,3.48.45Z"/>
        <path class="cls-121" d="m36.26,3.68c-1.41.15-3.53-1.36-4.29-3.03h1.46c.05.1.05.2.15.3.55,1.01,1.82,1.31,2.37,2.32.1.15.2.25.3.4Z"/>
        <path class="cls-158" d="m35.91,3.28c-.91-.55-1.82-1.11-2.67-1.72-.61-.45-.05-.5.3-.66.4.1.76.2,1.16.3.4.4.76.81,1.16,1.26,0,.3.05.55.05.81Z"/>
        <path class="cls-16" d="m54.98,36.33q-.25-4.29,4.04-4.29c1.87,0,3.73-.1,5.6,0,2.77.15,4.54,2.47,3.99,5.1-3.58-.5-7.21-.15-10.85-.25-.96,0-1.97.2-2.77-.55Z"/>
        <path class="cls-25" d="m54.98,36.33h11.81c.71,0,1.61-.3,1.82.86-.91,2.62-1.92,3.43-4.59,3.43-2.47.05-4.89-.1-7.37.05-1.51.1-1.92-.5-1.77-1.87.15-.81.1-1.61.1-2.47Z"/>
        <path class="cls-120" d="m38.18,26.24c.25-1.21,1.21-1.16,2.12-1.16h7.97v5.45c-2.22,0-4.44,0-6.66.05-.15.1-.25.1-.4,0-.2-.2-.35-.5-.5-.76-.1-.1-.15-.25-.25-.4-.15-.25-.35-.5-.55-.71-.25-.3-.55-.55-.86-.81-.35-.5-1.11-.81-.86-1.66Z"/>
        <path class="cls-56" d="m65.07,25.08c-.35.71-1.01,1.06-1.72,1.11-2.52.05-5.05.05-7.57.05-.5,0-.86-.15-.86-.76v-3.88c0-.71.45-.81,1.01-.81,1.36.05,2.72.05,4.09.05,1.82.45,3.18,1.61,4.59,2.72.45.4.86.86.45,1.51Z"/>
        <path class="cls-10" d="m76.37,15.34c.25.15.5.25.76.4,1.87.15,3.03,1.41,4.24,2.62.25.25.05.61-.25.76-2.32.61-4.64,0-6.96.4-.81.2-1.46-.25-2.12-.61-.76-.96-1.46-1.92-2.22-2.83,1.21-.66,2.52-.25,3.78-.35.91-.05,1.87.15,2.77-.4Z"/>
        <path class="cls-5" d="m72.04,18.97c.66-.66,1.01.55,1.61.3,2.12.91,3.94,2.32,5.7,3.78.4.3.81.66.55,1.26-.1.15-.2.25-.35.4-2.32.15-4.74-.4-7.01.35.55-2.12.05-4.14-.5-6.1Z"/>
        <path class="cls-147" d="m65.07,25.08c-.45-1.61-2.07-1.97-3.18-2.93-.55-.5-1.26-.91-1.87-1.31.91,0,1.77-.1,2.67-.05,2.57.1,3.58,1.97,2.37,4.29Z"/>
        <path class="cls-114" d="m83.74,36.33c-1.11-1.97-.91-3.94.1-5.85.55-.35,1.16-.61,1.82-.61,3.08-.05,6.21-.05,9.28,0,.66,0,1.26.2,1.82.55,1.16,2.12,1.16,4.24-.05,6.36-3.78.3-7.57.1-11.35.1-.61,0-1.16-.15-1.61-.55Z"/>
        <path class="cls-188" d="m83.74,36.33h11.2c.61,0,1.31-.2,1.77.45-1.31,2.62-4.04,4.34-6.66,4.09-2.93-.3-5.3-1.51-6.31-4.54Z"/>
        <path class="cls-112" d="m96.71,30.47c-4.29,0-8.58.05-12.92.05,1.31-2.83,3.63-4.24,6.66-4.19,2.88.05,5.1,1.36,6.26,4.14Z"/>
        <path class="cls-217" d="m81.42,18.87c-1.41-1.06-2.88-2.07-4.29-3.13.15-.96.86-.76,1.46-.76h4.74c.76.5,1.56,1.06,2.32,1.56,1.82.45,3.48,1.01,3.94,3.18-1.72.35-3.38.71-5.1,1.06-1.36-.05-2.37-.76-3.08-1.92Z"/>
        <path class="cls-43" d="m81.42,18.87c1.06.66,2.07,1.26,3.13,1.92-1.56,1.21-3.08,2.37-4.64,3.58-1.31-1.51-2.88-2.62-4.54-3.63-.66-.4-1.36-.71-1.72-1.46,2.57-.86,5.2-.25,7.77-.4Z"/>
        <path class="cls-143" d="m89.64,19.68c-.86-1.56-2.57-2.12-3.94-3.18,1.31-1.01,2.98.25,4.29-.76.91.66,1.82,1.31,2.72,1.92,2.12.55,3.58,2.02,5.05,3.48-.15.15-.3.25-.45.4-2.37-1.16-4.94-1.82-7.67-1.87Z"/>
        <path class="cls-114" d="m185.61,30.42c1.26,1.92,1.36,3.88.2,5.9-.5.3-1.01.55-1.61.55-3.38.05-6.81.1-10.19,0-.5,0-1.01-.2-1.41-.55-1.01-1.97-.86-3.88.1-5.8.45-.3.91-.55,1.41-.55,3.33-.1,6.71-.1,10.04,0,.55,0,1.01.25,1.46.45Z"/>
        <path class="cls-20" d="m165.58,30.52h-9.79q-.25-4.04,3.78-4.04c1.26,0,2.88.4,2.57-1.82,1.97-1.01,3.94-.55,5.95-.25.1.1.15.15.25.25-1.26,1.77-2.07,3.78-2.77,5.85Z"/>
        <path class="cls-192" d="m172.59,36.33h13.22c-1.41,2.88-4.24,4.84-6.96,4.59-2.93-.3-5.25-1.56-6.26-4.59Z"/>
        <path class="cls-201" d="m185.61,30.42c-4.29,0-8.63.05-12.92.05,1.21-2.77,3.48-4.19,6.41-4.19,2.93,0,5.15,1.56,6.51,4.14Z"/>
        <path class="cls-59" d="m161.29,16.9c-.05-.61.55-.76.76-1.16,1.82.71,3.03,2.47,5.05,2.72,2.12.35,3.53,1.41,3.99,3.53-.45.35-.86.71-1.31,1.11-1.46.61-2.22-.76-3.23-1.26-1.46-1.36-3.28-2.22-4.59-3.73-.25-.35-.81-.55-.66-1.21Z"/>
        <path class="cls-108" d="m166.74,21.54c1.11.35,1.87,1.46,3.08,1.56-.5.5-1.01,1.06-1.51,1.56h-.05c-.5-.4-1.11-.25-1.66-.2-2.12.2-3.48-.81-4.49-2.52,0-.66-.05-1.31-.05-1.97,1.72.1,3.08,1.21,4.69,1.56Z"/>
        <path class="cls-38" d="m171.13,22c-.96-1.61-2.47-2.62-3.99-3.53-.4-.45-.96-.81-.76-1.56.91.15,1.82.25,2.72.4,1.97.5,3.43,1.61,4.29,3.48-.66.55-1.46.96-2.27,1.21Z"/>
        <path class="cls-138" d="m173.4,20.79c-1.41-1.16-2.88-2.32-4.29-3.48-1.01-1.21-3.18-1.36-3.13-3.48,2.93,1.36,5.35,3.53,7.92,5.4.45.35.86.81,1.46.81-.66.25-1.31.5-1.97.76Z"/>
        <path class="cls-231" d="m181.57,17.66c.61,1.06,2.32,1.21,2.32,2.77-1.31-.3-2.57-.55-3.88-.86-.61-1.21-2.22-1.41-2.72-2.72,1.36-.66-.3-1.31,0-1.92,1.72.5,2.67,2.17,4.29,2.72Z"/>
        <path class="cls-114" d="m127.48,36.33c-.86-2.12-.86-4.19.35-6.21.61-.4,1.26-.61,1.97-.61,2.83-.05,5.65-.05,8.48,0,.71,0,1.36.25,2.02.61,1.46,2.02,1.61,4.09.45,6.26-.61.45-1.26.55-2.02.55-3.08.05-6.16.05-9.28,0-.71,0-1.36-.15-1.97-.61Z"/>
        <path class="cls-16" d="m120.42,36.33h-8.48c-.4-1.82-.25-3.63-.15-5.45,2.88-1.01,5.75-1.01,8.68,0-.05,1.82-.05,3.63-.05,5.45Z"/>
        <path class="cls-192" d="m127.48,36.33c4.44,0,8.83,0,13.27.05-1.31,2.93-3.68,4.54-6.81,4.49-3.03,0-5.4-1.51-6.46-4.54Z"/>
        <path class="cls-112" d="m140.3,30.07h-12.46c1.21-2.62,3.48-3.78,6.21-3.83,2.77.05,4.89,1.41,6.26,3.83Z"/>
        <path class="cls-163" d="m111.79,27.8v-3.13c.45-.35,1.01-.55,1.61-.55,3.08,0,6.16-.1,9.28.15.25.1.45.2.61.4-.61,1.01-1.21,2.07-1.82,3.08-2.17,1.16-4.49.45-6.76.61-1.01.1-2.07.15-2.93-.55Z"/>
        <path class="cls-208" d="m116.13,17.31c1.06-1.06,2.42.71,3.48-.4.71-.25,1.26.15,1.77.5,1.36.96,2.72,1.92,4.09,2.88.55.4,1.26.81.76,1.72-.76.66-1.56,1.31-2.32,1.97-2.22-1.11-4.04-2.83-6.1-4.14-.5-.86-2.22-.96-1.66-2.52Z"/>
        <path class="cls-71" d="m134.04,14.58c1.06.66,2.07,1.31,3.13,1.92,1.56.4,2.83,1.26,3.43,2.83,0,.66-.15,1.21-.76,1.56-1.66-.4-3.33-.86-5.05-1.26-1.72-1.16-3.78-1.82-4.69-3.88,1.31-.4,2.62-.76,3.94-1.16Z"/>
        <path class="cls-20" d="m111.79,27.8h9.69c-.35,1.06-.71,2.07-1.01,3.13h-8.68v-3.13Z"/>
        <path class="cls-62" d="m130.11,15.74c1.41,1.46,3.43,2.22,4.69,3.88-1.16.1-2.37.2-3.53.3-1.51-.86-3.03-1.77-4.29-3.03-.25-.76-1.11-1.01-1.56-1.56.76-.76,1.82-.45,2.72-.76.71.4,1.36.76,1.97,1.16Z"/>
        <path class="cls-93" d="m127.03,16.9c1.61.76,3.18,1.56,4.29,3.03-1.16.4-2.32.76-3.48,1.16-1.46-1.26-3.48-1.87-4.29-3.83,1.06-.91,2.42.76,3.48-.35Z"/>
        <path class="cls-238" d="m139.84,20.89c.15-.55.3-1.11.4-1.66.91-.55,1.46.15,2.07.55,2.22,1.41,4.24,3.13,6.51,4.49h.25v.4c-.1,0-.15.05-.25.05-1.31,0-2.67-.05-3.99-.05-1.51-1.46-3.18-2.72-4.99-3.78Z"/>
        <path class="cls-216" d="m123.5,17.31c1.31,1.41,3.33,1.97,4.29,3.83-.5.3-1.01.55-1.56.86-.35-1.56-1.92-1.82-2.93-2.57-1.16-.91-2.32-1.87-3.68-2.47v-.4c.4-.25.76-.5,1.16-.76,1.16.05,1.66,1.26,2.72,1.51Z"/>
        <path class="cls-198" d="m118.05,19.63c2.12,1.26,4.19,2.52,5.85,4.34-.2.25-.45.5-.66.76h-.15c-.55-.45-1.26-.05-1.87-.25-1.87-1.21-4.04-2.07-5.25-4.19.5-.91,1.26-.86,2.07-.66Z"/>
        <path class="cls-75" d="m166.74,21.54c-1.87.45-3.23-.71-4.69-1.56h0c-1.21-.45-2.52-.2-3.78-.2-1.16,0-1.97-.35-2.47-1.41v-1.92c1.31.3.91-1.56,1.97-1.56,1.26.5,2.12,1.66,3.48,1.97,1.87,1.61,3.68,3.18,5.5,4.69Z"/>
        <path class="cls-176" d="m162.15,21.95c1.72,1.66,3.78,2.47,6.16,2.72h-6.16v-2.72Z"/>
        <path class="cls-141" d="m148.83,24.72c.1,0,.15-.05.25-.05,0,3.73.05,7.52.05,11.25-.71-1.87-.2-3.78-.3-5.65-.05-1.87,0-3.68,0-5.55Z"/>
        <path class="cls-101" d="m155.84,18.47c1.21,1.16,2.67,1.26,4.24,1.21.66-.05,1.41-.25,1.97.4-1.61,0-3.23-.1-4.79-.05-1.16,0-1.66-.4-1.41-1.56Z"/>
        <path class="cls-187" d="m121.18,24.27c.66.1,1.41-.3,1.92.4-3.78,0-7.57,0-11.3-.05v-5.05c1.06-.61,1.72.3,2.37.76,2.22,1.56,4.24,3.43,7.01,3.94Z"/>
        <path class="cls-14" d="m121.18,24.27c-3.08.55-4.69-1.97-6.91-3.23-.81-.45-1.46-1.26-2.47-1.41v-1.92c2.12-.1,3.28,1.16,4.34,2.72,1.61,1.31,3.58,2.27,5.05,3.83Z"/>
        <path class="cls-133" d="m116.13,20.38c-1.41-.91-2.62-2.22-4.34-2.72v-2.72c1.51.66,2.57,2.17,4.34,2.32,0,1.31,1.66,1.26,1.97,2.32-.61.55-1.46.2-1.97.81Z"/>
        <path class="cls-125" d="m40.91,29.62c.35.15.45.45.4.81.25.71.25,1.41,0,2.07.15.86-1.56,1.82.1,2.62-.35.35-.76.35-1.21.2-1.11-1.26-.05-2.42.15-3.63,0-.2.05-.4.05-.66.05-.5.05-1.06.5-1.41Z"/>
        <path class="cls-49" d="m43.73,36.73c.1.35.25.76.35,1.11.15.71-.25.45-.55.35-.66-.61-1.36-1.06-2.12-1.51-.15-.1-.25-.25-.4-.4-.45-.86.15-.91.76-.91.5-.1.81.35,1.21.5.25.25.5.55.76.86Z"/>
        <path class="cls-37" d="m41.76,35.52c-.66,0-.71.35-.45.81-1.06.4-1.46-.15-1.61-1.11.1-.2.3-.25.5-.15.4,0,.86.05,1.26.05h.1c.15.1.25.2.2.4Z"/>
        <path class="cls-165" d="m41.76,35.52c-.1-.1-.15-.25-.25-.35.81-.5,1.31-.25,1.46.71-.5.2-.86-.1-1.21-.35Z"/>
        <path class="cls-234" d="m41.36,32.54v-2.07c.1.05.2.1.3.1-.15.61.1,1.31-.3,1.97Z"/>
        <path class="cls-220" d="m95.85,16.5c1.11-.61,2.32-.5,3.48-.76.96-.35,1.51.4,2.17.86,1.06.81,2.27,1.36,3.28,2.27v3.48c-1.21-.2-2.12-.91-3.08-1.56-1.87-.91-3.78-1.77-5.05-3.48-.2-.4-.45-.66-.81-.81Z"/>
        <path class="cls-19" d="m96.61,17.31c1.77,1.06,3.53,2.12,5.05,3.48-1.31.2-2.67-.4-3.88.4-1.87-.91-3.38-2.32-5.05-3.48,1.26-.81,2.62-.25,3.88-.4Z"/>
        <path class="cls-230" d="m104.78,18.87c-1.56-.05-2.47-1.31-3.68-1.97-.61-.35-1.16-.76-1.77-1.16-.45-.55-1.31-.81-1.56-1.56h7.01v4.69Z"/>
        <path class="cls-13" d="m44.34,39.4c.05.15.1.3.15.45.1.3.1.55-.05.81-1.87.2-3.13-.96-4.54-1.87-.66-.4-1.16-1.01-1.82-1.41-.4-.3-.76-.66-.86-1.16.1-.71.55-.96,1.26-.91,1.97,1.36,4.14,2.47,5.85,4.09Z"/>
        <path class="cls-173" d="m44.34,39.4c-2.17-.96-4.19-2.17-5.85-3.94.05-.5.4-.55.81-.55.2.05.35.15.45.3.35.61.76,1.06,1.51,1.11h0c.71.61,1.56,1.06,2.32,1.56.2.3.3.1.4-.05.55.25.35.76.45,1.21,0,.1-.05.25-.1.35Z"/>
        <path class="cls-164" d="m44.39,40.56c.05-.25.1-.5.15-.71.45,1.41.55,2.83-.1,4.24v-2.77c-.25-.25-.25-.5-.05-.76Z"/>
        <path class="cls-1" d="m148.83,24.27c-2.27.1-3.28-1.97-4.99-2.88-1.21-.66-2.22-1.72-3.58-2.17-.76-1.26-2.22-1.66-3.13-2.72l.76-.76c1.26-.25,2.22.4,3.13,1.16.86-.25,1.31.4,1.87.81,1.97,1.56,4.24,2.72,5.95,4.64v1.92Z"/>
        <path class="cls-3" d="m148.83,22.35c-2.83-1.51-5.2-3.63-7.77-5.45.15-.35.4-.61.76-.76.76.35,1.26,1.36,2.32.76,2.02.35,3.38,1.61,4.64,3.08.05.81.05,1.56.05,2.37Z"/>
        <path class="cls-148" d="m148.83,20.03c-1.56-1.01-3.13-2.07-4.64-3.08-.4-1.06-.76-2.07-1.16-3.13,1.97.71,3.43,2.22,5.1,3.38,1.01.66.66,1.82.71,2.83Z"/>
        <path class="cls-11" d="m16.74,51.87c-2.32-1.77-5.2-2.67-7.42-4.64-2.57-2.93-3.38-6.31-2.32-10.09.1,1.46-.05,2.93.2,4.44.55,2.93,2.07,4.94,4.69,6.21,1.21.61,2.32,1.26,3.28,2.17,1.06-.05,1.56.5,1.56,1.51,0,.15,0,.25,0,.4Z"/>
        <path class="cls-32" d="m12.1,54.59c-1.16-.2-1.72-1.11-2.32-1.97,1.16.2,1.66,1.11,2.32,1.97Z"/>
        <path class="cls-76" d="m13.26,46.82c-.5-.86-1.41-.76-2.17-1.06-3.48-1.41-4.34-6.1-3.28-9.43.71.76.45,1.72.5,2.57.2,2.62,1.26,3.88,3.83,4.54.2.05.35.15.5.3.61.91,1.31,1.87.61,3.08Z"/>
        <path class="cls-175" d="m12.1,43.69c-2.37.1-4.09-1.72-4.29-4.54-.05-.96,0-1.92,0-2.88.4-1.01.2-2.27,1.16-3.13.25.2.3.5.3.81-.05.71-.25,1.36-.4,2.07-.55,3.43-.3,4.04,2.57,5.6.91.55,1.31,1.16.66,2.07Z"/>
        <path class="cls-98" d="m16.79,51.46c-.4-.66-.91-1.16-1.56-1.51-.55-1.01-1.06-2.07-1.61-3.08-.25-.45-.3-.91.15-1.26.81.05.96.76,1.26,1.26.76,1.41,1.92,2.52,2.62,3.94.05.35-.2.5-.45.66-.1-.05-.25,0-.4,0Z"/>
        <path class="cls-205" d="m14.06,45.66c-.5.25-.4.76-.4,1.21h-.35c-.25-1.06-.5-2.07-.81-3.13-.1-.91-.66-1.82,0-2.72.25-.15.55-.15.81.05.3.71-.1,1.56.5,2.22.05.15.1.3.15.5,0,.5-.1,1.01.2,1.46,0,.05-.05.25-.1.4Z"/>
        <path class="cls-106" d="m10.94,28.56c.5-.5,1.06-1.06,1.56-1.56h0c.45.55.1,1.06-.1,1.56-.76.91-1.01,2.17-2.12,2.83-.2.05-.35,0-.5-.1.05-1.06,1.16-1.66,1.16-2.72Z"/>
        <path class="cls-229" d="m9.72,31.28h.4c.35,1.21.05,2.17-1.16,2.72v-.76c-.05-.81.15-1.46.76-1.97Z"/>
        <path class="cls-240" d="m38.18,26.24c.4.5.81.96,1.21,1.46.15.76-.45.71-.91.81-.2,0-.35-.05-.55-.1-.66-.55-1.26-1.26-2.17-1.46-.4-.2-.76-.5-.76-1.06.15-.35.4-.61.81-.66.5,0,1.01.25,1.51.25.25.25.55.5.86.76Z"/>
        <path class="cls-128" d="m28.85,22.3c-.15-.1-.3-.25-.45-.35,1.51-.5,2.77.05,3.94.96.05.2,0,.35-.2.45-.66.25-1.26-.1-1.87-.3-.45-.25-1.06-.25-1.41-.76Z"/>
        <path class="cls-107" d="m33.94,23.36c.86.3,1.66.66,2.27,1.31-.05.25-.2.45-.45.5-.45.05-.86-.15-1.21-.35-.35-.25-.66-.55-.81-1.01,0-.2.05-.35.2-.45Z"/>
        <path class="cls-80" d="m35.86,25.08c.1-.15.25-.25.35-.4.45.1.91.3,1.11.81-.5.96-.96.15-1.41-.05-.15-.05-.2-.15-.15-.2,0-.1.05-.15.1-.15Z"/>
        <path class="cls-85" d="m33.94,23.36c0,.15,0,.3-.05.45-.45.35-.81.05-1.21-.1-.2-.15-.35-.35-.35-.66l-.05-.15c.71-.25,1.16.15,1.66.45Z"/>
        <path class="cls-203" d="m33.14,6.41v1.16c-1.82,3.43-4.44,6.31-6.36,9.64-.86,1.46-1.66,2.93-1.41,4.74-.61.45-1.66.66-.15,1.51,3.88,2.27,7.67,4.69,11.45,7.01.55.45,1.56.66,1.11,1.72-1.36,1.06-2.67.71-3.88-.2-1.92-1.36-3.88-2.52-6.16-3.13-3.03-1.11-5.6-3.08-8.38-4.69-.71-.4-1.46-.86-1.61-1.77.45-1.92,1.97-3.13,2.98-4.69,2.88-4.39,6.05-8.63,8.98-13.02.2-.2.4-.4.76-.25.81.71,1.77,1.36,2.67,1.97Z"/>
        <path class="cls-162" d="m28.85,22.3c.55.05,1.11-.1,1.56.35.71.71,1.72.96,2.47,1.51.66.4,1.31.76,1.92,1.16.15.1.25.2.35.35.05.45.35.71.71.86.45.5,1.46.45,1.46,1.46-.05.2-.15.35-.25.45-3.18-1.21-5.75-3.33-8.32-5.4-.45-.2-.71-.61.1-.76Z"/>
        <path class="cls-122" d="m25.32,21.95c-.76-.76-.35-1.56-.05-2.32,1.11-3.13,3.23-5.7,5.15-8.32.91-1.21,1.41-2.72,2.67-3.73l.4.4c-2.17,3.18-4.34,6.31-6.46,9.49-.86,1.31-1.61,2.77-1.31,4.49h-.4Z"/>
        <path class="cls-6" d="m37.78,32.04c-.4-.5-.76-1.01-1.16-1.56.91.1,1.82.25,2.72.35.66-.45,1.16-.3,1.51.35,0,.15.05.25.05.4-.3.3-.61.61-1.01.81s-.81.3-1.26.2c-.35-.05-.66-.2-.86-.55Z"/>
        <path class="cls-41" d="m40.85,31.23c-.5-.1-1.01-.25-1.51-.35-.4-.86-1.61-.96-1.92-1.92,1.21-.61,2.27.4,3.43.3.05.1.1.2.05.35,0,.55,0,1.11-.05,1.61Z"/>
        <path class="cls-12" d="m40.85,29.26c-1.26,1.01-2.27-.3-3.43-.3l-.4-.4v-.4c.25-.2.5-.2.81,0,.1,0,.25,0,.35.05.61.35,1.31.15,1.97.3.25.25.45.5.71.76Z"/>
        <path class="cls-102" d="m30.36,4.49l-.4.4c-.2.2-.45.25-.71.2-.25-.1-.45-.25-.55-.5-.05-.2,0-.35.1-.45.15-.5.25-1.01.4-1.51.55.5,1.11,1.01,1.16,1.87Z"/>
        <path class="cls-153" d="m28.85,4.09v.4c.15,1.36-.96,2.12-1.56,3.08-.5.81-1.11,1.51-1.61,2.32-.3.45-.5.96-1.01,1.26-.2.05-.35.05-.5-.05v-.76c1.06-2.22,3.13-3.83,3.88-6.21.3-.05.55-.05.81-.05Z"/>
        <path class="cls-82" d="m24.15,11.1h.4c.5.66-.05,1.11-.3,1.56-2.37,3.63-4.99,7.16-7.42,10.8-.2.25-.45.45-.76.61-.2.05-.4.05-.55-.1-.15-.3-.15-.55.1-.81.15-.25.25-.5.4-.76,2.17-2.07,3.53-4.79,5.35-7.21.91-1.36,1.82-2.77,2.77-4.09Z"/>
        <path class="cls-200" d="m34.7,47.98c-1.51,1.46-2.62,3.38-4.69,4.29h-.76c.25-1.36,1.97-1.41,2.37-2.62,1.11-1.41,2.57-2.57,2.67-4.59.05-.3.15-.55.25-.86.86-1.87.2-3.88.45-5.85.05-.35.15-.66.4-.91.3-.2.61-.2.96.05.4.45.45,1.01.45,1.56,0,1.06.05,2.12-.05,3.13,0,.2-.05.4-.1.61-.25.61-.3,1.26-.45,1.92-.1.4-.25.86-.4,1.26-.25.55-.5,1.11-.71,1.66-.15.15-.3.25-.4.35Z"/>
        <path class="cls-223" d="m31.97,49.9c-.5,1.21-1.87,1.51-2.72,2.32-1.26.66-2.57.86-3.94.81-.66.55-1.36.3-2.12.3-.5-.2-1.01-.3-1.41-.66-.1-.2-.05-.4.05-.61.25-.2.55-.3.86-.35,2.52,0,5.05-.1,7.32-1.46.61-.15,1.16-.86,1.97-.35Z"/>
        <path class="cls-168" d="m17.24,51.41c.1-.15.25-.35.35-.5.25-.25.5-.4.86-.3.5.15.91.45,1.36.71.61.5,1.61.4,1.82,1.36,0,.3-.2.5-.45.61-1.56-.2-2.57-1.36-3.94-1.87Z"/>
        <path class="cls-40" d="m22.99,53.13c.76-.05,1.51-.05,2.32-.1.1.35.35.81-.3.81-.81,0-1.72.1-2.42-.4-.05-.2.2-.25.4-.3Z"/>
        <path class="cls-81" d="m22.99,53.13c-.15.1-.3.25-.45.35-.45-.05-.91-.15-1.36-.2.1-.2.2-.4.3-.61.1-.2.25-.2.4-.05.3.15.71.35,1.11.5Z"/>
        <path class="cls-182" d="m43.63,42.53c.2,2.57-.76,4.79-1.97,6.96-1.51,1.56-2.88,3.38-4.69,4.64-1.16.55-2.32,1.16-3.68.5-1.61-.81-1.87-1.97-.71-3.33.3-.35.61-.66.86-1.06.15-.35.4-.61.76-.76.15-.1.3-.15.5,0,.1.15.2.35.2.5.05.81-.45,1.87.71,2.27,1.16.45,1.92-.3,2.62-1.01.1-.1.15-.2.2-.3.15-.2.3-.4.5-.61.76-.66,1.61-1.21,1.82-2.27.05-.15.1-.3.15-.45.3-.5.61-.96.76-1.51.05-.15.1-.3.2-.45.45-.76.35-1.66.61-2.47.35-.4.55-.86,1.16-.66Z"/>
        <path class="cls-66" d="m33.49,50.3c-.1.3-.15.61-.35.86-.4.66-1.41,1.11-.76,2.07.71,1.01,1.61,1.61,2.93,1.31.55-.15,1.11-.25,1.66-.35-2.17,1.87-4.59,2.27-6.21.96-.91-.71-1.06-1.41-.15-2.22,1.01-.86,1.97-1.72,2.88-2.62Z"/>
        <path class="cls-66" d="m34.7,49.55h-.4c.15-.5.25-1.06.4-1.56v-.4c.45-.4.5-1.06.76-1.56,0-.4-.05-.91.4-1.16.5-.55-.05-1.36.4-1.92v-.4c.3-1.16.3-2.32,0-3.48v-1.56c.1,0,.2-.05.3-.05.66.35.81.96.96,1.56.05,1.51.15,2.98-.05,4.49-.35,1.66-.71,3.28-1.46,4.79-.35.55-.45,1.31-1.31,1.26Z"/>
        <path class="cls-60" d="m43.63,42.53c-.35.15-.66.4-.76.76-.15.15-.25.3-.4.45-.25.4-.25.86-.45,1.26-.45.81-.96,1.61-2.02,1.46-1.11-.2-2.12-.81-2.22-2.07-.1-1.61-.4-3.28-.15-4.94.55-.55,1.11-.25,1.72-.1,1.31,1.06,3.08,1.46,4.29,2.72v.45Z"/>
        <path class="cls-228" d="m43.63,42.13c-1.56-.5-3.03-1.21-4.29-2.32-.5-.45-1.26-.66-1.36-1.46.1-.4.1-.86.2-1.26,2.07,1.16,3.78,2.93,6.21,3.48v.76c-.25.3-.5.55-.76.81Z"/>
        <path class="cls-236" d="m15.58,23.11v.76c-.05,1.31-1.01,2.12-1.66,3.13-.5.55-.76,1.41-1.61,1.61-.1-.05-.15-.05-.25-.1.15-.5.25-1.01.4-1.56,1.41-.96,1.51-2.98,3.13-3.83Z"/>
        <path class="cls-55" d="m197.92,9.18c.66.96.1,2.07.4,3.08-.81.05-.76-.91-1.21-1.16-.61.2-.25,1.26-1.11,1.06v-2.98c.66.05,1.26,0,1.92,0Z"/>
        <path class="cls-94" d="m40.15,28.51c-.81.81-1.36,0-1.97-.3.45,0,.96.05,1.21-.45.25.2.5.5.76.76Z"/>
        <path class="cls-64" d="m39.74,32.04c.4-.15.76-.25,1.16-.4-.15,1.16-1.06,2.17-.76,3.43-.15.05-.25.1-.4.1-.15-.05-.25-.1-.4-.1-.91-1.11-.2-2.07.4-3.03Z"/>
        <path class="cls-37" d="m43.63,37.94c-1.01-.2-1.82-.66-2.32-1.56.96.2,1.77.66,2.32,1.56Z"/>
        <path class="cls-185" d="m39.74,32.04c0,1.01-.61,1.97-.35,3.03-.3.1-.55.25-.86.35-.5.1-.91.4-1.16.86-.1.05-.15.1-.25.1s-.2-.05-.3-.05c-1.61-1.26-3.33-2.37-5.1-3.43-.61-.4-1.66-.66-1.26-1.82.4-.3.91-.3,1.36-.25,1.11.25,1.87,1.06,2.77,1.61,1.36.81,2.67,1.16,3.99-.1.35,0,.76-.15,1.16-.3Z"/>
        <path class="cls-48" d="m37.02,36.33c.1,0,.2-.05.35-.05.4.15.66.4.81.76.2.4.25.76,0,1.16-1.26-.05-1.51-.76-1.16-1.87Z"/>
        <path class="cls-229" d="m12.85,40.97c-.76.81-.25,1.82-.4,2.72h-.4c-.05-.66.1-1.26-.91-1.61-2.93-1.01-3.73-3.08-2.62-6.16.55.5.4,1.16.55,1.77.2.86.71,1.56,1.56,1.82.96.3,1.31-.5,1.77-1.11.3-.4.45-1.16,1.26-.76.5,1.31,0,2.32-.81,3.33Z"/>
        <path class="cls-236" d="m13.66,37.49c-.2.25-.4.5-.55.76-.55.96-.86,2.42-2.42,1.87-1.46-.5-2.32-1.56-2.12-3.23.05-.3,0-.66,0-.96-.05-.71,0-1.36.4-1.92.5-.86.96-1.72,1.16-2.72.81-.81.91-2.07,1.97-2.72h0c.55.76.05,1.36-.25,1.97-.55,1.16-1.06,2.32-1.36,3.58-.2.86-.45,1.82.4,2.52.76.61,1.46,0,2.12-.3.2-.1.35-.1.55-.1.4.25.4.61.3,1.01-.1.1-.15.2-.2.25Z"/>
        <path class="cls-221" d="m18.3,50.76c-.25.05-.5.1-.71.15-1.51-1.56-2.72-3.28-3.53-5.25v-.4c-.55-.45-.1-1.16-.35-1.66.05-.1,0-.2,0-.25-.45-.55-.4-1.21-.25-1.87.05-1.26-.25-2.67,1.41-3.23.55.5.4,1.16.3,1.82-.66,3.43.3,6.46,2.52,9.08.3.4.91.86.61,1.61Z"/>
        <path class="cls-69" d="m14.82,38.24c-1.11.81-.91,2.07-1.21,3.18-.15.1-.25.05-.35-.1-.15-.1-.25-.2-.4-.35.25-1.16.5-2.32.76-3.48h0c.66-2.57,2.93-3.88,4.44-5.8.76-.71,1.61-1.11,2.57-1.26.5-.05.96,0,1.41.3.35,1.06-.66,1.06-1.16,1.31-2.12.96-3.68,2.52-4.99,4.39-.4.55-.5,1.36-1.06,1.82Z"/>
        <path class="cls-245" d="m13.26,41.32c.1.05.25.1.35.1v1.87c-1.21-.45-.81-1.21-.35-1.97Z"/>
        <path class="cls-124" d="m13.66,43.59c.4.5.4,1.06.35,1.66-1.36-.3-.5-1.06-.35-1.66Z"/>
        <path class="cls-94" d="m37.83,28.15h-.81c0-.81-1.01-.86-1.21-1.51.96.15,1.82.35,2.02,1.51Z"/>
        <path class="cls-212" d="m35.86,25.08c0,.1,0,.25.05.35-.25.1-.5.2-.76.35h0c-.4-.3-.76-.61-.45-1.16.35.15.76.3,1.16.45Z"/>
        <path class="cls-249" d="m32.73,24.62c-.86-.55-1.87-.91-2.32-1.92.66.1,1.31.25,1.97.35.15.15.25.3.4.45.25.35.3.76-.05,1.11Z"/>
        <path class="cls-65" d="m32.73,24.62v-1.11c.4.1.76.2,1.16.3.25.25.5.5.81.81.15.4.3.76.45,1.16-1.06.05-1.56-.86-2.42-1.16Z"/>
        <path class="cls-105" d="m17.95,22.35c2.32,2.42,5.5,3.63,8.27,5.4.45.3,1.11.35,1.46.81-1.06.91-2.27.45-3.48.5-1.06.1-2.17-.05-3.23.1-2.83.2-4.94-1.26-5.4-3.68,0-.2.1-.4.15-.55.96-.66.86-2.17,2.22-2.57Z"/>
        <path class="cls-132" d="m17.95,22.35c-.91.71-.66,2.27-1.97,2.72-.35-.4-.3-.76,0-1.16,2.67-3.88,5.35-7.77,8.02-11.65.25-.35.55-.71.55-1.21.25-.4.5-.76.76-1.16,1.36-1.61,2.32-3.58,3.88-5.05h.76c-2.02,3.63-4.74,6.86-7.01,10.29-1.61,2.47-3.33,4.79-4.99,7.21Z"/>
        <path class="cls-132" d="m20.67,28.96c2.32-.86,4.69-.15,7.01-.4,2.32.1,4.14,1.41,5.9,2.67,1.41,1.01,2.67,1.46,4.24.81.3,0,.61.05.76.4-.55,1.61-1.56,1.92-2.98,1.06-1.21-.76-2.42-1.46-3.63-2.22-.81-.4-1.77-.4-2.42-1.06-1.16-.81-2.52-.71-3.88-.76-1.56-.05-3.18.3-4.74-.3-.1-.05-.2-.15-.25-.2Z"/>
        <path class="cls-82" d="m29.2,4.84c-1.26,1.72-2.17,3.68-3.88,5.05.76-2.07,2.47-3.53,3.53-5.45.1.15.25.3.35.4Z"/>
        <path class="cls-58" d="m15.98,23.91v1.16h0c-.81,1.21-.81,2.88-2.27,3.68-.2,0-.35-.1-.5-.2-.35-.66.2-1.06.45-1.51.4-1.21,1.21-2.12,1.97-3.13.1,0,.2,0,.35,0Z"/>
        <path class="cls-152" d="m35.56,37.49c-.05.25-.05.5-.1.76-.4,1.26-.15,2.57-.15,3.83-.05.86-.15,1.66-.55,2.42,0,.25-.05.5-.05.71-.96,2.42-2.57,4.24-4.89,5.4-1.97,1.11-4.09,1.41-6.31,1.21-8.22-1.72-10.39-9.43-7.42-15.59,2.02-2.83,4.59-4.79,8.17-5.1h1.77c2.37.3,4.44,1.26,6.16,2.93.86.81,1.77,1.51,2.88,1.92.45.4,1.36.66.5,1.51Z"/>
        <path class="cls-35" d="m29.96,50.3c2.07-1.21,3.28-3.28,4.69-5.1.05,2.12-1.66,3.23-2.72,4.69-.66-.05-1.01.55-1.56.76-.1-.1-.35-.1-.4-.35Z"/>
        <path class="cls-67" d="m34.7,44.5c.66-2.02-.15-4.24.76-6.26v4.44c0,.71.05,1.41-.76,1.82Z"/>
        <path class="cls-225" d="m36.21,39.05c.61,1.16.61,2.32,0,3.48v-3.48Z"/>
        <path class="cls-100" d="m35.56,37.49c.45-.76-.3-.81-.61-1.11.2-.3.5-.35.81-.35.45.1.71.4.76.86,0,.2-.1.4-.25.55h-.05c-.2.05-.45.05-.66.05Z"/>
        <path class="cls-225" d="m35.46,46.01c.05.66-.05,1.26-.76,1.56.05-.61.25-1.16.76-1.56Z"/>
        <path class="cls-225" d="m36.21,42.94c-.1.66.25,1.41-.4,1.92.15-.66-.2-1.36.4-1.92Z"/>
        <path class="cls-90" d="m16.44,36.43c-3.23,6.46-.5,12.31,7.01,15.04-.25.25-.81.25-.81.76h-.76c-.81-.2-1.61-.45-2.37-.76-.4-.25-.76-.5-1.16-.71-.5-1.26-1.77-1.92-2.47-3.13-1.66-3.03-1.61-6.1-1.06-9.33,0-.76.15-1.41.76-1.92.2-.25.35-.5.71-.35.25,0,.2.2.15.4Z"/>
        <path class="cls-126" d="m22.59,52.27c-.45-1.01.4-.66.81-.76,2.32.25,4.44-.3,6.56-1.16.15.15.3.25.4.4-2.37,1.41-5.05,1.61-7.77,1.51Z"/>
        <path class="cls-221" d="m19.46,51.46c.86,0,1.66.2,2.37.76v.35c-.15,0-.25.05-.4.05-.66-.35-1.31-.76-1.97-1.16Z"/>
        <path class="cls-58" d="m37.78,39.45c.35,1.46.5,2.93.4,4.39-.15,1.46.91,2.07,1.92,2.27s1.46-.81,1.61-1.77c.05-.5.3-.81.76-1.01.45,1.01-.15,1.82-.4,2.72h0c-.3.5-.35,1.11-.76,1.56v.4c-.61.86-1.16,1.72-2.02,2.32-2.32.25-3.33-.81-2.83-2.93.1-.45.2-.86.25-1.31.1-.3.15-.61.25-.91.45-1.82.2-3.68.3-5.5.1-.35.3-.4.5-.25Z"/>
        <path class="cls-77" d="m37.02,45.26v.76c-.25.91-.61,1.77-.76,2.72-.25,1.82.15,2.27,2.02,2.12.25,0,.5,0,.71.2-.4,1.06-1.21,1.66-2.22,1.92-1.77.4-2.47-.81-2.07-3.43,1.31-1.72,1.61-3.88,2.32-5.85.25.55.3,1.06,0,1.56Z"/>
        <path class="cls-63" d="m38.99,51.11c-.91.15-1.77,1.16-2.77.1-.91-.96-.5-1.92-.1-2.88.3-.76.35-1.66.96-2.27-.05.45-.05.91-.1,1.36-.45,2.07.15,2.67,2.47,2.52.25.25.2.5,0,.76-.2.1-.35.25-.45.4Z"/>
        <path class="cls-77" d="m39.34,50.71v-.76c.61-.66.91-1.66,1.97-1.92.05,1.36-1.06,1.97-1.97,2.67Z"/>
        <path class="cls-63" d="m42.07,46.06c.15-.91.25-1.82.4-2.72h.4c0,.96.1,1.97-.81,2.72Z"/>
        <path class="cls-63" d="m41.31,47.58c.05-.61.25-1.16.76-1.56.05.71-.05,1.26-.76,1.56Z"/>
        <path class="cls-15" d="m37.78,39.45h-.4c-.25-.2-.1-.61-.4-.76-.25-.4-.5-.76-.76-1.16v-.35c.3-.25,0-.96.71-.86l.05.05c.1.81.4,1.51,1.16,1.92.4.5.76,1.06,1.16,1.56-.45-.15-1.01-.3-1.51-.4Z"/>
        <path class="cls-63" d="m37.02,38.65c.3.15.4.45.4.76-.2,1.92.45,3.94-.4,5.8v-6.56Z"/>
        <path class="cls-63" d="m13.66,26.99c-.15.5-.25,1.06-.4,1.56,0,.1,0,.2-.05.25-.45,1.06-1.11,2.07-1.46,3.18-.2.66-.3,1.26.35,1.77.61.45,1.16.35,1.77-.05.66-.4,1.16-1.06,2.07-.96.15.1.25.3.25.45-.45,1.36-1.31,2.37-2.57,3.13-.25.2-.55.35-.76.55-.61.66-1.36.76-2.12.45-.91-.4-1.11-1.21-1.01-2.12.15-1.66.81-3.23,1.56-4.74.3-.66.55-1.31.81-1.97.5-.45,1.01-1.01,1.56-1.51Z"/>
        <path class="cls-63" d="m15.98,33.2v-.4c-.1-1.46,1.36-1.66,2.12-2.37,3.94-1.77,7.92-1.92,11.91-.35.66.4,1.46.55,1.97,1.16h-1.56c-.15.15-.35.2-.61.15-2.98-1.01-6.05-1.06-9.13-.55-.91.15-1.66.5-2.32,1.16-.91.3-1.11,1.77-2.37,1.21Z"/>
        <path class="cls-69" d="m30.01,31.28h.4c1.31,1.56,3.28,2.12,4.84,3.33.66.5,1.36.96,1.77,1.66-.25.3-.5.55-.71.86-.05-.3-.1-.66-.4-.81-1.21-.3-2.22-.96-3.13-1.82-1.06-.96-2.17-1.82-3.48-2.42-.4-.2-1.16-.2-.66-1.01.45-.15.91-.05,1.36.2Z"/>
        <path class="cls-229" d="m15.98,33.2c1.01.05,1.31-1.21,2.32-1.16-1.46,1.87-3.43,3.38-4.69,5.45v-1.16c.81-1.06,1.56-2.07,2.37-3.13Z"/>
        <path class="cls-218" d="m28.44,31.28c2.77,1.21,4.94,3.33,7.42,5.05-.3,0-.61.05-.91.05-1.06,0-1.82-.66-2.42-1.31-1.72-1.92-3.94-2.93-6.41-3.48-.66-.2-1.26-.2-1.92,0-3.43.3-5.8,2.22-7.77,4.84-.2-.5-.55-.15-.81-.1,1.01-2.12,2.72-3.48,4.74-4.49.61-.3,1.26-.61,1.87-.91.1-.05.15-.15.25-.2,1.51-.3,3.03-.15,4.59-.1.45.1,1.01.25,1.36.66Z"/>
        <path class="cls-127" d="m28.44,31.28c-.4,0-.91.05-1.16-.4-1.66-.35-3.38-.3-5.05,0h-1.56c3.18-1.31,6.31-1.26,9.33.4h-1.56Z"/>
        <path class="cls-132" d="m13.66,28.56c1.01-1.01.96-2.72,2.32-3.48.15,2.22,1.61,3.38,4.69,3.88h0c.1.96-.81.81-1.26,1.06-.61.35-1.31.5-1.82,1.01-.45.25-.86.5-1.36.55-2.37-.71-2.93-1.36-2.57-3.03Z"/>
        <path class="cls-190" d="m17.55,30.88c.61-1.31,2.32-.91,3.13-1.92h6.26c1.16,0,2.37.05,3.13,1.16-4.14-1.36-8.17-1.01-12.06.76-.2.2-.35.15-.45,0Z"/>
        <path class="cls-190" d="m13.66,28.56c0,1.82,1.46,2.17,2.72,2.72,0,1.01-.71,1.51-1.51,1.66-.96.15-1.87-.35-2.52-1.11-.4-.45-.3-.91,0-1.41.35-.61.5-1.31.96-1.87h0c.05,0,.2,0,.35,0Z"/>
        <path class="cls-103" d="m16.74,39.76c0-.4,0-.81.3-1.11.55-1.21,1.31-1.56,2.47-.66,1.01.76,2.22,1.31,3.28,2.02,1.01.66,1.97,1.41,2.93,2.17,1.36,1.06,2.72,2.02,4.54,2.37,1.77.35,1.92,1.51.71,2.88-.91.15-1.56-.45-2.27-.91-3.03-2.02-6.31-3.73-9.33-5.8-.86-.61-1.72-.71-2.67-.45-.1-.2-.1-.35.05-.5Z"/>
        <path class="cls-139" d="m17.14,44.5c-.35-.3-.35-.71-.4-1.11-.3-.55-.15-1.21-.15-1.77.45-.76,1.06-.3,1.46,0,3.08,1.97,6.26,3.78,9.33,5.8.76.5,1.92,1.21.35,2.17-1.01.45-2.07.71-3.18.35.15-.35.45-.5.71-.66.3-.66-.35-.66-.66-.86-2.32-1.46-4.79-2.77-7.01-4.44-.3-.2-.15.5-.45.5Z"/>
        <path class="cls-174" d="m16.84,40.21c.35-.91.76-1.16,1.77-.5,4.04,2.57,8.12,4.99,12.21,7.47.25.76-.61.86-.76,1.31-.3.35-.66.61-1.16.61-.05-1.06-.81-1.56-1.56-2.02-3.48-2.22-7.01-4.34-10.54-6.41-.15-.15-.15-.3.05-.45Z"/>
        <path class="cls-31" d="m30.01,48.54c.25-.45.5-.91.76-1.31.96-1.16.76-2.07-.55-2.27-3.28-.45-5.25-2.88-7.62-4.74-.66-.45-1.16-1.01-1.06-1.87.05-.2.15-.35.25-.5,2.07.71,3.23,2.62,4.94,3.78.81.5,1.51,1.16,2.27,1.77s1.61.81,2.47.25c.2-.15.4-.3.55-.5.15-.2.25-.45.35-.66.2-.4.45-.81,1.01-.76.45.4.3.86.1,1.31-.55,2.17-1.21,4.34-3.48,5.5Z"/>
        <path class="cls-96" d="m16.84,40.62c1.16-.1,1.92.71,2.77,1.21,2.98,1.87,5.95,3.78,8.98,5.6,1.01.61.81,1.06.3,1.77-.3.35-.66.45-1.11.45,1.01-1.16-.15-1.56-.81-1.97-3.33-2.12-6.76-4.19-10.14-6.26-.3-.3-.3-.55,0-.81Z"/>
        <path class="cls-72" d="m29.6,34.76c.15,0,.3,0,.45.05.15.2.3.45.4.71.1.5.55.96.3,1.46s-.55.86.15,1.21c.86.45.66-.55,1.06-.71.1-.05.25-.05.35,0,.25.5.55,1.01.81,1.51-.25.45-.3,1.01-.71,1.36-.25.25-.55.4-.96.35-1.26-.71-2.47-1.41-3.28-2.67-.05-.25-.1-.5-.1-.81-.15-.96-1.06-1.36-1.56-2.07-.4-.5-1.16-.86-.71-1.77.25-.15.5-.2.81-.15.66.1,1.31.2,1.87.71h0c.35.25.81.4,1.11.81Z"/>
        <path class="cls-46" d="m17.14,44.5c.25-.2-.35-1.36.76-.71,2.93,1.77,5.85,3.58,8.83,5.35-.5.5-.96.3-1.36.35-.15.15-.3.15-.5.1-2.72-1.31-5.35-2.77-7.62-4.74-.05-.1-.1-.2-.1-.35Z"/>
        <path class="cls-111" d="m17.19,44.9c2.72,1.31,5.3,2.88,7.72,4.64-.81.35-1.56.25-2.37.05-2.62-.61-4.24-2.37-5.35-4.69Z"/>
        <path class="cls-237" d="m21.83,38.29c.25.66.5,1.31.81,1.97-1.16-.4-2.17-1.01-3.13-1.77-.91-.76-1.72-.86-2.47.15.05-.61.35-1.11.71-1.56,1.46-1.21,2.57-.91,4.09,1.21Z"/>
        <path class="cls-144" d="m21.83,38.29c-1.31-.61-2.32-2.27-4.09-1.21.4-.81.91-1.46,1.66-1.97.96-.45,1.82-.45,2.62.4.4.81.5,1.61-.15,2.32-.05.15-.05.3-.05.45Z"/>
        <path class="cls-199" d="m32.33,37.49c-.61.35-.2,1.06-.61,1.72-.55-.35-1.11-.71-1.66-1.06-.5-.35-1.31-.66.05-1.11.91-.3-.45-.96-.1-1.51,1.01-.15,1.31.76,1.87,1.16.35.15.45.45.45.81Z"/>
        <path class="cls-191" d="m21.88,35.57c-.81-.15-1.66-.3-2.47-.45,1.36-1.56,3.13-2.12,5.15-1.87.05.15.05.3-.05.45-.35.3-.86.5-1.21.81-.35.3-.61.71-.96,1.06-.2.1-.35.1-.45,0Z"/>
        <path class="cls-130" d="m31.87,36.68c-.96.15-1.16-.91-1.87-1.16,0-.25.05-.45.05-.71,1.11.15,1.72.81,1.82,1.87Z"/>
        <path class="cls-161" d="m33.54,42.99c-.1-.4-.25-.81-.35-1.21-.05-.05-.15-.1-.2-.15-.2-.3-.2-.66-.05-.96.15-.25.3-.4.61-.4.55.91.4,1.82,0,2.72Z"/>
        <path class="cls-149" d="m33.54,40.26c-.1.1-.25.25-.35.35-.45.2-.66-.05-.81-.4,0-.55.3-.96.81-1.16.1.4.2.81.35,1.21Z"/>
        <path class="cls-150" d="m24.56,33.55c0-.1,0-.2-.05-.3.81-.1,1.61-.86,2.47-.15-.05.25-.3.3-.45.4-.25,0-.55.05-.81.05-.3.3-.61.3-1.01.15-.05,0-.1-.05-.15-.15Z"/>
        <path class="cls-84" d="m16.84,40.62v.81c0,.66-.05,1.36-.05,2.02-.5-1.21-.5-2.42-.05-3.63.05.15.05.3.1.5-.05.05-.05.15,0,.3Z"/>
        <path class="cls-87" d="m22.54,49.6c.81,0,1.56-.05,2.37-.05h.4c-.25.15-.55.3-.81.4-.66.05-1.36.1-1.97-.35Z"/>
        <path class="cls-115" d="m29.6,34.76c-.66.15-.91-.35-1.21-.81.66-.05,1.46-.4,1.21.81Z"/>
        <path class="cls-18" d="m26.53,33.55c.15-.15.3-.25.45-.4.66,0,1.26.1,1.46.86-.66-.15-1.26-.3-1.92-.45Z"/>
        <path class="cls-100" d="m24.15,31.58c.66-.45,1.31-.45,1.92,0h-1.92Z"/>
        <path class="cls-58" d="m13.26,28.56c-.1.35-.25.76-.3,1.11-.2.86-1.21,1.77.4,2.47,1.36.61,2.32.5,3.03-.86.4-.15.76-.25,1.16-.4h.4c-.4.91-1.61.96-1.97,1.92-.66.5-1.41.91-2.02,1.46-.76.71-1.41.4-2.07-.05-.71-.45-1.16-.96-.76-1.92.55-1.26.86-2.77,2.12-3.73Z"/>
        <path class="cls-69" d="m22.19,30.88c1.66-.66,3.38-.66,5.05,0h-5.05Z"/>
        <path class="cls-70" d="m21.88,35.57c.1,0,.2,0,.3-.05.15.1.3.2.4.35,1.77,2.32,4.34,3.63,6.51,5.45.15.1.3.2.45.3.71.86,1.77,1.21,2.42,2.07-.76,1.06-1.92,1.06-2.72.45-2.57-2.02-5.2-3.94-7.42-6.31,0-.76,0-1.51.05-2.27Z"/>
        <path class="cls-244" d="m33.19,41.78c-.2.35-.35.71-.55,1.06-1.01.15-1.72-.86-2.72-.76-.25-.1-.5-.15-.71-.35h0c-.76-.5-1.41-1.01-1.87-1.82-.05-.25,0-.5.1-.76.4-.4.81-.15,1.21-.05.15.05.3.15.4.25.4.35.86.76,1.36.96.4.15.76.35,1.16.45.76-.1,1.11.3,1.36.96.1.05.25.05.25.05Z"/>
        <path class="cls-24" d="m30.01,41.78c1.16-.25,1.87.5,2.62,1.11-.1.15-.2.3-.25.45-1.21.1-2.07-.35-2.37-1.56Z"/>
        <path class="cls-186" d="m30.01,41.78c.61.81,1.36,1.31,2.37,1.56-.15.15-.25.25-.4.4-1.26-.2-2.12-.91-2.72-1.97h.76Z"/>
        <path class="cls-45" d="m28.85,39.45c-.4-.15-.81-.25-1.16-.4-1.66-.76-2.88-2.12-4.29-3.18-.45-.35-.81-.86-.4-1.51.3-.71.96-.71,1.61-.81v.15c1.51.91,2.72,2.12,3.88,3.38v.76c-.45.71.71.96.35,1.61Z"/>
        <path class="cls-142" d="m28.44,37.08c-1.56-.81-2.88-1.97-3.88-3.38.4-.05.81-.05,1.21-.1.55,1.41,2.42,1.82,2.67,3.48Z"/>
        <path class="cls-149" d="m28.85,39.45c-.05-.55-1.21-.81-.4-1.56,1.06.91,2.07,1.82,3.13,2.72.15.1.2.15.15.25s-.1.1-.15.1c-.45,0-.91.1-1.16-.35-.55-.4-1.01-.86-1.56-1.16h0Z"/>
        <path class="cls-26" d="m31.57,40.97v-.4c.25-.15.5-.25.76-.4.25.15.55.25.81.4-.05.35-.1.76-.15,1.11-.45-.2-.81-.71-1.41-.71Z"/>
        <path class="cls-24" d="m22.94,34.36c.45,1.61,2.07,2.07,3.13,3.08.55.5,1.21.91,1.56,1.61v.76c-.2.2-.45.3-.66.1-1.51-1.41-3.43-2.32-4.74-3.99,0-.15-.05-.25-.05-.4.05-.5.25-.96.76-1.16Z"/>
        <path class="cls-186" d="m22.24,35.92c1.97,1.06,3.33,2.98,5.4,3.88.5.66,1.06,1.26,1.56,1.92-2.57-1.56-5.25-3.13-6.96-5.8Z"/>
        <path class="cls-45" d="m28.85,39.45c.81.05,1.21.55,1.56,1.16-.81-.05-1.21-.55-1.56-1.16Z"/>
      </g>
    </g>
  </g>
</svg>