<svg id="Capa_1" data-name="Capa 1" xmlns="http://www.w3.org/2000/svg" viewBox="0 0 500 500"><defs><style>.cls-1{fill:#a8c400;}</style></defs><path class="cls-1" d="M99.44,199.66H62c-17.46,1.68-18,15.11-18,15.11V310.5s-.73,6.35,8.2,6.49,8.6-6.49,8.6-6.49V275.23H95.22c17.18,0,34.92-1.76,36.77-38.81S99.44,199.66,99.44,199.66Zm15.11,41.87c0,9.87-7.37,18.59-17.26,18.59H60.81V219.91c0-3.19,3.81-5.14,7-5.14H98.53a15.61,15.61,0,0,1,16,16Z"/><path class="cls-1" d="M204.52,251C204.26,233.8,189,228.29,189,228.29c-21-7.94-41.47-2.7-46.46-.69s-2.6,9.56-2.6,9.56.57,5.79,6.08,3.91,18.78-2.16,18.78-2.16C187,237.43,188.45,250,188.45,250v13.44c0-.07-30.48.33-30.48.33C124.6,266.63,132,297.32,132,297.32s.54,21,36.6,21.4,35.92-25.45,35.92-25.45S204.79,268.25,204.52,251Zm-16.07,39.35c0,7.85-6.15,13.41-14,13.41H160.61a12.91,12.91,0,0,1-9.38-3.49,11.93,11.93,0,0,1-3.88-8.81c0-8.37,6.79-14.58,15.14-14.58h26Z"/><path class="cls-1" d="M255.31,317.67s-2.72,15.25-13.5,18.48c0,0-7.07,1.72-8.78,1.91-1,.11-5.46.63-5,4.82s-.6,11.3,11.67,9.49,25-9.62,29.5-26.41l23.39-90.22s2.67-7.53-4.12-7.53h-6s-4.76-.32-6,5.3l-15.67,65s-.84,6.33-8.26,6.33-9.38-9.43-9.38-9.43l-17.35-63s-.56-5.47-9.24-5.47-6.72,6.85-6.72,6.85l19.6,70.12S233.08,317,243,318.06C251.75,319,255.31,317.67,255.31,317.67Z"/><path class="cls-1" d="M411.82,224.85v53.59s-.06,39.32-55.07,40.43-54.09-40.28-54.09-40.28V208.05c1.68-8.75,7.42-9.35,7.42-9.35s8.82-.22,17.65,0,8.52,7.67,8.52,7.67v69.2s1.12,14.8,22.32,13.91,20.79-14.13,20.79-14.13-.29-59.42-.07-68,8.92-8.62,8.92-8.62,3.46-.19,8.5,0v21.06c0,2.71,1.83,5.11,4.53,5.11Z"/><rect class="cls-1" x="412.77" y="147.34" width="17.99" height="17.99" rx="1.53"/><rect class="cls-1" x="430.31" y="164.88" width="25.69" height="25.69" rx="2.19"/><path class="cls-1" d="M430.3,195.26v24.48c0,2.71-1.85,5.11-4.55,5.11H411.82v-16.8s.71-7.59-7.25-8.7c-2.76-.37-6.18-.57-7.86-.67v-3.42c0-2.71,1.83-5.68,4.53-5.68h24.51C428.45,189.58,430.3,192.55,430.3,195.26Z"/></svg>