<?xml version="1.0" encoding="UTF-8"?>
<svg id="Layer_2" data-name="Layer 2" xmlns="http://www.w3.org/2000/svg" viewBox="0 0 200 61.12">
  <defs>
    <style>
      .cls-1 {
        fill: #2859a0;
      }

      .cls-2 {
        fill: #e09e22;
      }
    </style>
  </defs>
  <g id="Capa_1" data-name="Capa 1">
    <path class="cls-1" d="m200,60.21c-4.65,0-9.3,0-13.96.05-.78,0-1.14-.17-1.3-1.03-.42-2.27-1-4.52-1.47-6.78-.16-.77-.47-1.06-1.32-1.06-6.22.03-12.44.02-18.66-.02-.9,0-1.22.37-1.49,1.11-.83,2.27-1.7,4.52-2.56,6.77-.19.5-.3,1.01-1.08,1.01-5.35-.03-10.71,0-16.08,0-.07-.79.36-1.32.62-1.91,7.63-17.24,15.32-34.46,22.91-51.72,1.59-3.61,4.15-5.44,8.07-5.44s8.09.04,12.14-.05c1.11-.03,1.22.57,1.39,1.32,2.35,10.65,4.7,21.31,7.05,31.96,1.79,8.1,3.6,16.2,5.4,24.29.05.23,0,.51.33.59l.03.9Zm-24.47-43.05c-2.95,7.59-5.73,14.78-8.59,22.14,4.19,0,8.18-.04,12.17.02,1.08,0,1.25-.29,1.02-1.3-1.53-6.82-3.03-13.65-4.59-20.86h0Z"/>
    <path class="cls-1" d="m135.34.04c1.84.67,3.81.7,5.69,1.17,4.41,1.1,4.43,1.05,3.65,5.46-.44,2.48-.88,4.95-1.27,7.44-.15,1.02-.44,1.17-1.41.74-4.97-2.21-10.48-2.95-15.86-2.11-1.67.2-3.24.9-4.49,2.01-1.7,1.57-1.76,3.66-.18,5.33,1.27,1.32,2.9,2.17,4.5,3.03,3.06,1.66,6.33,2.91,9.22,4.88,3.52,2.39,6.54,5.24,7.39,9.56,1.39,7.13-1,13-6.63,17.52-4.31,3.45-9.43,5-14.81,5.67-7.55.9-15.2.21-22.47-2.03-1.38-.41-2.02-.88-1.64-2.56.81-3.72,1.32-7.49,2-11.37,2.98,1.25,5.83,2.55,8.9,3.17,4.33.88,8.7,1.3,13.07.18,1.08-.27,2.09-.75,2.99-1.41,2.64-1.94,2.77-5.08.3-7.22-1.57-1.27-3.31-2.32-5.15-3.14-2.8-1.28-5.51-2.75-8.11-4.41-12.05-8.02-7.89-20.47-.52-25.99,4.33-3.24,9.25-4.82,14.54-5.62.32-.05.74.11.91-.35l9.39.04Z"/>
    <path class="cls-1" d="m38.78,31.85c1.05,2.98,1.36,6.14,2.24,9.5,1.86-4.72,3.6-9.14,5.34-13.56,3.33-8.47,6.68-16.94,9.97-25.43.37-.96.82-1.28,1.85-1.27,4.81.06,9.61.04,14.42,0,1.03,0,1.35.15.88,1.25-8.22,18.97-16.41,37.95-24.58,56.95-.37.88-.88.88-1.64.88-4.85,0-9.71-.04-14.57.03-1.08,0-1.46-.35-1.73-1.32-4.44-15.97-8.91-31.94-13.4-47.92-.18-.62-.38-1.24-.57-1.85.56-.1.95.28,1.37.52,2.92,1.71,5.67,3.68,8.23,5.9,5.16,4.52,9.31,10.08,12.18,16.32Z"/>
    <path class="cls-1" d="m78.46,60.23c-2.23,0-4.45-.05-6.68.02-1.04.04-1.36-.13-1.15-1.29,1.49-8.48,2.9-16.96,4.35-25.44,1.78-10.41,3.6-20.82,5.36-31.24.15-.93.44-1.28,1.41-1.26,4.6.04,9.21.04,13.81,0,.92,0,1.19.12,1.01,1.16-2.33,13.44-4.6,26.87-6.9,40.32-.94,5.51-1.94,11.01-2.81,16.51-.17,1.1-.62,1.25-1.56,1.23-2.28-.05-4.55-.01-6.83-.01Z"/>
    <path class="cls-2" d="m38.78,31.85c-2.87-6.23-7.02-11.79-12.18-16.3-2.55-2.22-5.31-4.19-8.23-5.9-.44-.25-.81-.63-1.37-.52-.22-.6-.81-.72-1.3-.97C11.07,5.76,6.2,3.91,1.16,2.62c-.44-.12-1.26.07-1.15-.85s.82-.72,1.41-.72h24.28c1.16,0,2.32.15,3.45.44,2.38.63,3.92,2.17,4.41,4.5,1.79,8.26,3.48,16.54,5.2,24.82.04.34.05.69.02,1.04Z"/>
  </g>
</svg>