<?xml version="1.0" encoding="UTF-8"?>
<svg id="Layer_2" data-name="Layer 2" xmlns="http://www.w3.org/2000/svg" viewBox="0 0 200 49.36">
  <defs>
    <style>
      .cls-1 {
        fill: #ea6f65;
      }

      .cls-2 {
        fill: #5994c3;
      }

      .cls-3 {
        fill: #df2213;
      }

      .cls-4 {
        fill: #4273a3;
      }

      .cls-5 {
        fill: #bed5e7;
      }

      .cls-6 {
        fill: #3c6fa0;
      }

      .cls-7 {
        fill: #7b9ebf;
      }

      .cls-8 {
        fill: #ddeccb;
      }

      .cls-9 {
        fill: #82aed2;
      }

      .cls-10 {
        fill: #004383;
      }

      .cls-11 {
        fill: #fed800;
      }

      .cls-12 {
        fill: #fee559;
      }

      .cls-13 {
        fill: #a5cd74;
      }

      .cls-14 {
        fill: #76b32a;
      }

      .cls-15 {
        fill: #005ca4;
      }
    </style>
  </defs>
  <g id="Capa_1" data-name="Capa 1">
    <path class="cls-8" d="m20.36.06s0-.04,0-.06h.98v.06c-.3.18-.68.18-.98,0Z"/>
    <path class="cls-9" d="m0,23.92v-.63s.08-.01.1.02c.09.19.09.4,0,.59-.02.03-.07.05-.1.02,0,0,0,0,0,0Z"/>
    <path class="cls-4" d="m200,20.43c-.12-.12-.12-.32,0-.44v.44Z"/>
    <path class="cls-6" d="m199.94,22.74c0-.14-.07-.3.06-.44v.44s-.03.02-.06,0Z"/>
    <path class="cls-7" d="m199.94,22.74h.06v.41c-.13-.13-.05-.28-.06-.41Z"/>
    <path class="cls-5" d="m.06,23.28h-.06v-.34s.04,0,.06,0c.1.07.11.21.04.31,0,.01-.02.02-.03.03Z"/>
    <path class="cls-5" d="m0,23.92h.06c.1.08.11.22.04.31-.01.01-.02.03-.04.04h-.06v-.35Z"/>
    <path class="cls-10" d="m92.71,12.84h3.87c.25,0,.31.07.28.31-.25,2.11-.48,4.22-.72,6.33s-.5,4.33-.74,6.51c-.18,1.39-.27,2.8-.27,4.2,0,.74.1,1.48.32,2.18.16.59.65,1.02,1.26,1.11,1.46.26,2.95.26,4.4,0,.67-.12,1.25-.57,1.53-1.19.53-1.1.89-2.28,1.05-3.49.39-2.23.57-4.49.84-6.74.28-2.36.54-4.72.81-7.09.07-.62.15-1.24.21-1.87,0-.18.08-.25.28-.25h7.86c.27,0,.26.1.24.31-.39,3.4-.76,6.81-1.16,10.21-.29,2.52-.5,5.06-1.1,7.54-.3,1.38-.79,2.72-1.45,3.97-1.38,2.55-3.57,3.99-6.35,4.6-1.91.37-3.85.54-5.79.48-1.61.03-3.22-.08-4.8-.34-1.01-.17-1.98-.5-2.89-.97-1.9-1.01-2.92-2.66-3.35-4.71-.32-1.66-.4-3.35-.25-5.03.22-3.36.7-6.69,1.07-10.04.21-1.91.44-3.83.63-5.74.03-.26.13-.29.35-.29,1.28,0,2.57,0,3.86,0Z"/>
    <path class="cls-10" d="m62.29,32.22c2.01.58,4.07.99,6.15,1.2,1.99.27,4.01.28,6.01.04.31-.05.61-.12.91-.22,1.06-.44,1.61-1.62,1.24-2.71-.12-.28-.36-.5-.66-.57-.83-.26-1.7-.39-2.57-.37-1.6,0-3.21-.07-4.8-.25-1.71-.24-3.37-.64-4.8-1.66-1.4-.96-2.3-2.51-2.43-4.21-.25-2.04.07-4.11.92-5.98.98-2.11,2.7-3.38,4.85-4.11,1.92-.6,3.92-.91,5.93-.92,3.67-.08,7.33.27,10.92,1.06.19.04.28.08.29.32.06,2.23.14,4.45.23,6.68,0,.32-.12.24-.31.19-1.58-.47-3.13-1.03-4.74-1.37-2.41-.52-4.88-.7-7.34-.53-.36.04-.71.1-1.06.18-.66.11-1.16.65-1.23,1.31-.1.45-.15.92-.13,1.38-.03.42.27.79.68.84.55.16,1.11.24,1.68.25,1.43.05,2.86.02,4.28.16,1.9.18,3.78.5,5.48,1.44,2.02,1.03,3.28,3.11,3.29,5.38.11,1.78-.25,3.56-1.05,5.16-1.09,2.09-2.88,3.32-5.05,4.06-1.82.57-3.71.88-5.61.92-4.02.14-8.04-.17-11.99-.92-.23-.04-.31-.1-.27-.35.38-2.02.74-4.04,1.1-6.06.02-.11.06-.23.08-.34Z"/>
    <path class="cls-3" d="m30.33,15.13c1.64-1.1,3.53-1.79,5.5-2.01,4.25-.55,8.52.9,11.56,3.93,2.39,2.21,3.91,5.21,4.28,8.45.52,4.24-.68,7.95-3.72,10.98-2.09,2.12-4.89,3.4-7.86,3.61-4.58.38-8.44-1.2-11.63-4.47-.09-.18.07-.24.16-.33,4.8-4.69,6-11.96,2.96-17.94-.3-.6-.65-1.18-1.04-1.72-.11-.16-.27-.29-.21-.51Z"/>
    <path class="cls-14" d="m20.36.06h.98c1.79.05,3.52.6,5.01,1.59,2.85,1.96,3.82,5.34,2.48,8.59-.31.8-.75,1.53-1.31,2.18-.53-.26-.98-.66-1.5-.94-3.93-2.26-8.74-2.37-12.77-.29-.84.43-1.62.96-2.34,1.57-.1.11-.23.19-.38.23-.54-.84-.85-1.81-.9-2.81-.18-2.58.84-4.7,2.59-6.51C14.38,1.46,17.29.17,20.36.06Z"/>
    <path class="cls-11" d="m25.58,37.59c1.07,1.38,1.78,3.01,2.07,4.73.55,3.4-1.48,6.31-4.86,6.91-2.4.38-4.85-.08-6.94-1.31-2.74-1.5-4.83-3.63-5.96-6.59-.7-1.85-.83-3.72,0-5.59.07-.14.15-.26.22-.39.17-.04.25.09.35.18,1.58,1.42,3.46,2.45,5.51,3.01,1.16.29,2.35.44,3.55.44,1.7,0,3.38-.33,4.95-.98.27-.1.52-.24.79-.36.08-.05.2-.15.33-.04Z"/>
    <path class="cls-1" d="m30.33,15.13c.55.8,1.05,1.64,1.49,2.5.79,1.65,1.27,3.42,1.45,5.24.29,2.94-.28,5.89-1.63,8.52-.78,1.51-1.82,2.87-3.06,4.03-.06.05-.14.09-.14.18-2.15-2.2-3.49-5.06-3.82-8.12-.48-4.47.93-8.27,4.27-11.31.44-.4.92-.75,1.43-1.03Z"/>
    <path class="cls-13" d="m10.53,12.99c.65-.61,1.36-1.14,2.14-1.58,1.63-.98,3.47-1.58,5.37-1.75,2.32-.24,4.67.14,6.79,1.1.87.39,1.69.87,2.46,1.44.09.07.2.12.24.24-.56.8-1.25,1.49-2.05,2.05-1.87,1.41-4.11,2.25-6.45,2.41-2.22.22-4.45-.32-6.32-1.53-.8-.53-1.49-1.22-2.01-2.03-.09-.1-.15-.22-.17-.35Z"/>
    <path class="cls-15" d="m.06,24.25v-1.31c.08-1.97.81-3.85,2.09-5.34.99-1.21,2.5-1.86,4.06-1.75.53.03,1.06.18,1.53.44.05.17-.05.29-.13.41-1.11,1.91-1.79,4.04-1.99,6.24-.24,2.59.18,5.2,1.23,7.59.1.22.3.44.19.71-2.18.54-3.86-.31-5.19-1.99C.75,27.81.12,26.06.06,24.25Z"/>
    <path class="cls-12" d="m25.58,37.59c-.7.33-1.42.62-2.15.87-1.22.38-2.48.58-3.75.6-1.78.04-3.54-.27-5.2-.92-1.54-.61-2.96-1.5-4.18-2.62-.06-.05-.12-.11-.18-.15.57-1.09,1.51-1.94,2.65-2.39,1.85-.75,3.9-.82,5.79-.22,2.81.78,5.28,2.48,7.02,4.83Z"/>
    <path class="cls-2" d="m7.03,31.24c-.25-.69-.59-1.34-.8-2.03-.39-1.23-.63-2.49-.72-3.77-.24-3.21.54-6.42,2.23-9.17,1.17.55,2.13,1.47,2.73,2.62.97,1.75,1.36,3.76,1.13,5.74-.13,1.75-.79,3.41-1.89,4.78-.67.88-1.6,1.52-2.66,1.84Z"/>
    <path class="cls-10" d="m200,19.66c-.08,0-.06-.08-.07-.14-.07-.47-.11-.95-.21-1.41-.57-2.75-2.16-4.54-4.93-5.18-1.11-.24-2.25-.36-3.39-.34-4.4,0-8.8,0-13.21,0-.66,0-.64,0-.72.66-.24,2.14-.49,4.29-.73,6.43-.27,2.31-.53,4.61-.79,6.92-.24,2.13-.49,4.26-.73,6.4s-.49,4.27-.74,6.4c-.03.28,0,.37.33.36h11.5c1.6.05,3.21-.02,4.8-.2,2.05-.23,3.95-1.22,5.3-2.79.96-1.18,1.66-2.56,2.07-4.03.82-2.71,1.13-5.52,1.4-8.32-.01-.35.03-.7.13-1.04v-.21c-.07-.13,0-.28-.03-.41s-.04-.28.03-.44v-1.88c-.06-.14-.06-.3,0-.44v-.34Zm-8.53,4.45c-.23,1.97-.49,3.93-.74,5.9-.06.54-.18,1.08-.37,1.59-.37.91-1.21,1.55-2.18,1.66-.91.12-1.83.17-2.75.13h-1.6c-.24,0-.29-.07-.26-.3.2-1.65.38-3.29.58-4.94.24-2.13.49-4.27.74-6.4.1-.85.2-1.7.28-2.56.02-.2.1-.24.29-.24h4.37c1.31,0,1.99.72,1.99,2.03-.05,1.05-.16,2.09-.34,3.12h0Z"/>
    <path class="cls-10" d="m148.19,41.95c-.8-2.28-1.61-4.57-2.41-6.85-.8-2.29-1.59-4.53-2.35-6.72-.05-.15-.11-.26.08-.37,1.91-1.1,3.06-2.83,3.77-4.84.75-2.19,1.05-4.51.9-6.83-.09-2.95-2.1-5.48-4.95-6.24-1.46-.39-2.97-.58-4.48-.55h-12.59c-.17,0-.34-.07-.38.24-.36,3.2-.74,6.4-1.12,9.58-.41,3.43-.82,6.87-1.23,10.3-.38,3.25-.76,6.5-1.15,9.75-.04.31.04.34.31.34h7.56c.37,0,.48-.09.52-.44.34-3.22.7-6.44,1.05-9.66.03-.23.11-.28.33-.28h3.06c.17-.03.34.09.37.26.34,1,.69,1.99,1.04,2.99,1.09,3.11,2.18,6.21,3.27,9.31.05.14.07.28.28.28h8.16c-.02-.12-.03-.19-.05-.25Zm-8.89-20.96c-.38,1.25-1.33,1.79-2.55,1.93-1.39.17-2.78.05-4.17.08-.22,0-.17-.13-.16-.25.15-1.46.31-2.93.46-4.39.07-.73.17-1.45.23-2.18,0-.22.1-.26.3-.26h4.36c1.24,0,1.95.67,1.97,1.9.03,1.08-.12,2.15-.43,3.18h0Z"/>
    <path class="cls-10" d="m157.21,29.35c1.92,0,3.83.04,5.75-.03,1.96-.03,3.91-.32,5.8-.87,2.14-.69,3.93-1.87,4.97-3.93.93-1.86,1.3-3.95,1.06-6.02-.22-2.41-1.59-4.01-3.8-4.93-.99-.39-2.03-.66-3.09-.81-1.97-.26-3.95-.36-5.93-.29-1.6,0-3.2.17-4.76.51-2.76.64-4.9,2.1-6.25,4.63-.65,1.27-1.14,2.61-1.43,4.01-.5,2.28-.82,4.59-.97,6.92-.16,1.74-.1,3.49.19,5.21.55,2.93,2.24,4.8,5.14,5.6,2.01.47,4.08.68,6.15.6,3.56-.06,7.11-.44,10.61-1.16.16,0,.3-.13.32-.29.59-2.31,1.18-4.62,1.79-6.99l-.44.12c-3.14.91-6.31,1.75-9.61,1.94-1.39.13-2.79.11-4.17-.09-.66-.09-1.2-.57-1.37-1.22-.22-.83-.32-1.69-.31-2.55-.02-.3.06-.37.34-.37Zm.44-6.57c.17-.77.41-1.52.71-2.25.33-.93,1.18-1.58,2.16-1.66,1.6-.2,3.22-.14,4.8.17.93.2,1.15.51,1.12,1.46,0,.25-.03.51-.08.76-.19,1.02-.5,1.31-1.51,1.55-1.34.22-2.7.3-4.05.24h-2.93c-.21,0-.27-.02-.21-.27h0Z"/>
  </g>
</svg>