<?xml version="1.0" encoding="utf-8"?>
<!-- Generator: Adobe Illustrator 26.2.1, SVG Export Plug-In . SVG Version: 6.00 Build 0)  -->
<svg version="1.1" id="Capa_1" xmlns="http://www.w3.org/2000/svg" xmlns:xlink="http://www.w3.org/1999/xlink" x="0px" y="0px"
	 viewBox="0 0 500 500" style="enable-background:new 0 0 500 500;" xml:space="preserve">
<style type="text/css">
	.st0{fill:#EE3035;}
</style>
<g>
	<rect x="325.3" y="181.6" class="st0" width="38.1" height="38.1"/>
	<path class="st0" d="M187.5,218.4c10,0,18.1-8,18.1-18.1c0-10-8-18.1-18.1-18.1c-3.3,0-6.7,0.7-9.4,2.7l0,0
		c2.7,4.7,4.7,10,4.7,15.4c0,6-2,11.4-4.7,15.4C180.8,217.7,184.2,218.4,187.5,218.4z"/>
	<path class="st0" d="M388.8,129.4H107.3l0,0c-11.4,0-21.4,10-21.4,21.4v196.6c0,12,10,22.1,21.4,22.1h281.5c12,0,22.1-10,22.1-22.1
		V150.8C410.9,139.5,400.8,129.4,388.8,129.4z M151.4,168.9c6.7,0,12.7,2,18.1,6c5.3-4,11.4-6,18.1-6c17.4,0,31.4,14,31.4,31.4
		s-14,31.4-31.4,31.4c-6.7,0-12.7-2-18.1-6c-5.3,4-11.4,6-18.1,6c-17.4,0-32.1-14-32.1-31.4C119.3,182.9,134,168.9,151.4,168.9z
		 M201.6,332.7h-72.2c-3.3,0-6.7-2.7-6.7-6.7c0-3.3,3.3-6.7,6.7-6.7h72.2c3.3,0,6.7,3.3,6.7,6.7
		C208.2,330.1,204.9,332.7,201.6,332.7z M225.6,304.6h-96.3c-3.3,0-6.7-2.7-6.7-6.7c0-3.3,3.3-6.7,6.7-6.7h96.3
		c3.3,0,6.7,3.3,6.7,6.7C232.3,302,229,304.6,225.6,304.6z M376.8,221.7c0,6-4.7,11.4-10.7,11.4h-42.8c-6,0-11.4-5.3-11.4-11.4
		v-42.8c0-6,5.3-10.7,11.4-10.7h42.8c6,0,10.7,4.7,10.7,10.7V221.7z"/>
	<path class="st0" d="M151.4,218.4c9.4,0,18.1-8,18.1-18.1c0-10-8.7-18.1-18.1-18.1c-10,0-18.7,8-18.7,18.1
		C132.7,210.3,141.4,218.4,151.4,218.4z"/>
</g>
<g>
	<path class="st0" d="M249.8,498.9c-21.5,0-43-2.8-63.9-8.4c-41.8-11.2-80.2-33.2-111-63.6c-2.9-2.9-3-7.6-0.1-10.5
		c2.9-2.9,7.6-3,10.5-0.1c29,28.6,65.1,49.3,104.4,59.8c40.5,10.8,83.4,10.5,123.9-1c60.1-17,110.1-56.5,140.6-111
		c30.5-54.6,37.9-117.7,20.9-177.9c-1.1-3.9,1.2-8.1,5.1-9.2c3.9-1.1,8.1,1.2,9.2,5.1c18.1,64,10.2,131.2-22.2,189.2
		s-85.5,100-149.5,118.1C295.6,495.8,272.7,498.9,249.8,498.9z"/>
	<path class="st0" d="M17.7,323.2c-3.2,0-6.2-2.1-7.1-5.4c-18.1-64-10.2-131.2,22.2-189.2c32.4-58,85.5-100,149.5-118.1
		c46.5-13.2,95.4-12.6,141.4,1.7c44.8,13.9,84.6,40,115.1,75.5c2.7,3.1,2.3,7.8-0.8,10.5c-3.1,2.7-7.8,2.3-10.5-0.8
		c-28.7-33.4-66.2-57.9-108.3-71c-43.2-13.4-89.2-14-133-1.6c-60.1,17-110.1,56.5-140.6,111C15.2,190.4,7.8,253.6,24.8,313.7
		c1.1,3.9-1.2,8.1-5.1,9.2C19,323.1,18.3,323.2,17.7,323.2z"/>
</g>
</svg>
